M48
; DRILL file {KiCad 7.0.6} date Sun Dec 17 20:00:18 2023
; FORMAT={-:-/ absolute / metric / decimal}
; #@! TF.CreationDate,2023-12-17T20:00:18+09:00
; #@! TF.GenerationSoftware,Kicad,Pcbnew,7.0.6
; #@! TF.FileFunction,MixedPlating,1,2
FMAT,2
METRIC
; #@! TA.AperFunction,Plated,PTH,ViaDrill
T1C0.305
; #@! TA.AperFunction,Plated,PTH,ComponentDrill
T2C0.800
; #@! TA.AperFunction,Plated,PTH,ComponentDrill
T3C1.300
; #@! TA.AperFunction,NonPlated,NPTH,ComponentDrill
T4C3.200
%
G90
G05
T1
X-37.5Y27.5
X-37.5Y27.5
X-37.5Y25.0
X-37.5Y22.5
X-37.5Y20.0
X-37.5Y17.5
X-37.5Y15.0
X-37.5Y12.5
X-37.5Y10.0
X-37.5Y7.5
X-37.5Y5.0
X-37.5Y2.5
X-37.5Y0.0
X-37.5Y-2.5
X-37.5Y-5.0
X-37.5Y-7.5
X-37.5Y-7.5
X-37.5Y-10.0
X-37.5Y-12.5
X-37.5Y-15.0
X-37.5Y-17.5
X-37.5Y-20.0
X-37.5Y-22.5
X-37.5Y-25.0
X-37.5Y-27.5
X-35.0Y27.5
X-35.0Y25.0
X-35.0Y22.5
X-35.0Y20.0
X-35.0Y17.5
X-35.0Y15.0
X-35.0Y12.5
X-35.0Y10.0
X-35.0Y-10.0
X-35.0Y-12.5
X-35.0Y-15.0
X-35.0Y-17.5
X-35.0Y-20.0
X-35.0Y-22.5
X-35.0Y-25.0
X-35.0Y-27.5
X-32.5Y27.5
X-32.5Y25.0
X-32.5Y22.5
X-32.5Y20.0
X-32.5Y17.5
X-32.5Y15.0
X-32.5Y12.5
X-32.5Y10.0
X-32.5Y-25.0
X-32.5Y-27.5
X-30.0Y27.5
X-30.0Y25.0
X-30.0Y22.5
X-30.0Y20.0
X-30.0Y17.5
X-30.0Y15.0
X-30.0Y12.5
X-30.0Y-27.5
X-27.5Y27.5
X-27.5Y25.0
X-27.5Y22.5
X-27.5Y20.0
X-27.5Y17.5
X-27.5Y15.0
X-27.5Y12.5
X-27.5Y10.0
X-27.5Y-5.0
X-27.5Y-7.5
X-27.5Y-10.0
X-27.5Y-27.5
X-25.0Y22.5
X-25.0Y20.0
X-25.0Y17.5
X-25.0Y17.5
X-25.0Y15.0
X-25.0Y12.5
X-25.0Y10.0
X-25.0Y-7.5
X-25.0Y-10.0
X-25.0Y-12.5
X-25.0Y-27.5
X-24.8Y-16.2
X-24.8Y-20.7
X-24.8Y-23.7
X-22.5Y25.0
X-22.5Y22.5
X-22.5Y20.0
X-22.5Y17.5
X-22.5Y15.0
X-22.5Y12.5
X-22.5Y10.0
X-22.5Y-5.0
X-22.5Y-7.5
X-22.5Y-10.0
X-22.5Y-12.5
X-22.5Y-27.5
X-22.5Y-27.5
X-21.5Y-25.2
X-21.2Y-17.7
X-21.2Y-22.2
X-20.0Y25.0
X-20.0Y22.5
X-20.0Y20.0
X-20.0Y17.5
X-20.0Y10.0
X-20.0Y-5.0
X-20.0Y-7.5
X-20.0Y-10.0
X-20.0Y-12.5
X-20.0Y-27.5
X-17.5Y22.5
X-17.5Y20.0
X-17.5Y17.5
X-17.5Y10.0
X-17.5Y-10.0
X-17.5Y-12.5
X-17.5Y-27.5
X-15.0Y27.5
X-15.0Y22.5
X-15.0Y20.0
X-15.0Y7.5
X-15.0Y5.0
X-15.0Y2.5
X-15.0Y0.0
X-15.0Y-5.0
X-15.0Y-10.0
X-15.0Y-12.5
X-15.0Y-25.0
X-15.0Y-27.5
X-12.5Y27.5
X-12.5Y-5.0
X-12.5Y-7.5
X-12.5Y-12.5
X-12.5Y-25.0
X-12.5Y-27.5
X-10.0Y27.5
X-10.0Y22.5
X-10.0Y20.0
X-10.0Y-12.5
X-10.0Y-27.5
X-8.6Y-22.0
X-7.5Y27.5
X-7.5Y22.5
X-7.5Y20.0
X-7.5Y-12.5
X-7.5Y-27.5
X-5.0Y5.0
X-5.0Y0.0
X-5.0Y-12.5
X-5.0Y-27.5
X-4.8Y-17.7
X-4.4Y-14.7
X-3.4Y-3.8
X-2.5Y17.5
X-2.5Y15.0
X-2.5Y12.5
X-2.5Y10.0
X-2.5Y-10.0
X-2.5Y-12.5
X-2.5Y-27.5
X-1.2Y-16.2
X0.0Y17.5
X0.0Y15.0
X0.0Y12.5
X0.0Y10.0
X0.0Y-10.0
X0.0Y-12.5
X0.0Y-15.0
X0.0Y-22.5
X0.0Y-25.0
X0.0Y-27.5
X2.5Y17.5
X2.5Y15.0
X2.5Y12.5
X2.5Y7.5
X2.5Y5.0
X2.5Y0.0
X2.5Y-2.5
X2.5Y-12.5
X2.5Y-15.0
X2.5Y-25.0
X2.5Y-27.5
X5.0Y27.5
X5.0Y17.5
X5.0Y15.0
X5.0Y7.5
X5.0Y5.0
X5.0Y0.0
X5.0Y-2.5
X5.0Y-25.0
X5.0Y-27.5
X7.5Y27.5
X7.5Y17.5
X7.5Y5.0
X7.5Y-7.5
X7.5Y-10.0
X7.5Y-25.0
X7.5Y-27.5
X8.0Y15.9
X8.0Y8.6
X8.0Y1.9
X8.0Y-5.4
X8.0Y-12.1
X8.0Y-19.4
X9.4Y11.2
X9.4Y-2.8
X9.4Y-16.8
X10.0Y17.5
X10.0Y-25.0
X10.0Y-27.5
X10.6Y11.2
X10.6Y-2.8
X10.6Y-16.8
X12.5Y17.5
X12.5Y7.5
X12.5Y5.0
X12.5Y-25.0
X12.5Y-27.5
X15.0Y27.5
X15.0Y-22.5
X15.0Y-25.0
X15.0Y-27.5
X15.037Y19.406
X15.088Y18.136
X15.088Y16.866
X15.088Y5.41
X15.088Y4.14
X15.088Y2.87
X15.088Y-8.585
X15.088Y-9.881
X15.088Y-11.151
X16.205Y19.406
X16.205Y18.136
X16.205Y16.866
X16.205Y5.41
X16.205Y4.14
X16.205Y2.87
X16.205Y-8.585
X16.205Y-9.881
X16.205Y-11.151
X17.5Y27.5
X17.5Y-22.5
X17.5Y-25.0
X17.5Y-27.5
X19.0Y11.8
X19.0Y10.5
X19.0Y9.2
X19.0Y-2.2
X19.0Y-3.5
X19.0Y-4.8
X19.0Y-16.2
X19.0Y-17.5
X19.0Y-18.8
X20.0Y27.5
X20.0Y-22.5
X20.0Y-25.0
X20.0Y-27.5
X20.3Y11.8
X20.3Y10.5
X20.3Y9.2
X20.3Y-2.2
X20.3Y-3.5
X20.3Y-4.8
X20.3Y-16.2
X20.3Y-17.5
X20.3Y-18.8
X21.6Y11.8
X21.6Y10.5
X21.6Y9.2
X21.6Y-2.2
X21.6Y-3.5
X21.6Y-4.8
X21.6Y-16.2
X21.6Y-17.5
X21.6Y-18.8
X22.5Y27.5
X22.5Y-22.5
X22.5Y-25.0
X22.5Y-27.5
X25.0Y27.5
X25.0Y-15.0
X25.0Y-17.5
X25.0Y-20.0
X25.0Y-22.5
X25.0Y-25.0
X25.0Y-27.5
X27.5Y27.5
X27.5Y-15.0
X27.5Y-17.5
X27.5Y-20.0
X27.5Y-22.5
X27.5Y-25.0
X27.5Y-27.5
X30.0Y27.5
X30.0Y25.0
X30.0Y22.5
X30.0Y20.0
X30.0Y17.5
X30.0Y15.0
X30.0Y-15.0
X30.0Y-17.5
X30.0Y-20.0
X30.0Y-22.5
X30.0Y-25.0
X30.0Y-27.5
X32.5Y27.5
X32.5Y25.0
X32.5Y22.5
X32.5Y20.0
X32.5Y17.5
X32.5Y15.0
X32.5Y-15.0
X32.5Y-17.5
X32.5Y-20.0
X32.5Y-22.5
X32.5Y-25.0
X32.5Y-27.5
X35.0Y27.5
X35.0Y25.0
X35.0Y22.5
X35.0Y20.0
X35.0Y17.5
X35.0Y15.0
X35.0Y-15.0
X35.0Y-17.5
X35.0Y-20.0
X35.0Y-22.5
X35.0Y-25.0
X35.0Y-27.5
X35.0Y-27.5
X37.5Y27.5
X37.5Y25.0
X37.5Y22.5
X37.5Y20.0
X37.5Y17.5
X37.5Y15.0
X37.5Y10.0
X37.5Y-10.0
X37.5Y-15.0
X37.5Y-17.5
X37.5Y-20.0
X37.5Y-22.5
X37.5Y-25.0
X37.5Y-27.5
T2
X-36.0Y6.35
X-36.0Y3.81
X-36.0Y1.27
X-36.0Y-1.27
X-36.0Y-3.81
X-36.0Y-6.35
X-33.46Y6.35
X-33.46Y3.81
X-33.46Y1.27
X-33.46Y-1.27
X-33.46Y-3.81
X-33.46Y-6.35
X-30.48Y-17.78
X-30.48Y-20.32
X-30.48Y-22.86
X-29.21Y8.89
X-29.21Y6.35
X-29.21Y3.81
X-29.21Y1.27
X-29.21Y-1.27
X-29.21Y-3.81
X-29.21Y-6.35
X-29.21Y-8.89
X-17.78Y25.4
X-12.7Y25.4
X-2.54Y-24.13
X-1.27Y7.62
X-1.27Y5.08
X-1.27Y2.54
X-1.27Y0.0
X-1.27Y-2.54
X-1.27Y-5.08
X29.21Y5.08
X29.21Y0.0
X29.21Y-5.08
T3
X-2.54Y26.455
X2.54Y26.455
X36.455Y5.08
X36.455Y0.0
X36.455Y-5.08
T4
X35.0Y12.0
X35.0Y-12.0
T0
M30
