G04 #@! TF.GenerationSoftware,KiCad,Pcbnew,7.0.6*
G04 #@! TF.CreationDate,2023-12-17T20:00:09+09:00*
G04 #@! TF.ProjectId,EB-BLDC,45422d42-4c44-4432-9e6b-696361645f70,V1_0*
G04 #@! TF.SameCoordinates,Original*
G04 #@! TF.FileFunction,Legend,Top*
G04 #@! TF.FilePolarity,Positive*
%FSLAX46Y46*%
G04 Gerber Fmt 4.6, Leading zero omitted, Abs format (unit mm)*
G04 Created by KiCad (PCBNEW 7.0.6) date 2023-12-17 20:00:09*
%MOMM*%
%LPD*%
G01*
G04 APERTURE LIST*
%ADD10C,0.150000*%
%ADD11C,0.200000*%
%ADD12C,0.120000*%
G04 APERTURE END LIST*
D10*
X-28358458Y-8454819D02*
X-27739411Y-8454819D01*
X-27739411Y-8454819D02*
X-28072744Y-8835771D01*
X-28072744Y-8835771D02*
X-27929887Y-8835771D01*
X-27929887Y-8835771D02*
X-27834649Y-8883390D01*
X-27834649Y-8883390D02*
X-27787030Y-8931009D01*
X-27787030Y-8931009D02*
X-27739411Y-9026247D01*
X-27739411Y-9026247D02*
X-27739411Y-9264342D01*
X-27739411Y-9264342D02*
X-27787030Y-9359580D01*
X-27787030Y-9359580D02*
X-27834649Y-9407200D01*
X-27834649Y-9407200D02*
X-27929887Y-9454819D01*
X-27929887Y-9454819D02*
X-28215601Y-9454819D01*
X-28215601Y-9454819D02*
X-28310839Y-9407200D01*
X-28310839Y-9407200D02*
X-28358458Y-9359580D01*
X-27310839Y-9359580D02*
X-27263220Y-9407200D01*
X-27263220Y-9407200D02*
X-27310839Y-9454819D01*
X-27310839Y-9454819D02*
X-27358458Y-9407200D01*
X-27358458Y-9407200D02*
X-27310839Y-9359580D01*
X-27310839Y-9359580D02*
X-27310839Y-9454819D01*
X-26929887Y-8454819D02*
X-26310840Y-8454819D01*
X-26310840Y-8454819D02*
X-26644173Y-8835771D01*
X-26644173Y-8835771D02*
X-26501316Y-8835771D01*
X-26501316Y-8835771D02*
X-26406078Y-8883390D01*
X-26406078Y-8883390D02*
X-26358459Y-8931009D01*
X-26358459Y-8931009D02*
X-26310840Y-9026247D01*
X-26310840Y-9026247D02*
X-26310840Y-9264342D01*
X-26310840Y-9264342D02*
X-26358459Y-9359580D01*
X-26358459Y-9359580D02*
X-26406078Y-9407200D01*
X-26406078Y-9407200D02*
X-26501316Y-9454819D01*
X-26501316Y-9454819D02*
X-26787030Y-9454819D01*
X-26787030Y-9454819D02*
X-26882268Y-9407200D01*
X-26882268Y-9407200D02*
X-26929887Y-9359580D01*
X-26025125Y-8454819D02*
X-25691792Y-9454819D01*
X-25691792Y-9454819D02*
X-25358459Y-8454819D01*
X30041541Y-4654819D02*
X30279636Y-5654819D01*
X30279636Y-5654819D02*
X30470112Y-4940533D01*
X30470112Y-4940533D02*
X30660588Y-5654819D01*
X30660588Y-5654819D02*
X30898684Y-4654819D01*
D11*
X-26202380Y-28409D02*
X-25869047Y-28409D01*
X-25791666Y-552219D02*
X-26267857Y-552219D01*
X-26267857Y-552219D02*
X-26142857Y447780D01*
X-26142857Y447780D02*
X-25666666Y447780D01*
X-25279761Y114447D02*
X-25363095Y-552219D01*
X-25291666Y19209D02*
X-25238095Y66828D01*
X-25238095Y66828D02*
X-25136904Y114447D01*
X-25136904Y114447D02*
X-24994047Y114447D01*
X-24994047Y114447D02*
X-24904761Y66828D01*
X-24904761Y66828D02*
X-24869047Y-28409D01*
X-24869047Y-28409D02*
X-24934523Y-552219D01*
X-24029761Y-552219D02*
X-23964285Y-28409D01*
X-23964285Y-28409D02*
X-23999999Y66828D01*
X-23999999Y66828D02*
X-24089285Y114447D01*
X-24089285Y114447D02*
X-24279761Y114447D01*
X-24279761Y114447D02*
X-24380952Y66828D01*
X-24023809Y-504600D02*
X-24124999Y-552219D01*
X-24124999Y-552219D02*
X-24363095Y-552219D01*
X-24363095Y-552219D02*
X-24452380Y-504600D01*
X-24452380Y-504600D02*
X-24488095Y-409361D01*
X-24488095Y-409361D02*
X-24476190Y-314123D01*
X-24476190Y-314123D02*
X-24416666Y-218885D01*
X-24416666Y-218885D02*
X-24315476Y-171266D01*
X-24315476Y-171266D02*
X-24077380Y-171266D01*
X-24077380Y-171266D02*
X-23976190Y-123647D01*
X-23553571Y-552219D02*
X-23428571Y447780D01*
X-23476190Y66828D02*
X-23374999Y114447D01*
X-23374999Y114447D02*
X-23184523Y114447D01*
X-23184523Y114447D02*
X-23095237Y66828D01*
X-23095237Y66828D02*
X-23053571Y19209D01*
X-23053571Y19209D02*
X-23017856Y-76028D01*
X-23017856Y-76028D02*
X-23053571Y-361742D01*
X-23053571Y-361742D02*
X-23113094Y-456980D01*
X-23113094Y-456980D02*
X-23166666Y-504600D01*
X-23166666Y-504600D02*
X-23267856Y-552219D01*
X-23267856Y-552219D02*
X-23458333Y-552219D01*
X-23458333Y-552219D02*
X-23547618Y-504600D01*
X-22505952Y-552219D02*
X-22595237Y-504600D01*
X-22595237Y-504600D02*
X-22630952Y-409361D01*
X-22630952Y-409361D02*
X-22523809Y447780D01*
X-21738094Y-504600D02*
X-21839284Y-552219D01*
X-21839284Y-552219D02*
X-22029761Y-552219D01*
X-22029761Y-552219D02*
X-22119046Y-504600D01*
X-22119046Y-504600D02*
X-22154761Y-409361D01*
X-22154761Y-409361D02*
X-22107142Y-28409D01*
X-22107142Y-28409D02*
X-22047618Y66828D01*
X-22047618Y66828D02*
X-21946427Y114447D01*
X-21946427Y114447D02*
X-21755951Y114447D01*
X-21755951Y114447D02*
X-21666665Y66828D01*
X-21666665Y66828D02*
X-21630951Y-28409D01*
X-21630951Y-28409D02*
X-21642856Y-123647D01*
X-21642856Y-123647D02*
X-22130951Y-218885D01*
D10*
X-393458Y-2054819D02*
X-155363Y-3054819D01*
X-155363Y-3054819D02*
X35112Y-2340533D01*
X35112Y-2340533D02*
X225588Y-3054819D01*
X225588Y-3054819D02*
X463684Y-2054819D01*
X1606541Y-3054819D02*
X1606541Y-2054819D01*
X1606541Y-2531009D02*
X2177969Y-2531009D01*
X2177969Y-3054819D02*
X2177969Y-2054819D01*
X2654160Y-3054819D02*
X2654160Y-2388152D01*
X2654160Y-2054819D02*
X2606541Y-2102438D01*
X2606541Y-2102438D02*
X2654160Y-2150057D01*
X2654160Y-2150057D02*
X2701779Y-2102438D01*
X2701779Y-2102438D02*
X2654160Y-2054819D01*
X2654160Y-2054819D02*
X2654160Y-2150057D01*
X-29651077Y-19854819D02*
X-29317744Y-20854819D01*
X-29317744Y-20854819D02*
X-28984411Y-19854819D01*
X-28358458Y4245180D02*
X-28120363Y3245180D01*
X-28120363Y3245180D02*
X-27929887Y3959466D01*
X-27929887Y3959466D02*
X-27739411Y3245180D01*
X-27739411Y3245180D02*
X-27501316Y4245180D01*
X-27120363Y3245180D02*
X-27120363Y4245180D01*
X-27120363Y4245180D02*
X-26739411Y4245180D01*
X-26739411Y4245180D02*
X-26644173Y4197561D01*
X-26644173Y4197561D02*
X-26596554Y4149942D01*
X-26596554Y4149942D02*
X-26548935Y4054704D01*
X-26548935Y4054704D02*
X-26548935Y3911847D01*
X-26548935Y3911847D02*
X-26596554Y3816609D01*
X-26596554Y3816609D02*
X-26644173Y3768990D01*
X-26644173Y3768990D02*
X-26739411Y3721371D01*
X-26739411Y3721371D02*
X-27120363Y3721371D01*
X-28358458Y-3354819D02*
X-28120363Y-4354819D01*
X-28120363Y-4354819D02*
X-27929887Y-3640533D01*
X-27929887Y-3640533D02*
X-27739411Y-4354819D01*
X-27739411Y-4354819D02*
X-27501316Y-3354819D01*
X-27120363Y-4354819D02*
X-27120363Y-3354819D01*
X-27120363Y-3354819D02*
X-26548935Y-4354819D01*
X-26548935Y-4354819D02*
X-26548935Y-3354819D01*
X-298220Y5545180D02*
X-298220Y4735657D01*
X-298220Y4735657D02*
X-250601Y4640419D01*
X-250601Y4640419D02*
X-202982Y4592800D01*
X-202982Y4592800D02*
X-107744Y4545180D01*
X-107744Y4545180D02*
X82731Y4545180D01*
X82731Y4545180D02*
X177969Y4592800D01*
X177969Y4592800D02*
X225588Y4640419D01*
X225588Y4640419D02*
X273207Y4735657D01*
X273207Y4735657D02*
X273207Y5545180D01*
X1987493Y4545180D02*
X1511303Y4545180D01*
X1511303Y4545180D02*
X1511303Y5545180D01*
X2463684Y4545180D02*
X2368446Y4592800D01*
X2368446Y4592800D02*
X2320827Y4640419D01*
X2320827Y4640419D02*
X2273208Y4735657D01*
X2273208Y4735657D02*
X2273208Y5021371D01*
X2273208Y5021371D02*
X2320827Y5116609D01*
X2320827Y5116609D02*
X2368446Y5164228D01*
X2368446Y5164228D02*
X2463684Y5211847D01*
X2463684Y5211847D02*
X2606541Y5211847D01*
X2606541Y5211847D02*
X2701779Y5164228D01*
X2701779Y5164228D02*
X2749398Y5116609D01*
X2749398Y5116609D02*
X2797017Y5021371D01*
X2797017Y5021371D02*
X2797017Y4735657D01*
X2797017Y4735657D02*
X2749398Y4640419D01*
X2749398Y4640419D02*
X2701779Y4592800D01*
X2701779Y4592800D02*
X2606541Y4545180D01*
X2606541Y4545180D02*
X2463684Y4545180D01*
X-28263220Y-6331009D02*
X-27929887Y-6331009D01*
X-27787030Y-6854819D02*
X-28263220Y-6854819D01*
X-28263220Y-6854819D02*
X-28263220Y-5854819D01*
X-28263220Y-5854819D02*
X-27787030Y-5854819D01*
X-27358458Y-6854819D02*
X-27358458Y-5854819D01*
X-27358458Y-5854819D02*
X-26787030Y-6854819D01*
X-26787030Y-6854819D02*
X-26787030Y-5854819D01*
X-26358458Y-6569104D02*
X-25882268Y-6569104D01*
X-26453696Y-6854819D02*
X-26120363Y-5854819D01*
X-26120363Y-5854819D02*
X-25787030Y-6854819D01*
X-25120363Y-6331009D02*
X-24977506Y-6378628D01*
X-24977506Y-6378628D02*
X-24929887Y-6426247D01*
X-24929887Y-6426247D02*
X-24882268Y-6521485D01*
X-24882268Y-6521485D02*
X-24882268Y-6664342D01*
X-24882268Y-6664342D02*
X-24929887Y-6759580D01*
X-24929887Y-6759580D02*
X-24977506Y-6807200D01*
X-24977506Y-6807200D02*
X-25072744Y-6854819D01*
X-25072744Y-6854819D02*
X-25453696Y-6854819D01*
X-25453696Y-6854819D02*
X-25453696Y-5854819D01*
X-25453696Y-5854819D02*
X-25120363Y-5854819D01*
X-25120363Y-5854819D02*
X-25025125Y-5902438D01*
X-25025125Y-5902438D02*
X-24977506Y-5950057D01*
X-24977506Y-5950057D02*
X-24929887Y-6045295D01*
X-24929887Y-6045295D02*
X-24929887Y-6140533D01*
X-24929887Y-6140533D02*
X-24977506Y-6235771D01*
X-24977506Y-6235771D02*
X-25025125Y-6283390D01*
X-25025125Y-6283390D02*
X-25120363Y-6331009D01*
X-25120363Y-6331009D02*
X-25453696Y-6331009D01*
X-23977506Y-6854819D02*
X-24453696Y-6854819D01*
X-24453696Y-6854819D02*
X-24453696Y-5854819D01*
X-23644172Y-6331009D02*
X-23310839Y-6331009D01*
X-23167982Y-6854819D02*
X-23644172Y-6854819D01*
X-23644172Y-6854819D02*
X-23644172Y-5854819D01*
X-23644172Y-5854819D02*
X-23167982Y-5854819D01*
X-441077Y445180D02*
X-107744Y-554819D01*
X-107744Y-554819D02*
X225588Y445180D01*
X1797017Y-554819D02*
X1320827Y-554819D01*
X1320827Y-554819D02*
X1320827Y445180D01*
X2273208Y-554819D02*
X2177970Y-507200D01*
X2177970Y-507200D02*
X2130351Y-459580D01*
X2130351Y-459580D02*
X2082732Y-364342D01*
X2082732Y-364342D02*
X2082732Y-78628D01*
X2082732Y-78628D02*
X2130351Y16609D01*
X2130351Y16609D02*
X2177970Y64228D01*
X2177970Y64228D02*
X2273208Y111847D01*
X2273208Y111847D02*
X2416065Y111847D01*
X2416065Y111847D02*
X2511303Y64228D01*
X2511303Y64228D02*
X2558922Y16609D01*
X2558922Y16609D02*
X2606541Y-78628D01*
X2606541Y-78628D02*
X2606541Y-364342D01*
X2606541Y-364342D02*
X2558922Y-459580D01*
X2558922Y-459580D02*
X2511303Y-507200D01*
X2511303Y-507200D02*
X2416065Y-554819D01*
X2416065Y-554819D02*
X2273208Y-554819D01*
D11*
X29560713Y-9252219D02*
X29685713Y-8252219D01*
X29685713Y-8252219D02*
X29929761Y-8966504D01*
X29929761Y-8966504D02*
X30352380Y-8252219D01*
X30352380Y-8252219D02*
X30227380Y-9252219D01*
X30846428Y-9252219D02*
X30757142Y-9204600D01*
X30757142Y-9204600D02*
X30715475Y-9156980D01*
X30715475Y-9156980D02*
X30679761Y-9061742D01*
X30679761Y-9061742D02*
X30715475Y-8776028D01*
X30715475Y-8776028D02*
X30774999Y-8680790D01*
X30774999Y-8680790D02*
X30828570Y-8633171D01*
X30828570Y-8633171D02*
X30929761Y-8585552D01*
X30929761Y-8585552D02*
X31072618Y-8585552D01*
X31072618Y-8585552D02*
X31161904Y-8633171D01*
X31161904Y-8633171D02*
X31203570Y-8680790D01*
X31203570Y-8680790D02*
X31239285Y-8776028D01*
X31239285Y-8776028D02*
X31203570Y-9061742D01*
X31203570Y-9061742D02*
X31144047Y-9156980D01*
X31144047Y-9156980D02*
X31090475Y-9204600D01*
X31090475Y-9204600D02*
X30989285Y-9252219D01*
X30989285Y-9252219D02*
X30846428Y-9252219D01*
X31548809Y-8585552D02*
X31929761Y-8585552D01*
X31733332Y-8252219D02*
X31626190Y-9109361D01*
X31626190Y-9109361D02*
X31661904Y-9204600D01*
X31661904Y-9204600D02*
X31751190Y-9252219D01*
X31751190Y-9252219D02*
X31846428Y-9252219D01*
X32322619Y-9252219D02*
X32233333Y-9204600D01*
X32233333Y-9204600D02*
X32191666Y-9156980D01*
X32191666Y-9156980D02*
X32155952Y-9061742D01*
X32155952Y-9061742D02*
X32191666Y-8776028D01*
X32191666Y-8776028D02*
X32251190Y-8680790D01*
X32251190Y-8680790D02*
X32304761Y-8633171D01*
X32304761Y-8633171D02*
X32405952Y-8585552D01*
X32405952Y-8585552D02*
X32548809Y-8585552D01*
X32548809Y-8585552D02*
X32638095Y-8633171D01*
X32638095Y-8633171D02*
X32679761Y-8680790D01*
X32679761Y-8680790D02*
X32715476Y-8776028D01*
X32715476Y-8776028D02*
X32679761Y-9061742D01*
X32679761Y-9061742D02*
X32620238Y-9156980D01*
X32620238Y-9156980D02*
X32566666Y-9204600D01*
X32566666Y-9204600D02*
X32465476Y-9252219D01*
X32465476Y-9252219D02*
X32322619Y-9252219D01*
X33084523Y-9252219D02*
X33167857Y-8585552D01*
X33144047Y-8776028D02*
X33203571Y-8680790D01*
X33203571Y-8680790D02*
X33257142Y-8633171D01*
X33257142Y-8633171D02*
X33358333Y-8585552D01*
X33358333Y-8585552D02*
X33453571Y-8585552D01*
D10*
X-16284411Y24945180D02*
X-16855839Y24945180D01*
X-16570125Y24945180D02*
X-16570125Y25945180D01*
X-16570125Y25945180D02*
X-16665363Y25802323D01*
X-16665363Y25802323D02*
X-16760601Y25707085D01*
X-16760601Y25707085D02*
X-16855839Y25659466D01*
X-15903458Y25849942D02*
X-15855839Y25897561D01*
X-15855839Y25897561D02*
X-15760601Y25945180D01*
X-15760601Y25945180D02*
X-15522506Y25945180D01*
X-15522506Y25945180D02*
X-15427268Y25897561D01*
X-15427268Y25897561D02*
X-15379649Y25849942D01*
X-15379649Y25849942D02*
X-15332030Y25754704D01*
X-15332030Y25754704D02*
X-15332030Y25659466D01*
X-15332030Y25659466D02*
X-15379649Y25516609D01*
X-15379649Y25516609D02*
X-15951077Y24945180D01*
X-15951077Y24945180D02*
X-15332030Y24945180D01*
X-15046315Y25945180D02*
X-14712982Y24945180D01*
X-14712982Y24945180D02*
X-14379649Y25945180D01*
X-441077Y3045180D02*
X-107744Y2045180D01*
X-107744Y2045180D02*
X225588Y3045180D01*
X1320827Y2045180D02*
X1320827Y3045180D01*
X1320827Y2568990D02*
X1892255Y2568990D01*
X1892255Y2045180D02*
X1892255Y3045180D01*
X2368446Y2045180D02*
X2368446Y2711847D01*
X2368446Y3045180D02*
X2320827Y2997561D01*
X2320827Y2997561D02*
X2368446Y2949942D01*
X2368446Y2949942D02*
X2416065Y2997561D01*
X2416065Y2997561D02*
X2368446Y3045180D01*
X2368446Y3045180D02*
X2368446Y2949942D01*
X-28406077Y6845180D02*
X-28072744Y5845180D01*
X-28072744Y5845180D02*
X-27739411Y6845180D01*
X-27406077Y5845180D02*
X-27406077Y6845180D01*
X-27406077Y6845180D02*
X-27025125Y6845180D01*
X-27025125Y6845180D02*
X-26929887Y6797561D01*
X-26929887Y6797561D02*
X-26882268Y6749942D01*
X-26882268Y6749942D02*
X-26834649Y6654704D01*
X-26834649Y6654704D02*
X-26834649Y6511847D01*
X-26834649Y6511847D02*
X-26882268Y6416609D01*
X-26882268Y6416609D02*
X-26929887Y6368990D01*
X-26929887Y6368990D02*
X-27025125Y6321371D01*
X-27025125Y6321371D02*
X-27406077Y6321371D01*
D11*
X26796992Y-23605314D02*
X27296992Y-23605314D01*
X27511278Y-24391028D02*
X26796992Y-24391028D01*
X26796992Y-24391028D02*
X26796992Y-22891028D01*
X26796992Y-22891028D02*
X27511278Y-22891028D01*
X28654135Y-23605314D02*
X28868421Y-23676742D01*
X28868421Y-23676742D02*
X28939850Y-23748171D01*
X28939850Y-23748171D02*
X29011278Y-23891028D01*
X29011278Y-23891028D02*
X29011278Y-24105314D01*
X29011278Y-24105314D02*
X28939850Y-24248171D01*
X28939850Y-24248171D02*
X28868421Y-24319600D01*
X28868421Y-24319600D02*
X28725564Y-24391028D01*
X28725564Y-24391028D02*
X28154135Y-24391028D01*
X28154135Y-24391028D02*
X28154135Y-22891028D01*
X28154135Y-22891028D02*
X28654135Y-22891028D01*
X28654135Y-22891028D02*
X28796993Y-22962457D01*
X28796993Y-22962457D02*
X28868421Y-23033885D01*
X28868421Y-23033885D02*
X28939850Y-23176742D01*
X28939850Y-23176742D02*
X28939850Y-23319600D01*
X28939850Y-23319600D02*
X28868421Y-23462457D01*
X28868421Y-23462457D02*
X28796993Y-23533885D01*
X28796993Y-23533885D02*
X28654135Y-23605314D01*
X28654135Y-23605314D02*
X28154135Y-23605314D01*
X29654135Y-23819600D02*
X30796993Y-23819600D01*
X32011278Y-23605314D02*
X32225564Y-23676742D01*
X32225564Y-23676742D02*
X32296993Y-23748171D01*
X32296993Y-23748171D02*
X32368421Y-23891028D01*
X32368421Y-23891028D02*
X32368421Y-24105314D01*
X32368421Y-24105314D02*
X32296993Y-24248171D01*
X32296993Y-24248171D02*
X32225564Y-24319600D01*
X32225564Y-24319600D02*
X32082707Y-24391028D01*
X32082707Y-24391028D02*
X31511278Y-24391028D01*
X31511278Y-24391028D02*
X31511278Y-22891028D01*
X31511278Y-22891028D02*
X32011278Y-22891028D01*
X32011278Y-22891028D02*
X32154136Y-22962457D01*
X32154136Y-22962457D02*
X32225564Y-23033885D01*
X32225564Y-23033885D02*
X32296993Y-23176742D01*
X32296993Y-23176742D02*
X32296993Y-23319600D01*
X32296993Y-23319600D02*
X32225564Y-23462457D01*
X32225564Y-23462457D02*
X32154136Y-23533885D01*
X32154136Y-23533885D02*
X32011278Y-23605314D01*
X32011278Y-23605314D02*
X31511278Y-23605314D01*
X33725564Y-24391028D02*
X33011278Y-24391028D01*
X33011278Y-24391028D02*
X33011278Y-22891028D01*
X34225564Y-24391028D02*
X34225564Y-22891028D01*
X34225564Y-22891028D02*
X34582707Y-22891028D01*
X34582707Y-22891028D02*
X34796993Y-22962457D01*
X34796993Y-22962457D02*
X34939850Y-23105314D01*
X34939850Y-23105314D02*
X35011279Y-23248171D01*
X35011279Y-23248171D02*
X35082707Y-23533885D01*
X35082707Y-23533885D02*
X35082707Y-23748171D01*
X35082707Y-23748171D02*
X35011279Y-24033885D01*
X35011279Y-24033885D02*
X34939850Y-24176742D01*
X34939850Y-24176742D02*
X34796993Y-24319600D01*
X34796993Y-24319600D02*
X34582707Y-24391028D01*
X34582707Y-24391028D02*
X34225564Y-24391028D01*
X36582707Y-24248171D02*
X36511279Y-24319600D01*
X36511279Y-24319600D02*
X36296993Y-24391028D01*
X36296993Y-24391028D02*
X36154136Y-24391028D01*
X36154136Y-24391028D02*
X35939850Y-24319600D01*
X35939850Y-24319600D02*
X35796993Y-24176742D01*
X35796993Y-24176742D02*
X35725564Y-24033885D01*
X35725564Y-24033885D02*
X35654136Y-23748171D01*
X35654136Y-23748171D02*
X35654136Y-23533885D01*
X35654136Y-23533885D02*
X35725564Y-23248171D01*
X35725564Y-23248171D02*
X35796993Y-23105314D01*
X35796993Y-23105314D02*
X35939850Y-22962457D01*
X35939850Y-22962457D02*
X36154136Y-22891028D01*
X36154136Y-22891028D02*
X36296993Y-22891028D01*
X36296993Y-22891028D02*
X36511279Y-22962457D01*
X36511279Y-22962457D02*
X36582707Y-23033885D01*
X32154137Y-25306028D02*
X32654137Y-26806028D01*
X32654137Y-26806028D02*
X33154137Y-25306028D01*
X34439851Y-26806028D02*
X33582708Y-26806028D01*
X34011279Y-26806028D02*
X34011279Y-25306028D01*
X34011279Y-25306028D02*
X33868422Y-25520314D01*
X33868422Y-25520314D02*
X33725565Y-25663171D01*
X33725565Y-25663171D02*
X33582708Y-25734600D01*
X35082707Y-26663171D02*
X35154136Y-26734600D01*
X35154136Y-26734600D02*
X35082707Y-26806028D01*
X35082707Y-26806028D02*
X35011279Y-26734600D01*
X35011279Y-26734600D02*
X35082707Y-26663171D01*
X35082707Y-26663171D02*
X35082707Y-26806028D01*
X36082708Y-25306028D02*
X36225565Y-25306028D01*
X36225565Y-25306028D02*
X36368422Y-25377457D01*
X36368422Y-25377457D02*
X36439851Y-25448885D01*
X36439851Y-25448885D02*
X36511279Y-25591742D01*
X36511279Y-25591742D02*
X36582708Y-25877457D01*
X36582708Y-25877457D02*
X36582708Y-26234600D01*
X36582708Y-26234600D02*
X36511279Y-26520314D01*
X36511279Y-26520314D02*
X36439851Y-26663171D01*
X36439851Y-26663171D02*
X36368422Y-26734600D01*
X36368422Y-26734600D02*
X36225565Y-26806028D01*
X36225565Y-26806028D02*
X36082708Y-26806028D01*
X36082708Y-26806028D02*
X35939851Y-26734600D01*
X35939851Y-26734600D02*
X35868422Y-26663171D01*
X35868422Y-26663171D02*
X35796993Y-26520314D01*
X35796993Y-26520314D02*
X35725565Y-26234600D01*
X35725565Y-26234600D02*
X35725565Y-25877457D01*
X35725565Y-25877457D02*
X35796993Y-25591742D01*
X35796993Y-25591742D02*
X35868422Y-25448885D01*
X35868422Y-25448885D02*
X35939851Y-25377457D01*
X35939851Y-25377457D02*
X36082708Y-25306028D01*
X-1982143Y19147780D02*
X-1857143Y20147780D01*
X-1857143Y20147780D02*
X-1476190Y20147780D01*
X-1476190Y20147780D02*
X-1386905Y20100161D01*
X-1386905Y20100161D02*
X-1345238Y20052542D01*
X-1345238Y20052542D02*
X-1309524Y19957304D01*
X-1309524Y19957304D02*
X-1327381Y19814447D01*
X-1327381Y19814447D02*
X-1386905Y19719209D01*
X-1386905Y19719209D02*
X-1440476Y19671590D01*
X-1440476Y19671590D02*
X-1541666Y19623971D01*
X-1541666Y19623971D02*
X-1922619Y19623971D01*
X-839286Y19147780D02*
X-928571Y19195400D01*
X-928571Y19195400D02*
X-970238Y19243019D01*
X-970238Y19243019D02*
X-1005952Y19338257D01*
X-1005952Y19338257D02*
X-970238Y19623971D01*
X-970238Y19623971D02*
X-910714Y19719209D01*
X-910714Y19719209D02*
X-857143Y19766828D01*
X-857143Y19766828D02*
X-755952Y19814447D01*
X-755952Y19814447D02*
X-613095Y19814447D01*
X-613095Y19814447D02*
X-523809Y19766828D01*
X-523809Y19766828D02*
X-482143Y19719209D01*
X-482143Y19719209D02*
X-446428Y19623971D01*
X-446428Y19623971D02*
X-482143Y19338257D01*
X-482143Y19338257D02*
X-541666Y19243019D01*
X-541666Y19243019D02*
X-595238Y19195400D01*
X-595238Y19195400D02*
X-696428Y19147780D01*
X-696428Y19147780D02*
X-839286Y19147780D01*
X-89285Y19814447D02*
X17856Y19147780D01*
X17856Y19147780D02*
X267856Y19623971D01*
X267856Y19623971D02*
X398809Y19147780D01*
X398809Y19147780D02*
X672618Y19814447D01*
X1357142Y19195400D02*
X1255952Y19147780D01*
X1255952Y19147780D02*
X1065475Y19147780D01*
X1065475Y19147780D02*
X976190Y19195400D01*
X976190Y19195400D02*
X940475Y19290638D01*
X940475Y19290638D02*
X988095Y19671590D01*
X988095Y19671590D02*
X1047618Y19766828D01*
X1047618Y19766828D02*
X1148809Y19814447D01*
X1148809Y19814447D02*
X1339285Y19814447D01*
X1339285Y19814447D02*
X1428571Y19766828D01*
X1428571Y19766828D02*
X1464285Y19671590D01*
X1464285Y19671590D02*
X1452380Y19576352D01*
X1452380Y19576352D02*
X964285Y19481114D01*
X1827380Y19147780D02*
X1910714Y19814447D01*
X1886904Y19623971D02*
X1946428Y19719209D01*
X1946428Y19719209D02*
X1999999Y19766828D01*
X1999999Y19766828D02*
X2101190Y19814447D01*
X2101190Y19814447D02*
X2196428Y19814447D01*
D10*
X29993922Y445180D02*
X30327255Y-554819D01*
X30327255Y-554819D02*
X30660588Y445180D01*
X-393458Y-4654819D02*
X-155363Y-5654819D01*
X-155363Y-5654819D02*
X35112Y-4940533D01*
X35112Y-4940533D02*
X225588Y-5654819D01*
X225588Y-5654819D02*
X463684Y-4654819D01*
X2082731Y-5654819D02*
X1606541Y-5654819D01*
X1606541Y-5654819D02*
X1606541Y-4654819D01*
X2558922Y-5654819D02*
X2463684Y-5607200D01*
X2463684Y-5607200D02*
X2416065Y-5559580D01*
X2416065Y-5559580D02*
X2368446Y-5464342D01*
X2368446Y-5464342D02*
X2368446Y-5178628D01*
X2368446Y-5178628D02*
X2416065Y-5083390D01*
X2416065Y-5083390D02*
X2463684Y-5035771D01*
X2463684Y-5035771D02*
X2558922Y-4988152D01*
X2558922Y-4988152D02*
X2701779Y-4988152D01*
X2701779Y-4988152D02*
X2797017Y-5035771D01*
X2797017Y-5035771D02*
X2844636Y-5083390D01*
X2844636Y-5083390D02*
X2892255Y-5178628D01*
X2892255Y-5178628D02*
X2892255Y-5464342D01*
X2892255Y-5464342D02*
X2844636Y-5559580D01*
X2844636Y-5559580D02*
X2797017Y-5607200D01*
X2797017Y-5607200D02*
X2701779Y-5654819D01*
X2701779Y-5654819D02*
X2558922Y-5654819D01*
X-28406077Y-854819D02*
X-28072744Y-1854819D01*
X-28072744Y-1854819D02*
X-27739411Y-854819D01*
X-27406077Y-1854819D02*
X-27406077Y-854819D01*
X-27406077Y-854819D02*
X-26834649Y-1854819D01*
X-26834649Y-1854819D02*
X-26834649Y-854819D01*
X-28263220Y1745180D02*
X-28263220Y935657D01*
X-28263220Y935657D02*
X-28215601Y840419D01*
X-28215601Y840419D02*
X-28167982Y792800D01*
X-28167982Y792800D02*
X-28072744Y745180D01*
X-28072744Y745180D02*
X-27882268Y745180D01*
X-27882268Y745180D02*
X-27787030Y792800D01*
X-27787030Y792800D02*
X-27739411Y840419D01*
X-27739411Y840419D02*
X-27691792Y935657D01*
X-27691792Y935657D02*
X-27691792Y1745180D01*
X-27215601Y745180D02*
X-27215601Y1745180D01*
X-27215601Y1745180D02*
X-26644173Y745180D01*
X-26644173Y745180D02*
X-26644173Y1745180D01*
X30136779Y5545180D02*
X30136779Y4735657D01*
X30136779Y4735657D02*
X30184398Y4640419D01*
X30184398Y4640419D02*
X30232017Y4592800D01*
X30232017Y4592800D02*
X30327255Y4545180D01*
X30327255Y4545180D02*
X30517731Y4545180D01*
X30517731Y4545180D02*
X30612969Y4592800D01*
X30612969Y4592800D02*
X30660588Y4640419D01*
X30660588Y4640419D02*
X30708207Y4735657D01*
X30708207Y4735657D02*
X30708207Y5545180D01*
D11*
X-27482143Y23347780D02*
X-27357143Y24347780D01*
X-27357143Y24347780D02*
X-26976190Y24347780D01*
X-26976190Y24347780D02*
X-26886905Y24300161D01*
X-26886905Y24300161D02*
X-26845238Y24252542D01*
X-26845238Y24252542D02*
X-26809524Y24157304D01*
X-26809524Y24157304D02*
X-26827381Y24014447D01*
X-26827381Y24014447D02*
X-26886905Y23919209D01*
X-26886905Y23919209D02*
X-26940476Y23871590D01*
X-26940476Y23871590D02*
X-27041666Y23823971D01*
X-27041666Y23823971D02*
X-27422619Y23823971D01*
X-26339286Y23347780D02*
X-26428571Y23395400D01*
X-26428571Y23395400D02*
X-26470238Y23443019D01*
X-26470238Y23443019D02*
X-26505952Y23538257D01*
X-26505952Y23538257D02*
X-26470238Y23823971D01*
X-26470238Y23823971D02*
X-26410714Y23919209D01*
X-26410714Y23919209D02*
X-26357143Y23966828D01*
X-26357143Y23966828D02*
X-26255952Y24014447D01*
X-26255952Y24014447D02*
X-26113095Y24014447D01*
X-26113095Y24014447D02*
X-26023809Y23966828D01*
X-26023809Y23966828D02*
X-25982143Y23919209D01*
X-25982143Y23919209D02*
X-25946428Y23823971D01*
X-25946428Y23823971D02*
X-25982143Y23538257D01*
X-25982143Y23538257D02*
X-26041666Y23443019D01*
X-26041666Y23443019D02*
X-26095238Y23395400D01*
X-26095238Y23395400D02*
X-26196428Y23347780D01*
X-26196428Y23347780D02*
X-26339286Y23347780D01*
X-25589285Y24014447D02*
X-25482143Y23347780D01*
X-25482143Y23347780D02*
X-25232143Y23823971D01*
X-25232143Y23823971D02*
X-25101190Y23347780D01*
X-25101190Y23347780D02*
X-24827381Y24014447D01*
X-24142857Y23395400D02*
X-24244047Y23347780D01*
X-24244047Y23347780D02*
X-24434524Y23347780D01*
X-24434524Y23347780D02*
X-24523809Y23395400D01*
X-24523809Y23395400D02*
X-24559524Y23490638D01*
X-24559524Y23490638D02*
X-24511905Y23871590D01*
X-24511905Y23871590D02*
X-24452381Y23966828D01*
X-24452381Y23966828D02*
X-24351190Y24014447D01*
X-24351190Y24014447D02*
X-24160714Y24014447D01*
X-24160714Y24014447D02*
X-24071428Y23966828D01*
X-24071428Y23966828D02*
X-24035714Y23871590D01*
X-24035714Y23871590D02*
X-24047619Y23776352D01*
X-24047619Y23776352D02*
X-24535714Y23681114D01*
X-23672619Y23347780D02*
X-23589285Y24014447D01*
X-23613095Y23823971D02*
X-23553571Y23919209D01*
X-23553571Y23919209D02*
X-23500000Y23966828D01*
X-23500000Y23966828D02*
X-23398809Y24014447D01*
X-23398809Y24014447D02*
X-23303571Y24014447D01*
D10*
X-29508220Y-17354819D02*
X-29508220Y-18164342D01*
X-29508220Y-18164342D02*
X-29460601Y-18259580D01*
X-29460601Y-18259580D02*
X-29412982Y-18307200D01*
X-29412982Y-18307200D02*
X-29317744Y-18354819D01*
X-29317744Y-18354819D02*
X-29127268Y-18354819D01*
X-29127268Y-18354819D02*
X-29032030Y-18307200D01*
X-29032030Y-18307200D02*
X-28984411Y-18259580D01*
X-28984411Y-18259580D02*
X-28936792Y-18164342D01*
X-28936792Y-18164342D02*
X-28936792Y-17354819D01*
X-29603458Y-22454819D02*
X-29365363Y-23454819D01*
X-29365363Y-23454819D02*
X-29174887Y-22740533D01*
X-29174887Y-22740533D02*
X-28984411Y-23454819D01*
X-28984411Y-23454819D02*
X-28746316Y-22454819D01*
X-298220Y8045180D02*
X-298220Y7235657D01*
X-298220Y7235657D02*
X-250601Y7140419D01*
X-250601Y7140419D02*
X-202982Y7092800D01*
X-202982Y7092800D02*
X-107744Y7045180D01*
X-107744Y7045180D02*
X82731Y7045180D01*
X82731Y7045180D02*
X177969Y7092800D01*
X177969Y7092800D02*
X225588Y7140419D01*
X225588Y7140419D02*
X273207Y7235657D01*
X273207Y7235657D02*
X273207Y8045180D01*
X1511303Y7045180D02*
X1511303Y8045180D01*
X1511303Y7568990D02*
X2082731Y7568990D01*
X2082731Y7045180D02*
X2082731Y8045180D01*
X2558922Y7045180D02*
X2558922Y7711847D01*
X2558922Y8045180D02*
X2511303Y7997561D01*
X2511303Y7997561D02*
X2558922Y7949942D01*
X2558922Y7949942D02*
X2606541Y7997561D01*
X2606541Y7997561D02*
X2558922Y8045180D01*
X2558922Y8045180D02*
X2558922Y7949942D01*
X-28263220Y9345180D02*
X-28263220Y8535657D01*
X-28263220Y8535657D02*
X-28215601Y8440419D01*
X-28215601Y8440419D02*
X-28167982Y8392800D01*
X-28167982Y8392800D02*
X-28072744Y8345180D01*
X-28072744Y8345180D02*
X-27882268Y8345180D01*
X-27882268Y8345180D02*
X-27787030Y8392800D01*
X-27787030Y8392800D02*
X-27739411Y8440419D01*
X-27739411Y8440419D02*
X-27691792Y8535657D01*
X-27691792Y8535657D02*
X-27691792Y9345180D01*
X-27215601Y8345180D02*
X-27215601Y9345180D01*
X-27215601Y9345180D02*
X-26834649Y9345180D01*
X-26834649Y9345180D02*
X-26739411Y9297561D01*
X-26739411Y9297561D02*
X-26691792Y9249942D01*
X-26691792Y9249942D02*
X-26644173Y9154704D01*
X-26644173Y9154704D02*
X-26644173Y9011847D01*
X-26644173Y9011847D02*
X-26691792Y8916609D01*
X-26691792Y8916609D02*
X-26739411Y8868990D01*
X-26739411Y8868990D02*
X-26834649Y8821371D01*
X-26834649Y8821371D02*
X-27215601Y8821371D01*
D11*
X2028571Y21087900D02*
X3171429Y21087900D01*
X-3071428Y21087900D02*
X-1928571Y21087900D01*
X-2499999Y20516471D02*
X-2499999Y21659328D01*
D10*
X-1711077Y-23654819D02*
X-1377744Y-24654819D01*
X-1377744Y-24654819D02*
X-1044411Y-23654819D01*
X-711077Y-24654819D02*
X-711077Y-23988152D01*
X-711077Y-24178628D02*
X-663458Y-24083390D01*
X-663458Y-24083390D02*
X-615839Y-24035771D01*
X-615839Y-24035771D02*
X-520601Y-23988152D01*
X-520601Y-23988152D02*
X-425363Y-23988152D01*
X288922Y-24607200D02*
X193684Y-24654819D01*
X193684Y-24654819D02*
X3208Y-24654819D01*
X3208Y-24654819D02*
X-92029Y-24607200D01*
X-92029Y-24607200D02*
X-139648Y-24511961D01*
X-139648Y-24511961D02*
X-139648Y-24131009D01*
X-139648Y-24131009D02*
X-92029Y-24035771D01*
X-92029Y-24035771D02*
X3208Y-23988152D01*
X3208Y-23988152D02*
X193684Y-23988152D01*
X193684Y-23988152D02*
X288922Y-24035771D01*
X288922Y-24035771D02*
X336541Y-24131009D01*
X336541Y-24131009D02*
X336541Y-24226247D01*
X336541Y-24226247D02*
X-139648Y-24321485D01*
X622256Y-23988152D02*
X1003208Y-23988152D01*
X765113Y-24654819D02*
X765113Y-23797676D01*
X765113Y-23797676D02*
X812732Y-23702438D01*
X812732Y-23702438D02*
X907970Y-23654819D01*
X907970Y-23654819D02*
X1003208Y-23654819D01*
X-11204411Y25897561D02*
X-11299649Y25945180D01*
X-11299649Y25945180D02*
X-11442506Y25945180D01*
X-11442506Y25945180D02*
X-11585363Y25897561D01*
X-11585363Y25897561D02*
X-11680601Y25802323D01*
X-11680601Y25802323D02*
X-11728220Y25707085D01*
X-11728220Y25707085D02*
X-11775839Y25516609D01*
X-11775839Y25516609D02*
X-11775839Y25373752D01*
X-11775839Y25373752D02*
X-11728220Y25183276D01*
X-11728220Y25183276D02*
X-11680601Y25088038D01*
X-11680601Y25088038D02*
X-11585363Y24992800D01*
X-11585363Y24992800D02*
X-11442506Y24945180D01*
X-11442506Y24945180D02*
X-11347268Y24945180D01*
X-11347268Y24945180D02*
X-11204411Y24992800D01*
X-11204411Y24992800D02*
X-11156792Y25040419D01*
X-11156792Y25040419D02*
X-11156792Y25373752D01*
X-11156792Y25373752D02*
X-11347268Y25373752D01*
X-10728220Y24945180D02*
X-10728220Y25945180D01*
X-10728220Y25945180D02*
X-10156792Y24945180D01*
X-10156792Y24945180D02*
X-10156792Y25945180D01*
X-9680601Y24945180D02*
X-9680601Y25945180D01*
X-9680601Y25945180D02*
X-9442506Y25945180D01*
X-9442506Y25945180D02*
X-9299649Y25897561D01*
X-9299649Y25897561D02*
X-9204411Y25802323D01*
X-9204411Y25802323D02*
X-9156792Y25707085D01*
X-9156792Y25707085D02*
X-9109173Y25516609D01*
X-9109173Y25516609D02*
X-9109173Y25373752D01*
X-9109173Y25373752D02*
X-9156792Y25183276D01*
X-9156792Y25183276D02*
X-9204411Y25088038D01*
X-9204411Y25088038D02*
X-9299649Y24992800D01*
X-9299649Y24992800D02*
X-9442506Y24945180D01*
X-9442506Y24945180D02*
X-9680601Y24945180D01*
X24304761Y9949942D02*
X24209523Y9997561D01*
X24209523Y9997561D02*
X24114285Y10092800D01*
X24114285Y10092800D02*
X23971428Y10235657D01*
X23971428Y10235657D02*
X23876190Y10283276D01*
X23876190Y10283276D02*
X23780952Y10283276D01*
X23828571Y10045180D02*
X23733333Y10092800D01*
X23733333Y10092800D02*
X23638095Y10188038D01*
X23638095Y10188038D02*
X23590476Y10378514D01*
X23590476Y10378514D02*
X23590476Y10711847D01*
X23590476Y10711847D02*
X23638095Y10902323D01*
X23638095Y10902323D02*
X23733333Y10997561D01*
X23733333Y10997561D02*
X23828571Y11045180D01*
X23828571Y11045180D02*
X24019047Y11045180D01*
X24019047Y11045180D02*
X24114285Y10997561D01*
X24114285Y10997561D02*
X24209523Y10902323D01*
X24209523Y10902323D02*
X24257142Y10711847D01*
X24257142Y10711847D02*
X24257142Y10378514D01*
X24257142Y10378514D02*
X24209523Y10188038D01*
X24209523Y10188038D02*
X24114285Y10092800D01*
X24114285Y10092800D02*
X24019047Y10045180D01*
X24019047Y10045180D02*
X23828571Y10045180D01*
X24638095Y10949942D02*
X24685714Y10997561D01*
X24685714Y10997561D02*
X24780952Y11045180D01*
X24780952Y11045180D02*
X25019047Y11045180D01*
X25019047Y11045180D02*
X25114285Y10997561D01*
X25114285Y10997561D02*
X25161904Y10949942D01*
X25161904Y10949942D02*
X25209523Y10854704D01*
X25209523Y10854704D02*
X25209523Y10759466D01*
X25209523Y10759466D02*
X25161904Y10616609D01*
X25161904Y10616609D02*
X24590476Y10045180D01*
X24590476Y10045180D02*
X25209523Y10045180D01*
X-19366666Y11940419D02*
X-19414285Y11892800D01*
X-19414285Y11892800D02*
X-19557142Y11845180D01*
X-19557142Y11845180D02*
X-19652380Y11845180D01*
X-19652380Y11845180D02*
X-19795237Y11892800D01*
X-19795237Y11892800D02*
X-19890475Y11988038D01*
X-19890475Y11988038D02*
X-19938094Y12083276D01*
X-19938094Y12083276D02*
X-19985713Y12273752D01*
X-19985713Y12273752D02*
X-19985713Y12416609D01*
X-19985713Y12416609D02*
X-19938094Y12607085D01*
X-19938094Y12607085D02*
X-19890475Y12702323D01*
X-19890475Y12702323D02*
X-19795237Y12797561D01*
X-19795237Y12797561D02*
X-19652380Y12845180D01*
X-19652380Y12845180D02*
X-19557142Y12845180D01*
X-19557142Y12845180D02*
X-19414285Y12797561D01*
X-19414285Y12797561D02*
X-19366666Y12749942D01*
X-18985713Y12749942D02*
X-18938094Y12797561D01*
X-18938094Y12797561D02*
X-18842856Y12845180D01*
X-18842856Y12845180D02*
X-18604761Y12845180D01*
X-18604761Y12845180D02*
X-18509523Y12797561D01*
X-18509523Y12797561D02*
X-18461904Y12749942D01*
X-18461904Y12749942D02*
X-18414285Y12654704D01*
X-18414285Y12654704D02*
X-18414285Y12559466D01*
X-18414285Y12559466D02*
X-18461904Y12416609D01*
X-18461904Y12416609D02*
X-19033332Y11845180D01*
X-19033332Y11845180D02*
X-18414285Y11845180D01*
X-6942857Y-22654819D02*
X-7276190Y-22178628D01*
X-7514285Y-22654819D02*
X-7514285Y-21654819D01*
X-7514285Y-21654819D02*
X-7133333Y-21654819D01*
X-7133333Y-21654819D02*
X-7038095Y-21702438D01*
X-7038095Y-21702438D02*
X-6990476Y-21750057D01*
X-6990476Y-21750057D02*
X-6942857Y-21845295D01*
X-6942857Y-21845295D02*
X-6942857Y-21988152D01*
X-6942857Y-21988152D02*
X-6990476Y-22083390D01*
X-6990476Y-22083390D02*
X-7038095Y-22131009D01*
X-7038095Y-22131009D02*
X-7133333Y-22178628D01*
X-7133333Y-22178628D02*
X-7514285Y-22178628D01*
X-6561904Y-21750057D02*
X-6514285Y-21702438D01*
X-6514285Y-21702438D02*
X-6419047Y-21654819D01*
X-6419047Y-21654819D02*
X-6180952Y-21654819D01*
X-6180952Y-21654819D02*
X-6085714Y-21702438D01*
X-6085714Y-21702438D02*
X-6038095Y-21750057D01*
X-6038095Y-21750057D02*
X-5990476Y-21845295D01*
X-5990476Y-21845295D02*
X-5990476Y-21940533D01*
X-5990476Y-21940533D02*
X-6038095Y-22083390D01*
X-6038095Y-22083390D02*
X-6609523Y-22654819D01*
X-6609523Y-22654819D02*
X-5990476Y-22654819D01*
X-5514285Y-22654819D02*
X-5323809Y-22654819D01*
X-5323809Y-22654819D02*
X-5228571Y-22607200D01*
X-5228571Y-22607200D02*
X-5180952Y-22559580D01*
X-5180952Y-22559580D02*
X-5085714Y-22416723D01*
X-5085714Y-22416723D02*
X-5038095Y-22226247D01*
X-5038095Y-22226247D02*
X-5038095Y-21845295D01*
X-5038095Y-21845295D02*
X-5085714Y-21750057D01*
X-5085714Y-21750057D02*
X-5133333Y-21702438D01*
X-5133333Y-21702438D02*
X-5228571Y-21654819D01*
X-5228571Y-21654819D02*
X-5419047Y-21654819D01*
X-5419047Y-21654819D02*
X-5514285Y-21702438D01*
X-5514285Y-21702438D02*
X-5561904Y-21750057D01*
X-5561904Y-21750057D02*
X-5609523Y-21845295D01*
X-5609523Y-21845295D02*
X-5609523Y-22083390D01*
X-5609523Y-22083390D02*
X-5561904Y-22178628D01*
X-5561904Y-22178628D02*
X-5514285Y-22226247D01*
X-5514285Y-22226247D02*
X-5419047Y-22273866D01*
X-5419047Y-22273866D02*
X-5228571Y-22273866D01*
X-5228571Y-22273866D02*
X-5133333Y-22226247D01*
X-5133333Y-22226247D02*
X-5085714Y-22178628D01*
X-5085714Y-22178628D02*
X-5038095Y-22083390D01*
X6333333Y1445180D02*
X6000000Y1921371D01*
X5761905Y1445180D02*
X5761905Y2445180D01*
X5761905Y2445180D02*
X6142857Y2445180D01*
X6142857Y2445180D02*
X6238095Y2397561D01*
X6238095Y2397561D02*
X6285714Y2349942D01*
X6285714Y2349942D02*
X6333333Y2254704D01*
X6333333Y2254704D02*
X6333333Y2111847D01*
X6333333Y2111847D02*
X6285714Y2016609D01*
X6285714Y2016609D02*
X6238095Y1968990D01*
X6238095Y1968990D02*
X6142857Y1921371D01*
X6142857Y1921371D02*
X5761905Y1921371D01*
X6666667Y2445180D02*
X7333333Y2445180D01*
X7333333Y2445180D02*
X6904762Y1445180D01*
X-3008094Y9308180D02*
X-2436666Y9308180D01*
X-2722380Y8308180D02*
X-2722380Y9308180D01*
X-2103332Y8308180D02*
X-2103332Y9308180D01*
X-2103332Y9308180D02*
X-1722380Y9308180D01*
X-1722380Y9308180D02*
X-1627142Y9260561D01*
X-1627142Y9260561D02*
X-1579523Y9212942D01*
X-1579523Y9212942D02*
X-1531904Y9117704D01*
X-1531904Y9117704D02*
X-1531904Y8974847D01*
X-1531904Y8974847D02*
X-1579523Y8879609D01*
X-1579523Y8879609D02*
X-1627142Y8831990D01*
X-1627142Y8831990D02*
X-1722380Y8784371D01*
X-1722380Y8784371D02*
X-2103332Y8784371D01*
X-579523Y8308180D02*
X-1150951Y8308180D01*
X-865237Y8308180D02*
X-865237Y9308180D01*
X-865237Y9308180D02*
X-960475Y9165323D01*
X-960475Y9165323D02*
X-1055713Y9070085D01*
X-1055713Y9070085D02*
X-1150951Y9022466D01*
X-8094Y8879609D02*
X-103332Y8927228D01*
X-103332Y8927228D02*
X-150951Y8974847D01*
X-150951Y8974847D02*
X-198570Y9070085D01*
X-198570Y9070085D02*
X-198570Y9117704D01*
X-198570Y9117704D02*
X-150951Y9212942D01*
X-150951Y9212942D02*
X-103332Y9260561D01*
X-103332Y9260561D02*
X-8094Y9308180D01*
X-8094Y9308180D02*
X182381Y9308180D01*
X182381Y9308180D02*
X277619Y9260561D01*
X277619Y9260561D02*
X325238Y9212942D01*
X325238Y9212942D02*
X372857Y9117704D01*
X372857Y9117704D02*
X372857Y9070085D01*
X372857Y9070085D02*
X325238Y8974847D01*
X325238Y8974847D02*
X277619Y8927228D01*
X277619Y8927228D02*
X182381Y8879609D01*
X182381Y8879609D02*
X-8094Y8879609D01*
X-8094Y8879609D02*
X-103332Y8831990D01*
X-103332Y8831990D02*
X-150951Y8784371D01*
X-150951Y8784371D02*
X-198570Y8689133D01*
X-198570Y8689133D02*
X-198570Y8498657D01*
X-198570Y8498657D02*
X-150951Y8403419D01*
X-150951Y8403419D02*
X-103332Y8355800D01*
X-103332Y8355800D02*
X-8094Y8308180D01*
X-8094Y8308180D02*
X182381Y8308180D01*
X182381Y8308180D02*
X277619Y8355800D01*
X277619Y8355800D02*
X325238Y8403419D01*
X325238Y8403419D02*
X372857Y8498657D01*
X372857Y8498657D02*
X372857Y8689133D01*
X372857Y8689133D02*
X325238Y8784371D01*
X325238Y8784371D02*
X277619Y8831990D01*
X277619Y8831990D02*
X182381Y8879609D01*
X16533333Y24140419D02*
X16485714Y24092800D01*
X16485714Y24092800D02*
X16342857Y24045180D01*
X16342857Y24045180D02*
X16247619Y24045180D01*
X16247619Y24045180D02*
X16104762Y24092800D01*
X16104762Y24092800D02*
X16009524Y24188038D01*
X16009524Y24188038D02*
X15961905Y24283276D01*
X15961905Y24283276D02*
X15914286Y24473752D01*
X15914286Y24473752D02*
X15914286Y24616609D01*
X15914286Y24616609D02*
X15961905Y24807085D01*
X15961905Y24807085D02*
X16009524Y24902323D01*
X16009524Y24902323D02*
X16104762Y24997561D01*
X16104762Y24997561D02*
X16247619Y25045180D01*
X16247619Y25045180D02*
X16342857Y25045180D01*
X16342857Y25045180D02*
X16485714Y24997561D01*
X16485714Y24997561D02*
X16533333Y24949942D01*
X17485714Y24045180D02*
X16914286Y24045180D01*
X17200000Y24045180D02*
X17200000Y25045180D01*
X17200000Y25045180D02*
X17104762Y24902323D01*
X17104762Y24902323D02*
X17009524Y24807085D01*
X17009524Y24807085D02*
X16914286Y24759466D01*
X-333333Y21700180D02*
X-333333Y20985895D01*
X-333333Y20985895D02*
X-380952Y20843038D01*
X-380952Y20843038D02*
X-476190Y20747800D01*
X-476190Y20747800D02*
X-619047Y20700180D01*
X-619047Y20700180D02*
X-714285Y20700180D01*
X666666Y20700180D02*
X95238Y20700180D01*
X380952Y20700180D02*
X380952Y21700180D01*
X380952Y21700180D02*
X285714Y21557323D01*
X285714Y21557323D02*
X190476Y21462085D01*
X190476Y21462085D02*
X95238Y21414466D01*
X-21466666Y-3654819D02*
X-21799999Y-3178628D01*
X-22038094Y-3654819D02*
X-22038094Y-2654819D01*
X-22038094Y-2654819D02*
X-21657142Y-2654819D01*
X-21657142Y-2654819D02*
X-21561904Y-2702438D01*
X-21561904Y-2702438D02*
X-21514285Y-2750057D01*
X-21514285Y-2750057D02*
X-21466666Y-2845295D01*
X-21466666Y-2845295D02*
X-21466666Y-2988152D01*
X-21466666Y-2988152D02*
X-21514285Y-3083390D01*
X-21514285Y-3083390D02*
X-21561904Y-3131009D01*
X-21561904Y-3131009D02*
X-21657142Y-3178628D01*
X-21657142Y-3178628D02*
X-22038094Y-3178628D01*
X-21085713Y-2750057D02*
X-21038094Y-2702438D01*
X-21038094Y-2702438D02*
X-20942856Y-2654819D01*
X-20942856Y-2654819D02*
X-20704761Y-2654819D01*
X-20704761Y-2654819D02*
X-20609523Y-2702438D01*
X-20609523Y-2702438D02*
X-20561904Y-2750057D01*
X-20561904Y-2750057D02*
X-20514285Y-2845295D01*
X-20514285Y-2845295D02*
X-20514285Y-2940533D01*
X-20514285Y-2940533D02*
X-20561904Y-3083390D01*
X-20561904Y-3083390D02*
X-21133332Y-3654819D01*
X-21133332Y-3654819D02*
X-20514285Y-3654819D01*
X24304761Y-18050057D02*
X24209523Y-18002438D01*
X24209523Y-18002438D02*
X24114285Y-17907200D01*
X24114285Y-17907200D02*
X23971428Y-17764342D01*
X23971428Y-17764342D02*
X23876190Y-17716723D01*
X23876190Y-17716723D02*
X23780952Y-17716723D01*
X23828571Y-17954819D02*
X23733333Y-17907200D01*
X23733333Y-17907200D02*
X23638095Y-17811961D01*
X23638095Y-17811961D02*
X23590476Y-17621485D01*
X23590476Y-17621485D02*
X23590476Y-17288152D01*
X23590476Y-17288152D02*
X23638095Y-17097676D01*
X23638095Y-17097676D02*
X23733333Y-17002438D01*
X23733333Y-17002438D02*
X23828571Y-16954819D01*
X23828571Y-16954819D02*
X24019047Y-16954819D01*
X24019047Y-16954819D02*
X24114285Y-17002438D01*
X24114285Y-17002438D02*
X24209523Y-17097676D01*
X24209523Y-17097676D02*
X24257142Y-17288152D01*
X24257142Y-17288152D02*
X24257142Y-17621485D01*
X24257142Y-17621485D02*
X24209523Y-17811961D01*
X24209523Y-17811961D02*
X24114285Y-17907200D01*
X24114285Y-17907200D02*
X24019047Y-17954819D01*
X24019047Y-17954819D02*
X23828571Y-17954819D01*
X25114285Y-16954819D02*
X24923809Y-16954819D01*
X24923809Y-16954819D02*
X24828571Y-17002438D01*
X24828571Y-17002438D02*
X24780952Y-17050057D01*
X24780952Y-17050057D02*
X24685714Y-17192914D01*
X24685714Y-17192914D02*
X24638095Y-17383390D01*
X24638095Y-17383390D02*
X24638095Y-17764342D01*
X24638095Y-17764342D02*
X24685714Y-17859580D01*
X24685714Y-17859580D02*
X24733333Y-17907200D01*
X24733333Y-17907200D02*
X24828571Y-17954819D01*
X24828571Y-17954819D02*
X25019047Y-17954819D01*
X25019047Y-17954819D02*
X25114285Y-17907200D01*
X25114285Y-17907200D02*
X25161904Y-17859580D01*
X25161904Y-17859580D02*
X25209523Y-17764342D01*
X25209523Y-17764342D02*
X25209523Y-17526247D01*
X25209523Y-17526247D02*
X25161904Y-17431009D01*
X25161904Y-17431009D02*
X25114285Y-17383390D01*
X25114285Y-17383390D02*
X25019047Y-17335771D01*
X25019047Y-17335771D02*
X24828571Y-17335771D01*
X24828571Y-17335771D02*
X24733333Y-17383390D01*
X24733333Y-17383390D02*
X24685714Y-17431009D01*
X24685714Y-17431009D02*
X24638095Y-17526247D01*
X-4938094Y11845180D02*
X-4938094Y12845180D01*
X-4938094Y12845180D02*
X-4699999Y12845180D01*
X-4699999Y12845180D02*
X-4557142Y12797561D01*
X-4557142Y12797561D02*
X-4461904Y12702323D01*
X-4461904Y12702323D02*
X-4414285Y12607085D01*
X-4414285Y12607085D02*
X-4366666Y12416609D01*
X-4366666Y12416609D02*
X-4366666Y12273752D01*
X-4366666Y12273752D02*
X-4414285Y12083276D01*
X-4414285Y12083276D02*
X-4461904Y11988038D01*
X-4461904Y11988038D02*
X-4557142Y11892800D01*
X-4557142Y11892800D02*
X-4699999Y11845180D01*
X-4699999Y11845180D02*
X-4938094Y11845180D01*
X-4033332Y12845180D02*
X-3414285Y12845180D01*
X-3414285Y12845180D02*
X-3747618Y12464228D01*
X-3747618Y12464228D02*
X-3604761Y12464228D01*
X-3604761Y12464228D02*
X-3509523Y12416609D01*
X-3509523Y12416609D02*
X-3461904Y12368990D01*
X-3461904Y12368990D02*
X-3414285Y12273752D01*
X-3414285Y12273752D02*
X-3414285Y12035657D01*
X-3414285Y12035657D02*
X-3461904Y11940419D01*
X-3461904Y11940419D02*
X-3509523Y11892800D01*
X-3509523Y11892800D02*
X-3604761Y11845180D01*
X-3604761Y11845180D02*
X-3890475Y11845180D01*
X-3890475Y11845180D02*
X-3985713Y11892800D01*
X-3985713Y11892800D02*
X-4033332Y11940419D01*
X24304761Y-4050057D02*
X24209523Y-4002438D01*
X24209523Y-4002438D02*
X24114285Y-3907200D01*
X24114285Y-3907200D02*
X23971428Y-3764342D01*
X23971428Y-3764342D02*
X23876190Y-3716723D01*
X23876190Y-3716723D02*
X23780952Y-3716723D01*
X23828571Y-3954819D02*
X23733333Y-3907200D01*
X23733333Y-3907200D02*
X23638095Y-3811961D01*
X23638095Y-3811961D02*
X23590476Y-3621485D01*
X23590476Y-3621485D02*
X23590476Y-3288152D01*
X23590476Y-3288152D02*
X23638095Y-3097676D01*
X23638095Y-3097676D02*
X23733333Y-3002438D01*
X23733333Y-3002438D02*
X23828571Y-2954819D01*
X23828571Y-2954819D02*
X24019047Y-2954819D01*
X24019047Y-2954819D02*
X24114285Y-3002438D01*
X24114285Y-3002438D02*
X24209523Y-3097676D01*
X24209523Y-3097676D02*
X24257142Y-3288152D01*
X24257142Y-3288152D02*
X24257142Y-3621485D01*
X24257142Y-3621485D02*
X24209523Y-3811961D01*
X24209523Y-3811961D02*
X24114285Y-3907200D01*
X24114285Y-3907200D02*
X24019047Y-3954819D01*
X24019047Y-3954819D02*
X23828571Y-3954819D01*
X25114285Y-3288152D02*
X25114285Y-3954819D01*
X24876190Y-2907200D02*
X24638095Y-3621485D01*
X24638095Y-3621485D02*
X25257142Y-3621485D01*
X-23438094Y24945180D02*
X-23438094Y25945180D01*
X-23438094Y25945180D02*
X-23199999Y25945180D01*
X-23199999Y25945180D02*
X-23057142Y25897561D01*
X-23057142Y25897561D02*
X-22961904Y25802323D01*
X-22961904Y25802323D02*
X-22914285Y25707085D01*
X-22914285Y25707085D02*
X-22866666Y25516609D01*
X-22866666Y25516609D02*
X-22866666Y25373752D01*
X-22866666Y25373752D02*
X-22914285Y25183276D01*
X-22914285Y25183276D02*
X-22961904Y25088038D01*
X-22961904Y25088038D02*
X-23057142Y24992800D01*
X-23057142Y24992800D02*
X-23199999Y24945180D01*
X-23199999Y24945180D02*
X-23438094Y24945180D01*
X-21914285Y24945180D02*
X-22485713Y24945180D01*
X-22199999Y24945180D02*
X-22199999Y25945180D01*
X-22199999Y25945180D02*
X-22295237Y25802323D01*
X-22295237Y25802323D02*
X-22390475Y25707085D01*
X-22390475Y25707085D02*
X-22485713Y25659466D01*
X-6566666Y11940419D02*
X-6614285Y11892800D01*
X-6614285Y11892800D02*
X-6757142Y11845180D01*
X-6757142Y11845180D02*
X-6852380Y11845180D01*
X-6852380Y11845180D02*
X-6995237Y11892800D01*
X-6995237Y11892800D02*
X-7090475Y11988038D01*
X-7090475Y11988038D02*
X-7138094Y12083276D01*
X-7138094Y12083276D02*
X-7185713Y12273752D01*
X-7185713Y12273752D02*
X-7185713Y12416609D01*
X-7185713Y12416609D02*
X-7138094Y12607085D01*
X-7138094Y12607085D02*
X-7090475Y12702323D01*
X-7090475Y12702323D02*
X-6995237Y12797561D01*
X-6995237Y12797561D02*
X-6852380Y12845180D01*
X-6852380Y12845180D02*
X-6757142Y12845180D01*
X-6757142Y12845180D02*
X-6614285Y12797561D01*
X-6614285Y12797561D02*
X-6566666Y12749942D01*
X-6233332Y12845180D02*
X-5614285Y12845180D01*
X-5614285Y12845180D02*
X-5947618Y12464228D01*
X-5947618Y12464228D02*
X-5804761Y12464228D01*
X-5804761Y12464228D02*
X-5709523Y12416609D01*
X-5709523Y12416609D02*
X-5661904Y12368990D01*
X-5661904Y12368990D02*
X-5614285Y12273752D01*
X-5614285Y12273752D02*
X-5614285Y12035657D01*
X-5614285Y12035657D02*
X-5661904Y11940419D01*
X-5661904Y11940419D02*
X-5709523Y11892800D01*
X-5709523Y11892800D02*
X-5804761Y11845180D01*
X-5804761Y11845180D02*
X-6090475Y11845180D01*
X-6090475Y11845180D02*
X-6185713Y11892800D01*
X-6185713Y11892800D02*
X-6233332Y11940419D01*
X-3008094Y-3391819D02*
X-2436666Y-3391819D01*
X-2722380Y-4391819D02*
X-2722380Y-3391819D01*
X-2103332Y-4391819D02*
X-2103332Y-3391819D01*
X-2103332Y-3391819D02*
X-1722380Y-3391819D01*
X-1722380Y-3391819D02*
X-1627142Y-3439438D01*
X-1627142Y-3439438D02*
X-1579523Y-3487057D01*
X-1579523Y-3487057D02*
X-1531904Y-3582295D01*
X-1531904Y-3582295D02*
X-1531904Y-3725152D01*
X-1531904Y-3725152D02*
X-1579523Y-3820390D01*
X-1579523Y-3820390D02*
X-1627142Y-3868009D01*
X-1627142Y-3868009D02*
X-1722380Y-3915628D01*
X-1722380Y-3915628D02*
X-2103332Y-3915628D01*
X-1150951Y-3487057D02*
X-1103332Y-3439438D01*
X-1103332Y-3439438D02*
X-1008094Y-3391819D01*
X-1008094Y-3391819D02*
X-769999Y-3391819D01*
X-769999Y-3391819D02*
X-674761Y-3439438D01*
X-674761Y-3439438D02*
X-627142Y-3487057D01*
X-627142Y-3487057D02*
X-579523Y-3582295D01*
X-579523Y-3582295D02*
X-579523Y-3677533D01*
X-579523Y-3677533D02*
X-627142Y-3820390D01*
X-627142Y-3820390D02*
X-1198570Y-4391819D01*
X-1198570Y-4391819D02*
X-579523Y-4391819D01*
X-246189Y-3391819D02*
X372857Y-3391819D01*
X372857Y-3391819D02*
X39524Y-3772771D01*
X39524Y-3772771D02*
X182381Y-3772771D01*
X182381Y-3772771D02*
X277619Y-3820390D01*
X277619Y-3820390D02*
X325238Y-3868009D01*
X325238Y-3868009D02*
X372857Y-3963247D01*
X372857Y-3963247D02*
X372857Y-4201342D01*
X372857Y-4201342D02*
X325238Y-4296580D01*
X325238Y-4296580D02*
X277619Y-4344200D01*
X277619Y-4344200D02*
X182381Y-4391819D01*
X182381Y-4391819D02*
X-103332Y-4391819D01*
X-103332Y-4391819D02*
X-198570Y-4344200D01*
X-198570Y-4344200D02*
X-246189Y-4296580D01*
X-26942857Y-16654819D02*
X-27276190Y-16178628D01*
X-27514285Y-16654819D02*
X-27514285Y-15654819D01*
X-27514285Y-15654819D02*
X-27133333Y-15654819D01*
X-27133333Y-15654819D02*
X-27038095Y-15702438D01*
X-27038095Y-15702438D02*
X-26990476Y-15750057D01*
X-26990476Y-15750057D02*
X-26942857Y-15845295D01*
X-26942857Y-15845295D02*
X-26942857Y-15988152D01*
X-26942857Y-15988152D02*
X-26990476Y-16083390D01*
X-26990476Y-16083390D02*
X-27038095Y-16131009D01*
X-27038095Y-16131009D02*
X-27133333Y-16178628D01*
X-27133333Y-16178628D02*
X-27514285Y-16178628D01*
X-25990476Y-16654819D02*
X-26561904Y-16654819D01*
X-26276190Y-16654819D02*
X-26276190Y-15654819D01*
X-26276190Y-15654819D02*
X-26371428Y-15797676D01*
X-26371428Y-15797676D02*
X-26466666Y-15892914D01*
X-26466666Y-15892914D02*
X-26561904Y-15940533D01*
X-25133333Y-15654819D02*
X-25323809Y-15654819D01*
X-25323809Y-15654819D02*
X-25419047Y-15702438D01*
X-25419047Y-15702438D02*
X-25466666Y-15750057D01*
X-25466666Y-15750057D02*
X-25561904Y-15892914D01*
X-25561904Y-15892914D02*
X-25609523Y-16083390D01*
X-25609523Y-16083390D02*
X-25609523Y-16464342D01*
X-25609523Y-16464342D02*
X-25561904Y-16559580D01*
X-25561904Y-16559580D02*
X-25514285Y-16607200D01*
X-25514285Y-16607200D02*
X-25419047Y-16654819D01*
X-25419047Y-16654819D02*
X-25228571Y-16654819D01*
X-25228571Y-16654819D02*
X-25133333Y-16607200D01*
X-25133333Y-16607200D02*
X-25085714Y-16559580D01*
X-25085714Y-16559580D02*
X-25038095Y-16464342D01*
X-25038095Y-16464342D02*
X-25038095Y-16226247D01*
X-25038095Y-16226247D02*
X-25085714Y-16131009D01*
X-25085714Y-16131009D02*
X-25133333Y-16083390D01*
X-25133333Y-16083390D02*
X-25228571Y-16035771D01*
X-25228571Y-16035771D02*
X-25419047Y-16035771D01*
X-25419047Y-16035771D02*
X-25514285Y-16083390D01*
X-25514285Y-16083390D02*
X-25561904Y-16131009D01*
X-25561904Y-16131009D02*
X-25609523Y-16226247D01*
X-22866666Y26445180D02*
X-23199999Y26921371D01*
X-23438094Y26445180D02*
X-23438094Y27445180D01*
X-23438094Y27445180D02*
X-23057142Y27445180D01*
X-23057142Y27445180D02*
X-22961904Y27397561D01*
X-22961904Y27397561D02*
X-22914285Y27349942D01*
X-22914285Y27349942D02*
X-22866666Y27254704D01*
X-22866666Y27254704D02*
X-22866666Y27111847D01*
X-22866666Y27111847D02*
X-22914285Y27016609D01*
X-22914285Y27016609D02*
X-22961904Y26968990D01*
X-22961904Y26968990D02*
X-23057142Y26921371D01*
X-23057142Y26921371D02*
X-23438094Y26921371D01*
X-21914285Y26445180D02*
X-22485713Y26445180D01*
X-22199999Y26445180D02*
X-22199999Y27445180D01*
X-22199999Y27445180D02*
X-22295237Y27302323D01*
X-22295237Y27302323D02*
X-22390475Y27207085D01*
X-22390475Y27207085D02*
X-22485713Y27159466D01*
X-10966666Y11940419D02*
X-11014285Y11892800D01*
X-11014285Y11892800D02*
X-11157142Y11845180D01*
X-11157142Y11845180D02*
X-11252380Y11845180D01*
X-11252380Y11845180D02*
X-11395237Y11892800D01*
X-11395237Y11892800D02*
X-11490475Y11988038D01*
X-11490475Y11988038D02*
X-11538094Y12083276D01*
X-11538094Y12083276D02*
X-11585713Y12273752D01*
X-11585713Y12273752D02*
X-11585713Y12416609D01*
X-11585713Y12416609D02*
X-11538094Y12607085D01*
X-11538094Y12607085D02*
X-11490475Y12702323D01*
X-11490475Y12702323D02*
X-11395237Y12797561D01*
X-11395237Y12797561D02*
X-11252380Y12845180D01*
X-11252380Y12845180D02*
X-11157142Y12845180D01*
X-11157142Y12845180D02*
X-11014285Y12797561D01*
X-11014285Y12797561D02*
X-10966666Y12749942D01*
X-10109523Y12511847D02*
X-10109523Y11845180D01*
X-10347618Y12892800D02*
X-10585713Y12178514D01*
X-10585713Y12178514D02*
X-9966666Y12178514D01*
X-22038094Y-2154819D02*
X-22038094Y-1154819D01*
X-22038094Y-1154819D02*
X-21799999Y-1154819D01*
X-21799999Y-1154819D02*
X-21657142Y-1202438D01*
X-21657142Y-1202438D02*
X-21561904Y-1297676D01*
X-21561904Y-1297676D02*
X-21514285Y-1392914D01*
X-21514285Y-1392914D02*
X-21466666Y-1583390D01*
X-21466666Y-1583390D02*
X-21466666Y-1726247D01*
X-21466666Y-1726247D02*
X-21514285Y-1916723D01*
X-21514285Y-1916723D02*
X-21561904Y-2011961D01*
X-21561904Y-2011961D02*
X-21657142Y-2107200D01*
X-21657142Y-2107200D02*
X-21799999Y-2154819D01*
X-21799999Y-2154819D02*
X-22038094Y-2154819D01*
X-21085713Y-1250057D02*
X-21038094Y-1202438D01*
X-21038094Y-1202438D02*
X-20942856Y-1154819D01*
X-20942856Y-1154819D02*
X-20704761Y-1154819D01*
X-20704761Y-1154819D02*
X-20609523Y-1202438D01*
X-20609523Y-1202438D02*
X-20561904Y-1250057D01*
X-20561904Y-1250057D02*
X-20514285Y-1345295D01*
X-20514285Y-1345295D02*
X-20514285Y-1440533D01*
X-20514285Y-1440533D02*
X-20561904Y-1583390D01*
X-20561904Y-1583390D02*
X-21133332Y-2154819D01*
X-21133332Y-2154819D02*
X-20514285Y-2154819D01*
X-6942857Y-19654819D02*
X-7276190Y-19178628D01*
X-7514285Y-19654819D02*
X-7514285Y-18654819D01*
X-7514285Y-18654819D02*
X-7133333Y-18654819D01*
X-7133333Y-18654819D02*
X-7038095Y-18702438D01*
X-7038095Y-18702438D02*
X-6990476Y-18750057D01*
X-6990476Y-18750057D02*
X-6942857Y-18845295D01*
X-6942857Y-18845295D02*
X-6942857Y-18988152D01*
X-6942857Y-18988152D02*
X-6990476Y-19083390D01*
X-6990476Y-19083390D02*
X-7038095Y-19131009D01*
X-7038095Y-19131009D02*
X-7133333Y-19178628D01*
X-7133333Y-19178628D02*
X-7514285Y-19178628D01*
X-6561904Y-18750057D02*
X-6514285Y-18702438D01*
X-6514285Y-18702438D02*
X-6419047Y-18654819D01*
X-6419047Y-18654819D02*
X-6180952Y-18654819D01*
X-6180952Y-18654819D02*
X-6085714Y-18702438D01*
X-6085714Y-18702438D02*
X-6038095Y-18750057D01*
X-6038095Y-18750057D02*
X-5990476Y-18845295D01*
X-5990476Y-18845295D02*
X-5990476Y-18940533D01*
X-5990476Y-18940533D02*
X-6038095Y-19083390D01*
X-6038095Y-19083390D02*
X-6609523Y-19654819D01*
X-6609523Y-19654819D02*
X-5990476Y-19654819D01*
X-5133333Y-18654819D02*
X-5323809Y-18654819D01*
X-5323809Y-18654819D02*
X-5419047Y-18702438D01*
X-5419047Y-18702438D02*
X-5466666Y-18750057D01*
X-5466666Y-18750057D02*
X-5561904Y-18892914D01*
X-5561904Y-18892914D02*
X-5609523Y-19083390D01*
X-5609523Y-19083390D02*
X-5609523Y-19464342D01*
X-5609523Y-19464342D02*
X-5561904Y-19559580D01*
X-5561904Y-19559580D02*
X-5514285Y-19607200D01*
X-5514285Y-19607200D02*
X-5419047Y-19654819D01*
X-5419047Y-19654819D02*
X-5228571Y-19654819D01*
X-5228571Y-19654819D02*
X-5133333Y-19607200D01*
X-5133333Y-19607200D02*
X-5085714Y-19559580D01*
X-5085714Y-19559580D02*
X-5038095Y-19464342D01*
X-5038095Y-19464342D02*
X-5038095Y-19226247D01*
X-5038095Y-19226247D02*
X-5085714Y-19131009D01*
X-5085714Y-19131009D02*
X-5133333Y-19083390D01*
X-5133333Y-19083390D02*
X-5228571Y-19035771D01*
X-5228571Y-19035771D02*
X-5419047Y-19035771D01*
X-5419047Y-19035771D02*
X-5514285Y-19083390D01*
X-5514285Y-19083390D02*
X-5561904Y-19131009D01*
X-5561904Y-19131009D02*
X-5609523Y-19226247D01*
X5857142Y-19854819D02*
X5523809Y-19378628D01*
X5285714Y-19854819D02*
X5285714Y-18854819D01*
X5285714Y-18854819D02*
X5666666Y-18854819D01*
X5666666Y-18854819D02*
X5761904Y-18902438D01*
X5761904Y-18902438D02*
X5809523Y-18950057D01*
X5809523Y-18950057D02*
X5857142Y-19045295D01*
X5857142Y-19045295D02*
X5857142Y-19188152D01*
X5857142Y-19188152D02*
X5809523Y-19283390D01*
X5809523Y-19283390D02*
X5761904Y-19331009D01*
X5761904Y-19331009D02*
X5666666Y-19378628D01*
X5666666Y-19378628D02*
X5285714Y-19378628D01*
X6809523Y-19854819D02*
X6238095Y-19854819D01*
X6523809Y-19854819D02*
X6523809Y-18854819D01*
X6523809Y-18854819D02*
X6428571Y-18997676D01*
X6428571Y-18997676D02*
X6333333Y-19092914D01*
X6333333Y-19092914D02*
X6238095Y-19140533D01*
X7761904Y-19854819D02*
X7190476Y-19854819D01*
X7476190Y-19854819D02*
X7476190Y-18854819D01*
X7476190Y-18854819D02*
X7380952Y-18997676D01*
X7380952Y-18997676D02*
X7285714Y-19092914D01*
X7285714Y-19092914D02*
X7190476Y-19140533D01*
X-3742857Y-15154819D02*
X-4076190Y-14678628D01*
X-4314285Y-15154819D02*
X-4314285Y-14154819D01*
X-4314285Y-14154819D02*
X-3933333Y-14154819D01*
X-3933333Y-14154819D02*
X-3838095Y-14202438D01*
X-3838095Y-14202438D02*
X-3790476Y-14250057D01*
X-3790476Y-14250057D02*
X-3742857Y-14345295D01*
X-3742857Y-14345295D02*
X-3742857Y-14488152D01*
X-3742857Y-14488152D02*
X-3790476Y-14583390D01*
X-3790476Y-14583390D02*
X-3838095Y-14631009D01*
X-3838095Y-14631009D02*
X-3933333Y-14678628D01*
X-3933333Y-14678628D02*
X-4314285Y-14678628D01*
X-3361904Y-14250057D02*
X-3314285Y-14202438D01*
X-3314285Y-14202438D02*
X-3219047Y-14154819D01*
X-3219047Y-14154819D02*
X-2980952Y-14154819D01*
X-2980952Y-14154819D02*
X-2885714Y-14202438D01*
X-2885714Y-14202438D02*
X-2838095Y-14250057D01*
X-2838095Y-14250057D02*
X-2790476Y-14345295D01*
X-2790476Y-14345295D02*
X-2790476Y-14440533D01*
X-2790476Y-14440533D02*
X-2838095Y-14583390D01*
X-2838095Y-14583390D02*
X-3409523Y-15154819D01*
X-3409523Y-15154819D02*
X-2790476Y-15154819D01*
X-2457142Y-14154819D02*
X-1790476Y-14154819D01*
X-1790476Y-14154819D02*
X-2219047Y-15154819D01*
X-30471904Y8038180D02*
X-29900476Y8038180D01*
X-30186190Y7038180D02*
X-30186190Y8038180D01*
X-29567142Y7038180D02*
X-29567142Y8038180D01*
X-29567142Y8038180D02*
X-29186190Y8038180D01*
X-29186190Y8038180D02*
X-29090952Y7990561D01*
X-29090952Y7990561D02*
X-29043333Y7942942D01*
X-29043333Y7942942D02*
X-28995714Y7847704D01*
X-28995714Y7847704D02*
X-28995714Y7704847D01*
X-28995714Y7704847D02*
X-29043333Y7609609D01*
X-29043333Y7609609D02*
X-29090952Y7561990D01*
X-29090952Y7561990D02*
X-29186190Y7514371D01*
X-29186190Y7514371D02*
X-29567142Y7514371D01*
X-28090952Y8038180D02*
X-28567142Y8038180D01*
X-28567142Y8038180D02*
X-28614761Y7561990D01*
X-28614761Y7561990D02*
X-28567142Y7609609D01*
X-28567142Y7609609D02*
X-28471904Y7657228D01*
X-28471904Y7657228D02*
X-28233809Y7657228D01*
X-28233809Y7657228D02*
X-28138571Y7609609D01*
X-28138571Y7609609D02*
X-28090952Y7561990D01*
X-28090952Y7561990D02*
X-28043333Y7466752D01*
X-28043333Y7466752D02*
X-28043333Y7228657D01*
X-28043333Y7228657D02*
X-28090952Y7133419D01*
X-28090952Y7133419D02*
X-28138571Y7085800D01*
X-28138571Y7085800D02*
X-28233809Y7038180D01*
X-28233809Y7038180D02*
X-28471904Y7038180D01*
X-28471904Y7038180D02*
X-28567142Y7085800D01*
X-28567142Y7085800D02*
X-28614761Y7133419D01*
X-13961904Y27245180D02*
X-13390476Y27245180D01*
X-13676190Y26245180D02*
X-13676190Y27245180D01*
X-13057142Y26245180D02*
X-13057142Y27245180D01*
X-13057142Y27245180D02*
X-12676190Y27245180D01*
X-12676190Y27245180D02*
X-12580952Y27197561D01*
X-12580952Y27197561D02*
X-12533333Y27149942D01*
X-12533333Y27149942D02*
X-12485714Y27054704D01*
X-12485714Y27054704D02*
X-12485714Y26911847D01*
X-12485714Y26911847D02*
X-12533333Y26816609D01*
X-12533333Y26816609D02*
X-12580952Y26768990D01*
X-12580952Y26768990D02*
X-12676190Y26721371D01*
X-12676190Y26721371D02*
X-13057142Y26721371D01*
X-12104761Y27149942D02*
X-12057142Y27197561D01*
X-12057142Y27197561D02*
X-11961904Y27245180D01*
X-11961904Y27245180D02*
X-11723809Y27245180D01*
X-11723809Y27245180D02*
X-11628571Y27197561D01*
X-11628571Y27197561D02*
X-11580952Y27149942D01*
X-11580952Y27149942D02*
X-11533333Y27054704D01*
X-11533333Y27054704D02*
X-11533333Y26959466D01*
X-11533333Y26959466D02*
X-11580952Y26816609D01*
X-11580952Y26816609D02*
X-12152380Y26245180D01*
X-12152380Y26245180D02*
X-11533333Y26245180D01*
X-4278094Y-22441819D02*
X-3706666Y-22441819D01*
X-3992380Y-23441819D02*
X-3992380Y-22441819D01*
X-3373332Y-23441819D02*
X-3373332Y-22441819D01*
X-3373332Y-22441819D02*
X-2992380Y-22441819D01*
X-2992380Y-22441819D02*
X-2897142Y-22489438D01*
X-2897142Y-22489438D02*
X-2849523Y-22537057D01*
X-2849523Y-22537057D02*
X-2801904Y-22632295D01*
X-2801904Y-22632295D02*
X-2801904Y-22775152D01*
X-2801904Y-22775152D02*
X-2849523Y-22870390D01*
X-2849523Y-22870390D02*
X-2897142Y-22918009D01*
X-2897142Y-22918009D02*
X-2992380Y-22965628D01*
X-2992380Y-22965628D02*
X-3373332Y-22965628D01*
X-1849523Y-23441819D02*
X-2420951Y-23441819D01*
X-2135237Y-23441819D02*
X-2135237Y-22441819D01*
X-2135237Y-22441819D02*
X-2230475Y-22584676D01*
X-2230475Y-22584676D02*
X-2325713Y-22679914D01*
X-2325713Y-22679914D02*
X-2420951Y-22727533D01*
X-992380Y-22441819D02*
X-1182856Y-22441819D01*
X-1182856Y-22441819D02*
X-1278094Y-22489438D01*
X-1278094Y-22489438D02*
X-1325713Y-22537057D01*
X-1325713Y-22537057D02*
X-1420951Y-22679914D01*
X-1420951Y-22679914D02*
X-1468570Y-22870390D01*
X-1468570Y-22870390D02*
X-1468570Y-23251342D01*
X-1468570Y-23251342D02*
X-1420951Y-23346580D01*
X-1420951Y-23346580D02*
X-1373332Y-23394200D01*
X-1373332Y-23394200D02*
X-1278094Y-23441819D01*
X-1278094Y-23441819D02*
X-1087618Y-23441819D01*
X-1087618Y-23441819D02*
X-992380Y-23394200D01*
X-992380Y-23394200D02*
X-944761Y-23346580D01*
X-944761Y-23346580D02*
X-897142Y-23251342D01*
X-897142Y-23251342D02*
X-897142Y-23013247D01*
X-897142Y-23013247D02*
X-944761Y-22918009D01*
X-944761Y-22918009D02*
X-992380Y-22870390D01*
X-992380Y-22870390D02*
X-1087618Y-22822771D01*
X-1087618Y-22822771D02*
X-1278094Y-22822771D01*
X-1278094Y-22822771D02*
X-1373332Y-22870390D01*
X-1373332Y-22870390D02*
X-1420951Y-22918009D01*
X-1420951Y-22918009D02*
X-1468570Y-23013247D01*
X6333333Y-359580D02*
X6285714Y-407200D01*
X6285714Y-407200D02*
X6142857Y-454819D01*
X6142857Y-454819D02*
X6047619Y-454819D01*
X6047619Y-454819D02*
X5904762Y-407200D01*
X5904762Y-407200D02*
X5809524Y-311961D01*
X5809524Y-311961D02*
X5761905Y-216723D01*
X5761905Y-216723D02*
X5714286Y-26247D01*
X5714286Y-26247D02*
X5714286Y116609D01*
X5714286Y116609D02*
X5761905Y307085D01*
X5761905Y307085D02*
X5809524Y402323D01*
X5809524Y402323D02*
X5904762Y497561D01*
X5904762Y497561D02*
X6047619Y545180D01*
X6047619Y545180D02*
X6142857Y545180D01*
X6142857Y545180D02*
X6285714Y497561D01*
X6285714Y497561D02*
X6333333Y449942D01*
X6666667Y545180D02*
X7333333Y545180D01*
X7333333Y545180D02*
X6904762Y-454819D01*
X-15366666Y11940419D02*
X-15414285Y11892800D01*
X-15414285Y11892800D02*
X-15557142Y11845180D01*
X-15557142Y11845180D02*
X-15652380Y11845180D01*
X-15652380Y11845180D02*
X-15795237Y11892800D01*
X-15795237Y11892800D02*
X-15890475Y11988038D01*
X-15890475Y11988038D02*
X-15938094Y12083276D01*
X-15938094Y12083276D02*
X-15985713Y12273752D01*
X-15985713Y12273752D02*
X-15985713Y12416609D01*
X-15985713Y12416609D02*
X-15938094Y12607085D01*
X-15938094Y12607085D02*
X-15890475Y12702323D01*
X-15890475Y12702323D02*
X-15795237Y12797561D01*
X-15795237Y12797561D02*
X-15652380Y12845180D01*
X-15652380Y12845180D02*
X-15557142Y12845180D01*
X-15557142Y12845180D02*
X-15414285Y12797561D01*
X-15414285Y12797561D02*
X-15366666Y12749942D01*
X-14461904Y12845180D02*
X-14938094Y12845180D01*
X-14938094Y12845180D02*
X-14985713Y12368990D01*
X-14985713Y12368990D02*
X-14938094Y12416609D01*
X-14938094Y12416609D02*
X-14842856Y12464228D01*
X-14842856Y12464228D02*
X-14604761Y12464228D01*
X-14604761Y12464228D02*
X-14509523Y12416609D01*
X-14509523Y12416609D02*
X-14461904Y12368990D01*
X-14461904Y12368990D02*
X-14414285Y12273752D01*
X-14414285Y12273752D02*
X-14414285Y12035657D01*
X-14414285Y12035657D02*
X-14461904Y11940419D01*
X-14461904Y11940419D02*
X-14509523Y11892800D01*
X-14509523Y11892800D02*
X-14604761Y11845180D01*
X-14604761Y11845180D02*
X-14842856Y11845180D01*
X-14842856Y11845180D02*
X-14938094Y11892800D01*
X-14938094Y11892800D02*
X-14985713Y11940419D01*
X6333333Y-5854819D02*
X6000000Y-5378628D01*
X5761905Y-5854819D02*
X5761905Y-4854819D01*
X5761905Y-4854819D02*
X6142857Y-4854819D01*
X6142857Y-4854819D02*
X6238095Y-4902438D01*
X6238095Y-4902438D02*
X6285714Y-4950057D01*
X6285714Y-4950057D02*
X6333333Y-5045295D01*
X6333333Y-5045295D02*
X6333333Y-5188152D01*
X6333333Y-5188152D02*
X6285714Y-5283390D01*
X6285714Y-5283390D02*
X6238095Y-5331009D01*
X6238095Y-5331009D02*
X6142857Y-5378628D01*
X6142857Y-5378628D02*
X5761905Y-5378628D01*
X6904762Y-5283390D02*
X6809524Y-5235771D01*
X6809524Y-5235771D02*
X6761905Y-5188152D01*
X6761905Y-5188152D02*
X6714286Y-5092914D01*
X6714286Y-5092914D02*
X6714286Y-5045295D01*
X6714286Y-5045295D02*
X6761905Y-4950057D01*
X6761905Y-4950057D02*
X6809524Y-4902438D01*
X6809524Y-4902438D02*
X6904762Y-4854819D01*
X6904762Y-4854819D02*
X7095238Y-4854819D01*
X7095238Y-4854819D02*
X7190476Y-4902438D01*
X7190476Y-4902438D02*
X7238095Y-4950057D01*
X7238095Y-4950057D02*
X7285714Y-5045295D01*
X7285714Y-5045295D02*
X7285714Y-5092914D01*
X7285714Y-5092914D02*
X7238095Y-5188152D01*
X7238095Y-5188152D02*
X7190476Y-5235771D01*
X7190476Y-5235771D02*
X7095238Y-5283390D01*
X7095238Y-5283390D02*
X6904762Y-5283390D01*
X6904762Y-5283390D02*
X6809524Y-5331009D01*
X6809524Y-5331009D02*
X6761905Y-5378628D01*
X6761905Y-5378628D02*
X6714286Y-5473866D01*
X6714286Y-5473866D02*
X6714286Y-5664342D01*
X6714286Y-5664342D02*
X6761905Y-5759580D01*
X6761905Y-5759580D02*
X6809524Y-5807200D01*
X6809524Y-5807200D02*
X6904762Y-5854819D01*
X6904762Y-5854819D02*
X7095238Y-5854819D01*
X7095238Y-5854819D02*
X7190476Y-5807200D01*
X7190476Y-5807200D02*
X7238095Y-5759580D01*
X7238095Y-5759580D02*
X7285714Y-5664342D01*
X7285714Y-5664342D02*
X7285714Y-5473866D01*
X7285714Y-5473866D02*
X7238095Y-5378628D01*
X7238095Y-5378628D02*
X7190476Y-5331009D01*
X7190476Y-5331009D02*
X7095238Y-5283390D01*
X-30471904Y418180D02*
X-29900476Y418180D01*
X-30186190Y-581819D02*
X-30186190Y418180D01*
X-29567142Y-581819D02*
X-29567142Y418180D01*
X-29567142Y418180D02*
X-29186190Y418180D01*
X-29186190Y418180D02*
X-29090952Y370561D01*
X-29090952Y370561D02*
X-29043333Y322942D01*
X-29043333Y322942D02*
X-28995714Y227704D01*
X-28995714Y227704D02*
X-28995714Y84847D01*
X-28995714Y84847D02*
X-29043333Y-10390D01*
X-29043333Y-10390D02*
X-29090952Y-58009D01*
X-29090952Y-58009D02*
X-29186190Y-105628D01*
X-29186190Y-105628D02*
X-29567142Y-105628D01*
X-28424285Y-10390D02*
X-28519523Y37228D01*
X-28519523Y37228D02*
X-28567142Y84847D01*
X-28567142Y84847D02*
X-28614761Y180085D01*
X-28614761Y180085D02*
X-28614761Y227704D01*
X-28614761Y227704D02*
X-28567142Y322942D01*
X-28567142Y322942D02*
X-28519523Y370561D01*
X-28519523Y370561D02*
X-28424285Y418180D01*
X-28424285Y418180D02*
X-28233809Y418180D01*
X-28233809Y418180D02*
X-28138571Y370561D01*
X-28138571Y370561D02*
X-28090952Y322942D01*
X-28090952Y322942D02*
X-28043333Y227704D01*
X-28043333Y227704D02*
X-28043333Y180085D01*
X-28043333Y180085D02*
X-28090952Y84847D01*
X-28090952Y84847D02*
X-28138571Y37228D01*
X-28138571Y37228D02*
X-28233809Y-10390D01*
X-28233809Y-10390D02*
X-28424285Y-10390D01*
X-28424285Y-10390D02*
X-28519523Y-58009D01*
X-28519523Y-58009D02*
X-28567142Y-105628D01*
X-28567142Y-105628D02*
X-28614761Y-200866D01*
X-28614761Y-200866D02*
X-28614761Y-391342D01*
X-28614761Y-391342D02*
X-28567142Y-486580D01*
X-28567142Y-486580D02*
X-28519523Y-534200D01*
X-28519523Y-534200D02*
X-28424285Y-581819D01*
X-28424285Y-581819D02*
X-28233809Y-581819D01*
X-28233809Y-581819D02*
X-28138571Y-534200D01*
X-28138571Y-534200D02*
X-28090952Y-486580D01*
X-28090952Y-486580D02*
X-28043333Y-391342D01*
X-28043333Y-391342D02*
X-28043333Y-200866D01*
X-28043333Y-200866D02*
X-28090952Y-105628D01*
X-28090952Y-105628D02*
X-28138571Y-58009D01*
X-28138571Y-58009D02*
X-28233809Y-10390D01*
X-30471904Y2958180D02*
X-29900476Y2958180D01*
X-30186190Y1958180D02*
X-30186190Y2958180D01*
X-29567142Y1958180D02*
X-29567142Y2958180D01*
X-29567142Y2958180D02*
X-29186190Y2958180D01*
X-29186190Y2958180D02*
X-29090952Y2910561D01*
X-29090952Y2910561D02*
X-29043333Y2862942D01*
X-29043333Y2862942D02*
X-28995714Y2767704D01*
X-28995714Y2767704D02*
X-28995714Y2624847D01*
X-28995714Y2624847D02*
X-29043333Y2529609D01*
X-29043333Y2529609D02*
X-29090952Y2481990D01*
X-29090952Y2481990D02*
X-29186190Y2434371D01*
X-29186190Y2434371D02*
X-29567142Y2434371D01*
X-28662380Y2958180D02*
X-27995714Y2958180D01*
X-27995714Y2958180D02*
X-28424285Y1958180D01*
X-32218094Y-16091819D02*
X-31646666Y-16091819D01*
X-31932380Y-17091819D02*
X-31932380Y-16091819D01*
X-31313332Y-17091819D02*
X-31313332Y-16091819D01*
X-31313332Y-16091819D02*
X-30932380Y-16091819D01*
X-30932380Y-16091819D02*
X-30837142Y-16139438D01*
X-30837142Y-16139438D02*
X-30789523Y-16187057D01*
X-30789523Y-16187057D02*
X-30741904Y-16282295D01*
X-30741904Y-16282295D02*
X-30741904Y-16425152D01*
X-30741904Y-16425152D02*
X-30789523Y-16520390D01*
X-30789523Y-16520390D02*
X-30837142Y-16568009D01*
X-30837142Y-16568009D02*
X-30932380Y-16615628D01*
X-30932380Y-16615628D02*
X-31313332Y-16615628D01*
X-29789523Y-17091819D02*
X-30360951Y-17091819D01*
X-30075237Y-17091819D02*
X-30075237Y-16091819D01*
X-30075237Y-16091819D02*
X-30170475Y-16234676D01*
X-30170475Y-16234676D02*
X-30265713Y-16329914D01*
X-30265713Y-16329914D02*
X-30360951Y-16377533D01*
X-28884761Y-16091819D02*
X-29360951Y-16091819D01*
X-29360951Y-16091819D02*
X-29408570Y-16568009D01*
X-29408570Y-16568009D02*
X-29360951Y-16520390D01*
X-29360951Y-16520390D02*
X-29265713Y-16472771D01*
X-29265713Y-16472771D02*
X-29027618Y-16472771D01*
X-29027618Y-16472771D02*
X-28932380Y-16520390D01*
X-28932380Y-16520390D02*
X-28884761Y-16568009D01*
X-28884761Y-16568009D02*
X-28837142Y-16663247D01*
X-28837142Y-16663247D02*
X-28837142Y-16901342D01*
X-28837142Y-16901342D02*
X-28884761Y-16996580D01*
X-28884761Y-16996580D02*
X-28932380Y-17044200D01*
X-28932380Y-17044200D02*
X-29027618Y-17091819D01*
X-29027618Y-17091819D02*
X-29265713Y-17091819D01*
X-29265713Y-17091819D02*
X-29360951Y-17044200D01*
X-29360951Y-17044200D02*
X-29408570Y-16996580D01*
X-30471904Y-2121819D02*
X-29900476Y-2121819D01*
X-30186190Y-3121819D02*
X-30186190Y-2121819D01*
X-29567142Y-3121819D02*
X-29567142Y-2121819D01*
X-29567142Y-2121819D02*
X-29186190Y-2121819D01*
X-29186190Y-2121819D02*
X-29090952Y-2169438D01*
X-29090952Y-2169438D02*
X-29043333Y-2217057D01*
X-29043333Y-2217057D02*
X-28995714Y-2312295D01*
X-28995714Y-2312295D02*
X-28995714Y-2455152D01*
X-28995714Y-2455152D02*
X-29043333Y-2550390D01*
X-29043333Y-2550390D02*
X-29090952Y-2598009D01*
X-29090952Y-2598009D02*
X-29186190Y-2645628D01*
X-29186190Y-2645628D02*
X-29567142Y-2645628D01*
X-28519523Y-3121819D02*
X-28329047Y-3121819D01*
X-28329047Y-3121819D02*
X-28233809Y-3074200D01*
X-28233809Y-3074200D02*
X-28186190Y-3026580D01*
X-28186190Y-3026580D02*
X-28090952Y-2883723D01*
X-28090952Y-2883723D02*
X-28043333Y-2693247D01*
X-28043333Y-2693247D02*
X-28043333Y-2312295D01*
X-28043333Y-2312295D02*
X-28090952Y-2217057D01*
X-28090952Y-2217057D02*
X-28138571Y-2169438D01*
X-28138571Y-2169438D02*
X-28233809Y-2121819D01*
X-28233809Y-2121819D02*
X-28424285Y-2121819D01*
X-28424285Y-2121819D02*
X-28519523Y-2169438D01*
X-28519523Y-2169438D02*
X-28567142Y-2217057D01*
X-28567142Y-2217057D02*
X-28614761Y-2312295D01*
X-28614761Y-2312295D02*
X-28614761Y-2550390D01*
X-28614761Y-2550390D02*
X-28567142Y-2645628D01*
X-28567142Y-2645628D02*
X-28519523Y-2693247D01*
X-28519523Y-2693247D02*
X-28424285Y-2740866D01*
X-28424285Y-2740866D02*
X-28233809Y-2740866D01*
X-28233809Y-2740866D02*
X-28138571Y-2693247D01*
X-28138571Y-2693247D02*
X-28090952Y-2645628D01*
X-28090952Y-2645628D02*
X-28043333Y-2550390D01*
X-6942857Y-18154819D02*
X-7276190Y-17678628D01*
X-7514285Y-18154819D02*
X-7514285Y-17154819D01*
X-7514285Y-17154819D02*
X-7133333Y-17154819D01*
X-7133333Y-17154819D02*
X-7038095Y-17202438D01*
X-7038095Y-17202438D02*
X-6990476Y-17250057D01*
X-6990476Y-17250057D02*
X-6942857Y-17345295D01*
X-6942857Y-17345295D02*
X-6942857Y-17488152D01*
X-6942857Y-17488152D02*
X-6990476Y-17583390D01*
X-6990476Y-17583390D02*
X-7038095Y-17631009D01*
X-7038095Y-17631009D02*
X-7133333Y-17678628D01*
X-7133333Y-17678628D02*
X-7514285Y-17678628D01*
X-6561904Y-17250057D02*
X-6514285Y-17202438D01*
X-6514285Y-17202438D02*
X-6419047Y-17154819D01*
X-6419047Y-17154819D02*
X-6180952Y-17154819D01*
X-6180952Y-17154819D02*
X-6085714Y-17202438D01*
X-6085714Y-17202438D02*
X-6038095Y-17250057D01*
X-6038095Y-17250057D02*
X-5990476Y-17345295D01*
X-5990476Y-17345295D02*
X-5990476Y-17440533D01*
X-5990476Y-17440533D02*
X-6038095Y-17583390D01*
X-6038095Y-17583390D02*
X-6609523Y-18154819D01*
X-6609523Y-18154819D02*
X-5990476Y-18154819D01*
X-5085714Y-17154819D02*
X-5561904Y-17154819D01*
X-5561904Y-17154819D02*
X-5609523Y-17631009D01*
X-5609523Y-17631009D02*
X-5561904Y-17583390D01*
X-5561904Y-17583390D02*
X-5466666Y-17535771D01*
X-5466666Y-17535771D02*
X-5228571Y-17535771D01*
X-5228571Y-17535771D02*
X-5133333Y-17583390D01*
X-5133333Y-17583390D02*
X-5085714Y-17631009D01*
X-5085714Y-17631009D02*
X-5038095Y-17726247D01*
X-5038095Y-17726247D02*
X-5038095Y-17964342D01*
X-5038095Y-17964342D02*
X-5085714Y-18059580D01*
X-5085714Y-18059580D02*
X-5133333Y-18107200D01*
X-5133333Y-18107200D02*
X-5228571Y-18154819D01*
X-5228571Y-18154819D02*
X-5466666Y-18154819D01*
X-5466666Y-18154819D02*
X-5561904Y-18107200D01*
X-5561904Y-18107200D02*
X-5609523Y-18059580D01*
X-13761904Y-9454819D02*
X-13761904Y-10264342D01*
X-13761904Y-10264342D02*
X-13714285Y-10359580D01*
X-13714285Y-10359580D02*
X-13666666Y-10407200D01*
X-13666666Y-10407200D02*
X-13571428Y-10454819D01*
X-13571428Y-10454819D02*
X-13380952Y-10454819D01*
X-13380952Y-10454819D02*
X-13285714Y-10407200D01*
X-13285714Y-10407200D02*
X-13238095Y-10359580D01*
X-13238095Y-10359580D02*
X-13190476Y-10264342D01*
X-13190476Y-10264342D02*
X-13190476Y-9454819D01*
X-12190476Y-10454819D02*
X-12761904Y-10454819D01*
X-12476190Y-10454819D02*
X-12476190Y-9454819D01*
X-12476190Y-9454819D02*
X-12571428Y-9597676D01*
X-12571428Y-9597676D02*
X-12666666Y-9692914D01*
X-12666666Y-9692914D02*
X-12761904Y-9740533D01*
X-9338094Y11845180D02*
X-9338094Y12845180D01*
X-9338094Y12845180D02*
X-9099999Y12845180D01*
X-9099999Y12845180D02*
X-8957142Y12797561D01*
X-8957142Y12797561D02*
X-8861904Y12702323D01*
X-8861904Y12702323D02*
X-8814285Y12607085D01*
X-8814285Y12607085D02*
X-8766666Y12416609D01*
X-8766666Y12416609D02*
X-8766666Y12273752D01*
X-8766666Y12273752D02*
X-8814285Y12083276D01*
X-8814285Y12083276D02*
X-8861904Y11988038D01*
X-8861904Y11988038D02*
X-8957142Y11892800D01*
X-8957142Y11892800D02*
X-9099999Y11845180D01*
X-9099999Y11845180D02*
X-9338094Y11845180D01*
X-7909523Y12511847D02*
X-7909523Y11845180D01*
X-8147618Y12892800D02*
X-8385713Y12178514D01*
X-8385713Y12178514D02*
X-7766666Y12178514D01*
X-19041904Y27245180D02*
X-18470476Y27245180D01*
X-18756190Y26245180D02*
X-18756190Y27245180D01*
X-18137142Y26245180D02*
X-18137142Y27245180D01*
X-18137142Y27245180D02*
X-17756190Y27245180D01*
X-17756190Y27245180D02*
X-17660952Y27197561D01*
X-17660952Y27197561D02*
X-17613333Y27149942D01*
X-17613333Y27149942D02*
X-17565714Y27054704D01*
X-17565714Y27054704D02*
X-17565714Y26911847D01*
X-17565714Y26911847D02*
X-17613333Y26816609D01*
X-17613333Y26816609D02*
X-17660952Y26768990D01*
X-17660952Y26768990D02*
X-17756190Y26721371D01*
X-17756190Y26721371D02*
X-18137142Y26721371D01*
X-16613333Y26245180D02*
X-17184761Y26245180D01*
X-16899047Y26245180D02*
X-16899047Y27245180D01*
X-16899047Y27245180D02*
X-16994285Y27102323D01*
X-16994285Y27102323D02*
X-17089523Y27007085D01*
X-17089523Y27007085D02*
X-17184761Y26959466D01*
X6333333Y15445180D02*
X6000000Y15921371D01*
X5761905Y15445180D02*
X5761905Y16445180D01*
X5761905Y16445180D02*
X6142857Y16445180D01*
X6142857Y16445180D02*
X6238095Y16397561D01*
X6238095Y16397561D02*
X6285714Y16349942D01*
X6285714Y16349942D02*
X6333333Y16254704D01*
X6333333Y16254704D02*
X6333333Y16111847D01*
X6333333Y16111847D02*
X6285714Y16016609D01*
X6285714Y16016609D02*
X6238095Y15968990D01*
X6238095Y15968990D02*
X6142857Y15921371D01*
X6142857Y15921371D02*
X5761905Y15921371D01*
X7190476Y16111847D02*
X7190476Y15445180D01*
X6952381Y16492800D02*
X6714286Y15778514D01*
X6714286Y15778514D02*
X7333333Y15778514D01*
X-20442857Y-19654819D02*
X-20776190Y-19178628D01*
X-21014285Y-19654819D02*
X-21014285Y-18654819D01*
X-21014285Y-18654819D02*
X-20633333Y-18654819D01*
X-20633333Y-18654819D02*
X-20538095Y-18702438D01*
X-20538095Y-18702438D02*
X-20490476Y-18750057D01*
X-20490476Y-18750057D02*
X-20442857Y-18845295D01*
X-20442857Y-18845295D02*
X-20442857Y-18988152D01*
X-20442857Y-18988152D02*
X-20490476Y-19083390D01*
X-20490476Y-19083390D02*
X-20538095Y-19131009D01*
X-20538095Y-19131009D02*
X-20633333Y-19178628D01*
X-20633333Y-19178628D02*
X-21014285Y-19178628D01*
X-19490476Y-19654819D02*
X-20061904Y-19654819D01*
X-19776190Y-19654819D02*
X-19776190Y-18654819D01*
X-19776190Y-18654819D02*
X-19871428Y-18797676D01*
X-19871428Y-18797676D02*
X-19966666Y-18892914D01*
X-19966666Y-18892914D02*
X-20061904Y-18940533D01*
X-18919047Y-19083390D02*
X-19014285Y-19035771D01*
X-19014285Y-19035771D02*
X-19061904Y-18988152D01*
X-19061904Y-18988152D02*
X-19109523Y-18892914D01*
X-19109523Y-18892914D02*
X-19109523Y-18845295D01*
X-19109523Y-18845295D02*
X-19061904Y-18750057D01*
X-19061904Y-18750057D02*
X-19014285Y-18702438D01*
X-19014285Y-18702438D02*
X-18919047Y-18654819D01*
X-18919047Y-18654819D02*
X-18728571Y-18654819D01*
X-18728571Y-18654819D02*
X-18633333Y-18702438D01*
X-18633333Y-18702438D02*
X-18585714Y-18750057D01*
X-18585714Y-18750057D02*
X-18538095Y-18845295D01*
X-18538095Y-18845295D02*
X-18538095Y-18892914D01*
X-18538095Y-18892914D02*
X-18585714Y-18988152D01*
X-18585714Y-18988152D02*
X-18633333Y-19035771D01*
X-18633333Y-19035771D02*
X-18728571Y-19083390D01*
X-18728571Y-19083390D02*
X-18919047Y-19083390D01*
X-18919047Y-19083390D02*
X-19014285Y-19131009D01*
X-19014285Y-19131009D02*
X-19061904Y-19178628D01*
X-19061904Y-19178628D02*
X-19109523Y-19273866D01*
X-19109523Y-19273866D02*
X-19109523Y-19464342D01*
X-19109523Y-19464342D02*
X-19061904Y-19559580D01*
X-19061904Y-19559580D02*
X-19014285Y-19607200D01*
X-19014285Y-19607200D02*
X-18919047Y-19654819D01*
X-18919047Y-19654819D02*
X-18728571Y-19654819D01*
X-18728571Y-19654819D02*
X-18633333Y-19607200D01*
X-18633333Y-19607200D02*
X-18585714Y-19559580D01*
X-18585714Y-19559580D02*
X-18538095Y-19464342D01*
X-18538095Y-19464342D02*
X-18538095Y-19273866D01*
X-18538095Y-19273866D02*
X-18585714Y-19178628D01*
X-18585714Y-19178628D02*
X-18633333Y-19131009D01*
X-18633333Y-19131009D02*
X-18728571Y-19083390D01*
X-10142857Y-16654819D02*
X-10476190Y-16178628D01*
X-10714285Y-16654819D02*
X-10714285Y-15654819D01*
X-10714285Y-15654819D02*
X-10333333Y-15654819D01*
X-10333333Y-15654819D02*
X-10238095Y-15702438D01*
X-10238095Y-15702438D02*
X-10190476Y-15750057D01*
X-10190476Y-15750057D02*
X-10142857Y-15845295D01*
X-10142857Y-15845295D02*
X-10142857Y-15988152D01*
X-10142857Y-15988152D02*
X-10190476Y-16083390D01*
X-10190476Y-16083390D02*
X-10238095Y-16131009D01*
X-10238095Y-16131009D02*
X-10333333Y-16178628D01*
X-10333333Y-16178628D02*
X-10714285Y-16178628D01*
X-9761904Y-15750057D02*
X-9714285Y-15702438D01*
X-9714285Y-15702438D02*
X-9619047Y-15654819D01*
X-9619047Y-15654819D02*
X-9380952Y-15654819D01*
X-9380952Y-15654819D02*
X-9285714Y-15702438D01*
X-9285714Y-15702438D02*
X-9238095Y-15750057D01*
X-9238095Y-15750057D02*
X-9190476Y-15845295D01*
X-9190476Y-15845295D02*
X-9190476Y-15940533D01*
X-9190476Y-15940533D02*
X-9238095Y-16083390D01*
X-9238095Y-16083390D02*
X-9809523Y-16654819D01*
X-9809523Y-16654819D02*
X-9190476Y-16654819D01*
X-8857142Y-15654819D02*
X-8238095Y-15654819D01*
X-8238095Y-15654819D02*
X-8571428Y-16035771D01*
X-8571428Y-16035771D02*
X-8428571Y-16035771D01*
X-8428571Y-16035771D02*
X-8333333Y-16083390D01*
X-8333333Y-16083390D02*
X-8285714Y-16131009D01*
X-8285714Y-16131009D02*
X-8238095Y-16226247D01*
X-8238095Y-16226247D02*
X-8238095Y-16464342D01*
X-8238095Y-16464342D02*
X-8285714Y-16559580D01*
X-8285714Y-16559580D02*
X-8333333Y-16607200D01*
X-8333333Y-16607200D02*
X-8428571Y-16654819D01*
X-8428571Y-16654819D02*
X-8714285Y-16654819D01*
X-8714285Y-16654819D02*
X-8809523Y-16607200D01*
X-8809523Y-16607200D02*
X-8857142Y-16559580D01*
X-32218094Y-18631819D02*
X-31646666Y-18631819D01*
X-31932380Y-19631819D02*
X-31932380Y-18631819D01*
X-31313332Y-19631819D02*
X-31313332Y-18631819D01*
X-31313332Y-18631819D02*
X-30932380Y-18631819D01*
X-30932380Y-18631819D02*
X-30837142Y-18679438D01*
X-30837142Y-18679438D02*
X-30789523Y-18727057D01*
X-30789523Y-18727057D02*
X-30741904Y-18822295D01*
X-30741904Y-18822295D02*
X-30741904Y-18965152D01*
X-30741904Y-18965152D02*
X-30789523Y-19060390D01*
X-30789523Y-19060390D02*
X-30837142Y-19108009D01*
X-30837142Y-19108009D02*
X-30932380Y-19155628D01*
X-30932380Y-19155628D02*
X-31313332Y-19155628D01*
X-29789523Y-19631819D02*
X-30360951Y-19631819D01*
X-30075237Y-19631819D02*
X-30075237Y-18631819D01*
X-30075237Y-18631819D02*
X-30170475Y-18774676D01*
X-30170475Y-18774676D02*
X-30265713Y-18869914D01*
X-30265713Y-18869914D02*
X-30360951Y-18917533D01*
X-29456189Y-18631819D02*
X-28789523Y-18631819D01*
X-28789523Y-18631819D02*
X-29218094Y-19631819D01*
X24304761Y2949942D02*
X24209523Y2997561D01*
X24209523Y2997561D02*
X24114285Y3092800D01*
X24114285Y3092800D02*
X23971428Y3235657D01*
X23971428Y3235657D02*
X23876190Y3283276D01*
X23876190Y3283276D02*
X23780952Y3283276D01*
X23828571Y3045180D02*
X23733333Y3092800D01*
X23733333Y3092800D02*
X23638095Y3188038D01*
X23638095Y3188038D02*
X23590476Y3378514D01*
X23590476Y3378514D02*
X23590476Y3711847D01*
X23590476Y3711847D02*
X23638095Y3902323D01*
X23638095Y3902323D02*
X23733333Y3997561D01*
X23733333Y3997561D02*
X23828571Y4045180D01*
X23828571Y4045180D02*
X24019047Y4045180D01*
X24019047Y4045180D02*
X24114285Y3997561D01*
X24114285Y3997561D02*
X24209523Y3902323D01*
X24209523Y3902323D02*
X24257142Y3711847D01*
X24257142Y3711847D02*
X24257142Y3378514D01*
X24257142Y3378514D02*
X24209523Y3188038D01*
X24209523Y3188038D02*
X24114285Y3092800D01*
X24114285Y3092800D02*
X24019047Y3045180D01*
X24019047Y3045180D02*
X23828571Y3045180D01*
X24590476Y4045180D02*
X25209523Y4045180D01*
X25209523Y4045180D02*
X24876190Y3664228D01*
X24876190Y3664228D02*
X25019047Y3664228D01*
X25019047Y3664228D02*
X25114285Y3616609D01*
X25114285Y3616609D02*
X25161904Y3568990D01*
X25161904Y3568990D02*
X25209523Y3473752D01*
X25209523Y3473752D02*
X25209523Y3235657D01*
X25209523Y3235657D02*
X25161904Y3140419D01*
X25161904Y3140419D02*
X25114285Y3092800D01*
X25114285Y3092800D02*
X25019047Y3045180D01*
X25019047Y3045180D02*
X24733333Y3045180D01*
X24733333Y3045180D02*
X24638095Y3092800D01*
X24638095Y3092800D02*
X24590476Y3140419D01*
X24304761Y-11050057D02*
X24209523Y-11002438D01*
X24209523Y-11002438D02*
X24114285Y-10907200D01*
X24114285Y-10907200D02*
X23971428Y-10764342D01*
X23971428Y-10764342D02*
X23876190Y-10716723D01*
X23876190Y-10716723D02*
X23780952Y-10716723D01*
X23828571Y-10954819D02*
X23733333Y-10907200D01*
X23733333Y-10907200D02*
X23638095Y-10811961D01*
X23638095Y-10811961D02*
X23590476Y-10621485D01*
X23590476Y-10621485D02*
X23590476Y-10288152D01*
X23590476Y-10288152D02*
X23638095Y-10097676D01*
X23638095Y-10097676D02*
X23733333Y-10002438D01*
X23733333Y-10002438D02*
X23828571Y-9954819D01*
X23828571Y-9954819D02*
X24019047Y-9954819D01*
X24019047Y-9954819D02*
X24114285Y-10002438D01*
X24114285Y-10002438D02*
X24209523Y-10097676D01*
X24209523Y-10097676D02*
X24257142Y-10288152D01*
X24257142Y-10288152D02*
X24257142Y-10621485D01*
X24257142Y-10621485D02*
X24209523Y-10811961D01*
X24209523Y-10811961D02*
X24114285Y-10907200D01*
X24114285Y-10907200D02*
X24019047Y-10954819D01*
X24019047Y-10954819D02*
X23828571Y-10954819D01*
X25161904Y-9954819D02*
X24685714Y-9954819D01*
X24685714Y-9954819D02*
X24638095Y-10431009D01*
X24638095Y-10431009D02*
X24685714Y-10383390D01*
X24685714Y-10383390D02*
X24780952Y-10335771D01*
X24780952Y-10335771D02*
X25019047Y-10335771D01*
X25019047Y-10335771D02*
X25114285Y-10383390D01*
X25114285Y-10383390D02*
X25161904Y-10431009D01*
X25161904Y-10431009D02*
X25209523Y-10526247D01*
X25209523Y-10526247D02*
X25209523Y-10764342D01*
X25209523Y-10764342D02*
X25161904Y-10859580D01*
X25161904Y-10859580D02*
X25114285Y-10907200D01*
X25114285Y-10907200D02*
X25019047Y-10954819D01*
X25019047Y-10954819D02*
X24780952Y-10954819D01*
X24780952Y-10954819D02*
X24685714Y-10907200D01*
X24685714Y-10907200D02*
X24638095Y-10859580D01*
X-6942857Y-27354819D02*
X-7276190Y-26878628D01*
X-7514285Y-27354819D02*
X-7514285Y-26354819D01*
X-7514285Y-26354819D02*
X-7133333Y-26354819D01*
X-7133333Y-26354819D02*
X-7038095Y-26402438D01*
X-7038095Y-26402438D02*
X-6990476Y-26450057D01*
X-6990476Y-26450057D02*
X-6942857Y-26545295D01*
X-6942857Y-26545295D02*
X-6942857Y-26688152D01*
X-6942857Y-26688152D02*
X-6990476Y-26783390D01*
X-6990476Y-26783390D02*
X-7038095Y-26831009D01*
X-7038095Y-26831009D02*
X-7133333Y-26878628D01*
X-7133333Y-26878628D02*
X-7514285Y-26878628D01*
X-6561904Y-26450057D02*
X-6514285Y-26402438D01*
X-6514285Y-26402438D02*
X-6419047Y-26354819D01*
X-6419047Y-26354819D02*
X-6180952Y-26354819D01*
X-6180952Y-26354819D02*
X-6085714Y-26402438D01*
X-6085714Y-26402438D02*
X-6038095Y-26450057D01*
X-6038095Y-26450057D02*
X-5990476Y-26545295D01*
X-5990476Y-26545295D02*
X-5990476Y-26640533D01*
X-5990476Y-26640533D02*
X-6038095Y-26783390D01*
X-6038095Y-26783390D02*
X-6609523Y-27354819D01*
X-6609523Y-27354819D02*
X-5990476Y-27354819D01*
X-5419047Y-26783390D02*
X-5514285Y-26735771D01*
X-5514285Y-26735771D02*
X-5561904Y-26688152D01*
X-5561904Y-26688152D02*
X-5609523Y-26592914D01*
X-5609523Y-26592914D02*
X-5609523Y-26545295D01*
X-5609523Y-26545295D02*
X-5561904Y-26450057D01*
X-5561904Y-26450057D02*
X-5514285Y-26402438D01*
X-5514285Y-26402438D02*
X-5419047Y-26354819D01*
X-5419047Y-26354819D02*
X-5228571Y-26354819D01*
X-5228571Y-26354819D02*
X-5133333Y-26402438D01*
X-5133333Y-26402438D02*
X-5085714Y-26450057D01*
X-5085714Y-26450057D02*
X-5038095Y-26545295D01*
X-5038095Y-26545295D02*
X-5038095Y-26592914D01*
X-5038095Y-26592914D02*
X-5085714Y-26688152D01*
X-5085714Y-26688152D02*
X-5133333Y-26735771D01*
X-5133333Y-26735771D02*
X-5228571Y-26783390D01*
X-5228571Y-26783390D02*
X-5419047Y-26783390D01*
X-5419047Y-26783390D02*
X-5514285Y-26831009D01*
X-5514285Y-26831009D02*
X-5561904Y-26878628D01*
X-5561904Y-26878628D02*
X-5609523Y-26973866D01*
X-5609523Y-26973866D02*
X-5609523Y-27164342D01*
X-5609523Y-27164342D02*
X-5561904Y-27259580D01*
X-5561904Y-27259580D02*
X-5514285Y-27307200D01*
X-5514285Y-27307200D02*
X-5419047Y-27354819D01*
X-5419047Y-27354819D02*
X-5228571Y-27354819D01*
X-5228571Y-27354819D02*
X-5133333Y-27307200D01*
X-5133333Y-27307200D02*
X-5085714Y-27259580D01*
X-5085714Y-27259580D02*
X-5038095Y-27164342D01*
X-5038095Y-27164342D02*
X-5038095Y-26973866D01*
X-5038095Y-26973866D02*
X-5085714Y-26878628D01*
X-5085714Y-26878628D02*
X-5133333Y-26831009D01*
X-5133333Y-26831009D02*
X-5228571Y-26783390D01*
X4733333Y10745180D02*
X4400000Y11221371D01*
X4161905Y10745180D02*
X4161905Y11745180D01*
X4161905Y11745180D02*
X4542857Y11745180D01*
X4542857Y11745180D02*
X4638095Y11697561D01*
X4638095Y11697561D02*
X4685714Y11649942D01*
X4685714Y11649942D02*
X4733333Y11554704D01*
X4733333Y11554704D02*
X4733333Y11411847D01*
X4733333Y11411847D02*
X4685714Y11316609D01*
X4685714Y11316609D02*
X4638095Y11268990D01*
X4638095Y11268990D02*
X4542857Y11221371D01*
X4542857Y11221371D02*
X4161905Y11221371D01*
X5590476Y11745180D02*
X5400000Y11745180D01*
X5400000Y11745180D02*
X5304762Y11697561D01*
X5304762Y11697561D02*
X5257143Y11649942D01*
X5257143Y11649942D02*
X5161905Y11507085D01*
X5161905Y11507085D02*
X5114286Y11316609D01*
X5114286Y11316609D02*
X5114286Y10935657D01*
X5114286Y10935657D02*
X5161905Y10840419D01*
X5161905Y10840419D02*
X5209524Y10792800D01*
X5209524Y10792800D02*
X5304762Y10745180D01*
X5304762Y10745180D02*
X5495238Y10745180D01*
X5495238Y10745180D02*
X5590476Y10792800D01*
X5590476Y10792800D02*
X5638095Y10840419D01*
X5638095Y10840419D02*
X5685714Y10935657D01*
X5685714Y10935657D02*
X5685714Y11173752D01*
X5685714Y11173752D02*
X5638095Y11268990D01*
X5638095Y11268990D02*
X5590476Y11316609D01*
X5590476Y11316609D02*
X5495238Y11364228D01*
X5495238Y11364228D02*
X5304762Y11364228D01*
X5304762Y11364228D02*
X5209524Y11316609D01*
X5209524Y11316609D02*
X5161905Y11268990D01*
X5161905Y11268990D02*
X5114286Y11173752D01*
X-23642857Y-25654819D02*
X-23976190Y-25178628D01*
X-24214285Y-25654819D02*
X-24214285Y-24654819D01*
X-24214285Y-24654819D02*
X-23833333Y-24654819D01*
X-23833333Y-24654819D02*
X-23738095Y-24702438D01*
X-23738095Y-24702438D02*
X-23690476Y-24750057D01*
X-23690476Y-24750057D02*
X-23642857Y-24845295D01*
X-23642857Y-24845295D02*
X-23642857Y-24988152D01*
X-23642857Y-24988152D02*
X-23690476Y-25083390D01*
X-23690476Y-25083390D02*
X-23738095Y-25131009D01*
X-23738095Y-25131009D02*
X-23833333Y-25178628D01*
X-23833333Y-25178628D02*
X-24214285Y-25178628D01*
X-22690476Y-25654819D02*
X-23261904Y-25654819D01*
X-22976190Y-25654819D02*
X-22976190Y-24654819D01*
X-22976190Y-24654819D02*
X-23071428Y-24797676D01*
X-23071428Y-24797676D02*
X-23166666Y-24892914D01*
X-23166666Y-24892914D02*
X-23261904Y-24940533D01*
X-21833333Y-24988152D02*
X-21833333Y-25654819D01*
X-22071428Y-24607200D02*
X-22309523Y-25321485D01*
X-22309523Y-25321485D02*
X-21690476Y-25321485D01*
X27471905Y6768180D02*
X28043333Y6768180D01*
X27757619Y5768180D02*
X27757619Y6768180D01*
X28376667Y5768180D02*
X28376667Y6768180D01*
X28376667Y6768180D02*
X28757619Y6768180D01*
X28757619Y6768180D02*
X28852857Y6720561D01*
X28852857Y6720561D02*
X28900476Y6672942D01*
X28900476Y6672942D02*
X28948095Y6577704D01*
X28948095Y6577704D02*
X28948095Y6434847D01*
X28948095Y6434847D02*
X28900476Y6339609D01*
X28900476Y6339609D02*
X28852857Y6291990D01*
X28852857Y6291990D02*
X28757619Y6244371D01*
X28757619Y6244371D02*
X28376667Y6244371D01*
X29900476Y5768180D02*
X29329048Y5768180D01*
X29614762Y5768180D02*
X29614762Y6768180D01*
X29614762Y6768180D02*
X29519524Y6625323D01*
X29519524Y6625323D02*
X29424286Y6530085D01*
X29424286Y6530085D02*
X29329048Y6482466D01*
X30852857Y5768180D02*
X30281429Y5768180D01*
X30567143Y5768180D02*
X30567143Y6768180D01*
X30567143Y6768180D02*
X30471905Y6625323D01*
X30471905Y6625323D02*
X30376667Y6530085D01*
X30376667Y6530085D02*
X30281429Y6482466D01*
X35666666Y-7954819D02*
X35666666Y-8669104D01*
X35666666Y-8669104D02*
X35619047Y-8811961D01*
X35619047Y-8811961D02*
X35523809Y-8907200D01*
X35523809Y-8907200D02*
X35380952Y-8954819D01*
X35380952Y-8954819D02*
X35285714Y-8954819D01*
X36047619Y-7954819D02*
X36666666Y-7954819D01*
X36666666Y-7954819D02*
X36333333Y-8335771D01*
X36333333Y-8335771D02*
X36476190Y-8335771D01*
X36476190Y-8335771D02*
X36571428Y-8383390D01*
X36571428Y-8383390D02*
X36619047Y-8431009D01*
X36619047Y-8431009D02*
X36666666Y-8526247D01*
X36666666Y-8526247D02*
X36666666Y-8764342D01*
X36666666Y-8764342D02*
X36619047Y-8859580D01*
X36619047Y-8859580D02*
X36571428Y-8907200D01*
X36571428Y-8907200D02*
X36476190Y-8954819D01*
X36476190Y-8954819D02*
X36190476Y-8954819D01*
X36190476Y-8954819D02*
X36095238Y-8907200D01*
X36095238Y-8907200D02*
X36047619Y-8859580D01*
X4733333Y-3254819D02*
X4400000Y-2778628D01*
X4161905Y-3254819D02*
X4161905Y-2254819D01*
X4161905Y-2254819D02*
X4542857Y-2254819D01*
X4542857Y-2254819D02*
X4638095Y-2302438D01*
X4638095Y-2302438D02*
X4685714Y-2350057D01*
X4685714Y-2350057D02*
X4733333Y-2445295D01*
X4733333Y-2445295D02*
X4733333Y-2588152D01*
X4733333Y-2588152D02*
X4685714Y-2683390D01*
X4685714Y-2683390D02*
X4638095Y-2731009D01*
X4638095Y-2731009D02*
X4542857Y-2778628D01*
X4542857Y-2778628D02*
X4161905Y-2778628D01*
X5209524Y-3254819D02*
X5400000Y-3254819D01*
X5400000Y-3254819D02*
X5495238Y-3207200D01*
X5495238Y-3207200D02*
X5542857Y-3159580D01*
X5542857Y-3159580D02*
X5638095Y-3016723D01*
X5638095Y-3016723D02*
X5685714Y-2826247D01*
X5685714Y-2826247D02*
X5685714Y-2445295D01*
X5685714Y-2445295D02*
X5638095Y-2350057D01*
X5638095Y-2350057D02*
X5590476Y-2302438D01*
X5590476Y-2302438D02*
X5495238Y-2254819D01*
X5495238Y-2254819D02*
X5304762Y-2254819D01*
X5304762Y-2254819D02*
X5209524Y-2302438D01*
X5209524Y-2302438D02*
X5161905Y-2350057D01*
X5161905Y-2350057D02*
X5114286Y-2445295D01*
X5114286Y-2445295D02*
X5114286Y-2683390D01*
X5114286Y-2683390D02*
X5161905Y-2778628D01*
X5161905Y-2778628D02*
X5209524Y-2826247D01*
X5209524Y-2826247D02*
X5304762Y-2873866D01*
X5304762Y-2873866D02*
X5495238Y-2873866D01*
X5495238Y-2873866D02*
X5590476Y-2826247D01*
X5590476Y-2826247D02*
X5638095Y-2778628D01*
X5638095Y-2778628D02*
X5685714Y-2683390D01*
X-13761904Y-23054819D02*
X-13761904Y-23864342D01*
X-13761904Y-23864342D02*
X-13714285Y-23959580D01*
X-13714285Y-23959580D02*
X-13666666Y-24007200D01*
X-13666666Y-24007200D02*
X-13571428Y-24054819D01*
X-13571428Y-24054819D02*
X-13380952Y-24054819D01*
X-13380952Y-24054819D02*
X-13285714Y-24007200D01*
X-13285714Y-24007200D02*
X-13238095Y-23959580D01*
X-13238095Y-23959580D02*
X-13190476Y-23864342D01*
X-13190476Y-23864342D02*
X-13190476Y-23054819D01*
X-12761904Y-23150057D02*
X-12714285Y-23102438D01*
X-12714285Y-23102438D02*
X-12619047Y-23054819D01*
X-12619047Y-23054819D02*
X-12380952Y-23054819D01*
X-12380952Y-23054819D02*
X-12285714Y-23102438D01*
X-12285714Y-23102438D02*
X-12238095Y-23150057D01*
X-12238095Y-23150057D02*
X-12190476Y-23245295D01*
X-12190476Y-23245295D02*
X-12190476Y-23340533D01*
X-12190476Y-23340533D02*
X-12238095Y-23483390D01*
X-12238095Y-23483390D02*
X-12809523Y-24054819D01*
X-12809523Y-24054819D02*
X-12190476Y-24054819D01*
X-23642857Y-15154819D02*
X-23976190Y-14678628D01*
X-24214285Y-15154819D02*
X-24214285Y-14154819D01*
X-24214285Y-14154819D02*
X-23833333Y-14154819D01*
X-23833333Y-14154819D02*
X-23738095Y-14202438D01*
X-23738095Y-14202438D02*
X-23690476Y-14250057D01*
X-23690476Y-14250057D02*
X-23642857Y-14345295D01*
X-23642857Y-14345295D02*
X-23642857Y-14488152D01*
X-23642857Y-14488152D02*
X-23690476Y-14583390D01*
X-23690476Y-14583390D02*
X-23738095Y-14631009D01*
X-23738095Y-14631009D02*
X-23833333Y-14678628D01*
X-23833333Y-14678628D02*
X-24214285Y-14678628D01*
X-22690476Y-15154819D02*
X-23261904Y-15154819D01*
X-22976190Y-15154819D02*
X-22976190Y-14154819D01*
X-22976190Y-14154819D02*
X-23071428Y-14297676D01*
X-23071428Y-14297676D02*
X-23166666Y-14392914D01*
X-23166666Y-14392914D02*
X-23261904Y-14440533D01*
X-22357142Y-14154819D02*
X-21738095Y-14154819D01*
X-21738095Y-14154819D02*
X-22071428Y-14535771D01*
X-22071428Y-14535771D02*
X-21928571Y-14535771D01*
X-21928571Y-14535771D02*
X-21833333Y-14583390D01*
X-21833333Y-14583390D02*
X-21785714Y-14631009D01*
X-21785714Y-14631009D02*
X-21738095Y-14726247D01*
X-21738095Y-14726247D02*
X-21738095Y-14964342D01*
X-21738095Y-14964342D02*
X-21785714Y-15059580D01*
X-21785714Y-15059580D02*
X-21833333Y-15107200D01*
X-21833333Y-15107200D02*
X-21928571Y-15154819D01*
X-21928571Y-15154819D02*
X-22214285Y-15154819D01*
X-22214285Y-15154819D02*
X-22309523Y-15107200D01*
X-22309523Y-15107200D02*
X-22357142Y-15059580D01*
X-17142857Y-16654819D02*
X-17476190Y-16178628D01*
X-17714285Y-16654819D02*
X-17714285Y-15654819D01*
X-17714285Y-15654819D02*
X-17333333Y-15654819D01*
X-17333333Y-15654819D02*
X-17238095Y-15702438D01*
X-17238095Y-15702438D02*
X-17190476Y-15750057D01*
X-17190476Y-15750057D02*
X-17142857Y-15845295D01*
X-17142857Y-15845295D02*
X-17142857Y-15988152D01*
X-17142857Y-15988152D02*
X-17190476Y-16083390D01*
X-17190476Y-16083390D02*
X-17238095Y-16131009D01*
X-17238095Y-16131009D02*
X-17333333Y-16178628D01*
X-17333333Y-16178628D02*
X-17714285Y-16178628D01*
X-16190476Y-16654819D02*
X-16761904Y-16654819D01*
X-16476190Y-16654819D02*
X-16476190Y-15654819D01*
X-16476190Y-15654819D02*
X-16571428Y-15797676D01*
X-16571428Y-15797676D02*
X-16666666Y-15892914D01*
X-16666666Y-15892914D02*
X-16761904Y-15940533D01*
X-15285714Y-15654819D02*
X-15761904Y-15654819D01*
X-15761904Y-15654819D02*
X-15809523Y-16131009D01*
X-15809523Y-16131009D02*
X-15761904Y-16083390D01*
X-15761904Y-16083390D02*
X-15666666Y-16035771D01*
X-15666666Y-16035771D02*
X-15428571Y-16035771D01*
X-15428571Y-16035771D02*
X-15333333Y-16083390D01*
X-15333333Y-16083390D02*
X-15285714Y-16131009D01*
X-15285714Y-16131009D02*
X-15238095Y-16226247D01*
X-15238095Y-16226247D02*
X-15238095Y-16464342D01*
X-15238095Y-16464342D02*
X-15285714Y-16559580D01*
X-15285714Y-16559580D02*
X-15333333Y-16607200D01*
X-15333333Y-16607200D02*
X-15428571Y-16654819D01*
X-15428571Y-16654819D02*
X-15666666Y-16654819D01*
X-15666666Y-16654819D02*
X-15761904Y-16607200D01*
X-15761904Y-16607200D02*
X-15809523Y-16559580D01*
X-13738094Y11845180D02*
X-13738094Y12845180D01*
X-13738094Y12845180D02*
X-13499999Y12845180D01*
X-13499999Y12845180D02*
X-13357142Y12797561D01*
X-13357142Y12797561D02*
X-13261904Y12702323D01*
X-13261904Y12702323D02*
X-13214285Y12607085D01*
X-13214285Y12607085D02*
X-13166666Y12416609D01*
X-13166666Y12416609D02*
X-13166666Y12273752D01*
X-13166666Y12273752D02*
X-13214285Y12083276D01*
X-13214285Y12083276D02*
X-13261904Y11988038D01*
X-13261904Y11988038D02*
X-13357142Y11892800D01*
X-13357142Y11892800D02*
X-13499999Y11845180D01*
X-13499999Y11845180D02*
X-13738094Y11845180D01*
X-12261904Y12845180D02*
X-12738094Y12845180D01*
X-12738094Y12845180D02*
X-12785713Y12368990D01*
X-12785713Y12368990D02*
X-12738094Y12416609D01*
X-12738094Y12416609D02*
X-12642856Y12464228D01*
X-12642856Y12464228D02*
X-12404761Y12464228D01*
X-12404761Y12464228D02*
X-12309523Y12416609D01*
X-12309523Y12416609D02*
X-12261904Y12368990D01*
X-12261904Y12368990D02*
X-12214285Y12273752D01*
X-12214285Y12273752D02*
X-12214285Y12035657D01*
X-12214285Y12035657D02*
X-12261904Y11940419D01*
X-12261904Y11940419D02*
X-12309523Y11892800D01*
X-12309523Y11892800D02*
X-12404761Y11845180D01*
X-12404761Y11845180D02*
X-12642856Y11845180D01*
X-12642856Y11845180D02*
X-12738094Y11892800D01*
X-12738094Y11892800D02*
X-12785713Y11940419D01*
X-35133333Y-7584819D02*
X-35133333Y-8299104D01*
X-35133333Y-8299104D02*
X-35180952Y-8441961D01*
X-35180952Y-8441961D02*
X-35276190Y-8537200D01*
X-35276190Y-8537200D02*
X-35419047Y-8584819D01*
X-35419047Y-8584819D02*
X-35514285Y-8584819D01*
X-34704761Y-7680057D02*
X-34657142Y-7632438D01*
X-34657142Y-7632438D02*
X-34561904Y-7584819D01*
X-34561904Y-7584819D02*
X-34323809Y-7584819D01*
X-34323809Y-7584819D02*
X-34228571Y-7632438D01*
X-34228571Y-7632438D02*
X-34180952Y-7680057D01*
X-34180952Y-7680057D02*
X-34133333Y-7775295D01*
X-34133333Y-7775295D02*
X-34133333Y-7870533D01*
X-34133333Y-7870533D02*
X-34180952Y-8013390D01*
X-34180952Y-8013390D02*
X-34752380Y-8584819D01*
X-34752380Y-8584819D02*
X-34133333Y-8584819D01*
X-20442857Y-18154819D02*
X-20776190Y-17678628D01*
X-21014285Y-18154819D02*
X-21014285Y-17154819D01*
X-21014285Y-17154819D02*
X-20633333Y-17154819D01*
X-20633333Y-17154819D02*
X-20538095Y-17202438D01*
X-20538095Y-17202438D02*
X-20490476Y-17250057D01*
X-20490476Y-17250057D02*
X-20442857Y-17345295D01*
X-20442857Y-17345295D02*
X-20442857Y-17488152D01*
X-20442857Y-17488152D02*
X-20490476Y-17583390D01*
X-20490476Y-17583390D02*
X-20538095Y-17631009D01*
X-20538095Y-17631009D02*
X-20633333Y-17678628D01*
X-20633333Y-17678628D02*
X-21014285Y-17678628D01*
X-19490476Y-18154819D02*
X-20061904Y-18154819D01*
X-19776190Y-18154819D02*
X-19776190Y-17154819D01*
X-19776190Y-17154819D02*
X-19871428Y-17297676D01*
X-19871428Y-17297676D02*
X-19966666Y-17392914D01*
X-19966666Y-17392914D02*
X-20061904Y-17440533D01*
X-19157142Y-17154819D02*
X-18490476Y-17154819D01*
X-18490476Y-17154819D02*
X-18919047Y-18154819D01*
X3757142Y-17254819D02*
X3423809Y-16778628D01*
X3185714Y-17254819D02*
X3185714Y-16254819D01*
X3185714Y-16254819D02*
X3566666Y-16254819D01*
X3566666Y-16254819D02*
X3661904Y-16302438D01*
X3661904Y-16302438D02*
X3709523Y-16350057D01*
X3709523Y-16350057D02*
X3757142Y-16445295D01*
X3757142Y-16445295D02*
X3757142Y-16588152D01*
X3757142Y-16588152D02*
X3709523Y-16683390D01*
X3709523Y-16683390D02*
X3661904Y-16731009D01*
X3661904Y-16731009D02*
X3566666Y-16778628D01*
X3566666Y-16778628D02*
X3185714Y-16778628D01*
X4709523Y-17254819D02*
X4138095Y-17254819D01*
X4423809Y-17254819D02*
X4423809Y-16254819D01*
X4423809Y-16254819D02*
X4328571Y-16397676D01*
X4328571Y-16397676D02*
X4233333Y-16492914D01*
X4233333Y-16492914D02*
X4138095Y-16540533D01*
X5090476Y-16350057D02*
X5138095Y-16302438D01*
X5138095Y-16302438D02*
X5233333Y-16254819D01*
X5233333Y-16254819D02*
X5471428Y-16254819D01*
X5471428Y-16254819D02*
X5566666Y-16302438D01*
X5566666Y-16302438D02*
X5614285Y-16350057D01*
X5614285Y-16350057D02*
X5661904Y-16445295D01*
X5661904Y-16445295D02*
X5661904Y-16540533D01*
X5661904Y-16540533D02*
X5614285Y-16683390D01*
X5614285Y-16683390D02*
X5042857Y-17254819D01*
X5042857Y-17254819D02*
X5661904Y-17254819D01*
X27471905Y-3391819D02*
X28043333Y-3391819D01*
X27757619Y-4391819D02*
X27757619Y-3391819D01*
X28376667Y-4391819D02*
X28376667Y-3391819D01*
X28376667Y-3391819D02*
X28757619Y-3391819D01*
X28757619Y-3391819D02*
X28852857Y-3439438D01*
X28852857Y-3439438D02*
X28900476Y-3487057D01*
X28900476Y-3487057D02*
X28948095Y-3582295D01*
X28948095Y-3582295D02*
X28948095Y-3725152D01*
X28948095Y-3725152D02*
X28900476Y-3820390D01*
X28900476Y-3820390D02*
X28852857Y-3868009D01*
X28852857Y-3868009D02*
X28757619Y-3915628D01*
X28757619Y-3915628D02*
X28376667Y-3915628D01*
X29900476Y-4391819D02*
X29329048Y-4391819D01*
X29614762Y-4391819D02*
X29614762Y-3391819D01*
X29614762Y-3391819D02*
X29519524Y-3534676D01*
X29519524Y-3534676D02*
X29424286Y-3629914D01*
X29424286Y-3629914D02*
X29329048Y-3677533D01*
X30233810Y-3391819D02*
X30852857Y-3391819D01*
X30852857Y-3391819D02*
X30519524Y-3772771D01*
X30519524Y-3772771D02*
X30662381Y-3772771D01*
X30662381Y-3772771D02*
X30757619Y-3820390D01*
X30757619Y-3820390D02*
X30805238Y-3868009D01*
X30805238Y-3868009D02*
X30852857Y-3963247D01*
X30852857Y-3963247D02*
X30852857Y-4201342D01*
X30852857Y-4201342D02*
X30805238Y-4296580D01*
X30805238Y-4296580D02*
X30757619Y-4344200D01*
X30757619Y-4344200D02*
X30662381Y-4391819D01*
X30662381Y-4391819D02*
X30376667Y-4391819D01*
X30376667Y-4391819D02*
X30281429Y-4344200D01*
X30281429Y-4344200D02*
X30233810Y-4296580D01*
X-3008094Y6768180D02*
X-2436666Y6768180D01*
X-2722380Y5768180D02*
X-2722380Y6768180D01*
X-2103332Y5768180D02*
X-2103332Y6768180D01*
X-2103332Y6768180D02*
X-1722380Y6768180D01*
X-1722380Y6768180D02*
X-1627142Y6720561D01*
X-1627142Y6720561D02*
X-1579523Y6672942D01*
X-1579523Y6672942D02*
X-1531904Y6577704D01*
X-1531904Y6577704D02*
X-1531904Y6434847D01*
X-1531904Y6434847D02*
X-1579523Y6339609D01*
X-1579523Y6339609D02*
X-1627142Y6291990D01*
X-1627142Y6291990D02*
X-1722380Y6244371D01*
X-1722380Y6244371D02*
X-2103332Y6244371D01*
X-1150951Y6672942D02*
X-1103332Y6720561D01*
X-1103332Y6720561D02*
X-1008094Y6768180D01*
X-1008094Y6768180D02*
X-769999Y6768180D01*
X-769999Y6768180D02*
X-674761Y6720561D01*
X-674761Y6720561D02*
X-627142Y6672942D01*
X-627142Y6672942D02*
X-579523Y6577704D01*
X-579523Y6577704D02*
X-579523Y6482466D01*
X-579523Y6482466D02*
X-627142Y6339609D01*
X-627142Y6339609D02*
X-1198570Y5768180D01*
X-1198570Y5768180D02*
X-579523Y5768180D01*
X372857Y5768180D02*
X-198570Y5768180D01*
X87143Y5768180D02*
X87143Y6768180D01*
X87143Y6768180D02*
X-8094Y6625323D01*
X-8094Y6625323D02*
X-103332Y6530085D01*
X-103332Y6530085D02*
X-198570Y6482466D01*
X-30471904Y5498180D02*
X-29900476Y5498180D01*
X-30186190Y4498180D02*
X-30186190Y5498180D01*
X-29567142Y4498180D02*
X-29567142Y5498180D01*
X-29567142Y5498180D02*
X-29186190Y5498180D01*
X-29186190Y5498180D02*
X-29090952Y5450561D01*
X-29090952Y5450561D02*
X-29043333Y5402942D01*
X-29043333Y5402942D02*
X-28995714Y5307704D01*
X-28995714Y5307704D02*
X-28995714Y5164847D01*
X-28995714Y5164847D02*
X-29043333Y5069609D01*
X-29043333Y5069609D02*
X-29090952Y5021990D01*
X-29090952Y5021990D02*
X-29186190Y4974371D01*
X-29186190Y4974371D02*
X-29567142Y4974371D01*
X-28138571Y5498180D02*
X-28329047Y5498180D01*
X-28329047Y5498180D02*
X-28424285Y5450561D01*
X-28424285Y5450561D02*
X-28471904Y5402942D01*
X-28471904Y5402942D02*
X-28567142Y5260085D01*
X-28567142Y5260085D02*
X-28614761Y5069609D01*
X-28614761Y5069609D02*
X-28614761Y4688657D01*
X-28614761Y4688657D02*
X-28567142Y4593419D01*
X-28567142Y4593419D02*
X-28519523Y4545800D01*
X-28519523Y4545800D02*
X-28424285Y4498180D01*
X-28424285Y4498180D02*
X-28233809Y4498180D01*
X-28233809Y4498180D02*
X-28138571Y4545800D01*
X-28138571Y4545800D02*
X-28090952Y4593419D01*
X-28090952Y4593419D02*
X-28043333Y4688657D01*
X-28043333Y4688657D02*
X-28043333Y4926752D01*
X-28043333Y4926752D02*
X-28090952Y5021990D01*
X-28090952Y5021990D02*
X-28138571Y5069609D01*
X-28138571Y5069609D02*
X-28233809Y5117228D01*
X-28233809Y5117228D02*
X-28424285Y5117228D01*
X-28424285Y5117228D02*
X-28519523Y5069609D01*
X-28519523Y5069609D02*
X-28567142Y5021990D01*
X-28567142Y5021990D02*
X-28614761Y4926752D01*
X-20442857Y-22654819D02*
X-20776190Y-22178628D01*
X-21014285Y-22654819D02*
X-21014285Y-21654819D01*
X-21014285Y-21654819D02*
X-20633333Y-21654819D01*
X-20633333Y-21654819D02*
X-20538095Y-21702438D01*
X-20538095Y-21702438D02*
X-20490476Y-21750057D01*
X-20490476Y-21750057D02*
X-20442857Y-21845295D01*
X-20442857Y-21845295D02*
X-20442857Y-21988152D01*
X-20442857Y-21988152D02*
X-20490476Y-22083390D01*
X-20490476Y-22083390D02*
X-20538095Y-22131009D01*
X-20538095Y-22131009D02*
X-20633333Y-22178628D01*
X-20633333Y-22178628D02*
X-21014285Y-22178628D01*
X-20061904Y-21750057D02*
X-20014285Y-21702438D01*
X-20014285Y-21702438D02*
X-19919047Y-21654819D01*
X-19919047Y-21654819D02*
X-19680952Y-21654819D01*
X-19680952Y-21654819D02*
X-19585714Y-21702438D01*
X-19585714Y-21702438D02*
X-19538095Y-21750057D01*
X-19538095Y-21750057D02*
X-19490476Y-21845295D01*
X-19490476Y-21845295D02*
X-19490476Y-21940533D01*
X-19490476Y-21940533D02*
X-19538095Y-22083390D01*
X-19538095Y-22083390D02*
X-20109523Y-22654819D01*
X-20109523Y-22654819D02*
X-19490476Y-22654819D01*
X-18871428Y-21654819D02*
X-18776190Y-21654819D01*
X-18776190Y-21654819D02*
X-18680952Y-21702438D01*
X-18680952Y-21702438D02*
X-18633333Y-21750057D01*
X-18633333Y-21750057D02*
X-18585714Y-21845295D01*
X-18585714Y-21845295D02*
X-18538095Y-22035771D01*
X-18538095Y-22035771D02*
X-18538095Y-22273866D01*
X-18538095Y-22273866D02*
X-18585714Y-22464342D01*
X-18585714Y-22464342D02*
X-18633333Y-22559580D01*
X-18633333Y-22559580D02*
X-18680952Y-22607200D01*
X-18680952Y-22607200D02*
X-18776190Y-22654819D01*
X-18776190Y-22654819D02*
X-18871428Y-22654819D01*
X-18871428Y-22654819D02*
X-18966666Y-22607200D01*
X-18966666Y-22607200D02*
X-19014285Y-22559580D01*
X-19014285Y-22559580D02*
X-19061904Y-22464342D01*
X-19061904Y-22464342D02*
X-19109523Y-22273866D01*
X-19109523Y-22273866D02*
X-19109523Y-22035771D01*
X-19109523Y-22035771D02*
X-19061904Y-21845295D01*
X-19061904Y-21845295D02*
X-19014285Y-21750057D01*
X-19014285Y-21750057D02*
X-18966666Y-21702438D01*
X-18966666Y-21702438D02*
X-18871428Y-21654819D01*
X-13166666Y-15059580D02*
X-13214285Y-15107200D01*
X-13214285Y-15107200D02*
X-13357142Y-15154819D01*
X-13357142Y-15154819D02*
X-13452380Y-15154819D01*
X-13452380Y-15154819D02*
X-13595237Y-15107200D01*
X-13595237Y-15107200D02*
X-13690475Y-15011961D01*
X-13690475Y-15011961D02*
X-13738094Y-14916723D01*
X-13738094Y-14916723D02*
X-13785713Y-14726247D01*
X-13785713Y-14726247D02*
X-13785713Y-14583390D01*
X-13785713Y-14583390D02*
X-13738094Y-14392914D01*
X-13738094Y-14392914D02*
X-13690475Y-14297676D01*
X-13690475Y-14297676D02*
X-13595237Y-14202438D01*
X-13595237Y-14202438D02*
X-13452380Y-14154819D01*
X-13452380Y-14154819D02*
X-13357142Y-14154819D01*
X-13357142Y-14154819D02*
X-13214285Y-14202438D01*
X-13214285Y-14202438D02*
X-13166666Y-14250057D01*
X-12690475Y-15154819D02*
X-12499999Y-15154819D01*
X-12499999Y-15154819D02*
X-12404761Y-15107200D01*
X-12404761Y-15107200D02*
X-12357142Y-15059580D01*
X-12357142Y-15059580D02*
X-12261904Y-14916723D01*
X-12261904Y-14916723D02*
X-12214285Y-14726247D01*
X-12214285Y-14726247D02*
X-12214285Y-14345295D01*
X-12214285Y-14345295D02*
X-12261904Y-14250057D01*
X-12261904Y-14250057D02*
X-12309523Y-14202438D01*
X-12309523Y-14202438D02*
X-12404761Y-14154819D01*
X-12404761Y-14154819D02*
X-12595237Y-14154819D01*
X-12595237Y-14154819D02*
X-12690475Y-14202438D01*
X-12690475Y-14202438D02*
X-12738094Y-14250057D01*
X-12738094Y-14250057D02*
X-12785713Y-14345295D01*
X-12785713Y-14345295D02*
X-12785713Y-14583390D01*
X-12785713Y-14583390D02*
X-12738094Y-14678628D01*
X-12738094Y-14678628D02*
X-12690475Y-14726247D01*
X-12690475Y-14726247D02*
X-12595237Y-14773866D01*
X-12595237Y-14773866D02*
X-12404761Y-14773866D01*
X-12404761Y-14773866D02*
X-12309523Y-14726247D01*
X-12309523Y-14726247D02*
X-12261904Y-14678628D01*
X-12261904Y-14678628D02*
X-12214285Y-14583390D01*
X24304761Y16949942D02*
X24209523Y16997561D01*
X24209523Y16997561D02*
X24114285Y17092800D01*
X24114285Y17092800D02*
X23971428Y17235657D01*
X23971428Y17235657D02*
X23876190Y17283276D01*
X23876190Y17283276D02*
X23780952Y17283276D01*
X23828571Y17045180D02*
X23733333Y17092800D01*
X23733333Y17092800D02*
X23638095Y17188038D01*
X23638095Y17188038D02*
X23590476Y17378514D01*
X23590476Y17378514D02*
X23590476Y17711847D01*
X23590476Y17711847D02*
X23638095Y17902323D01*
X23638095Y17902323D02*
X23733333Y17997561D01*
X23733333Y17997561D02*
X23828571Y18045180D01*
X23828571Y18045180D02*
X24019047Y18045180D01*
X24019047Y18045180D02*
X24114285Y17997561D01*
X24114285Y17997561D02*
X24209523Y17902323D01*
X24209523Y17902323D02*
X24257142Y17711847D01*
X24257142Y17711847D02*
X24257142Y17378514D01*
X24257142Y17378514D02*
X24209523Y17188038D01*
X24209523Y17188038D02*
X24114285Y17092800D01*
X24114285Y17092800D02*
X24019047Y17045180D01*
X24019047Y17045180D02*
X23828571Y17045180D01*
X25209523Y17045180D02*
X24638095Y17045180D01*
X24923809Y17045180D02*
X24923809Y18045180D01*
X24923809Y18045180D02*
X24828571Y17902323D01*
X24828571Y17902323D02*
X24733333Y17807085D01*
X24733333Y17807085D02*
X24638095Y17759466D01*
X-442857Y-16654819D02*
X-776190Y-16178628D01*
X-1014285Y-16654819D02*
X-1014285Y-15654819D01*
X-1014285Y-15654819D02*
X-633333Y-15654819D01*
X-633333Y-15654819D02*
X-538095Y-15702438D01*
X-538095Y-15702438D02*
X-490476Y-15750057D01*
X-490476Y-15750057D02*
X-442857Y-15845295D01*
X-442857Y-15845295D02*
X-442857Y-15988152D01*
X-442857Y-15988152D02*
X-490476Y-16083390D01*
X-490476Y-16083390D02*
X-538095Y-16131009D01*
X-538095Y-16131009D02*
X-633333Y-16178628D01*
X-633333Y-16178628D02*
X-1014285Y-16178628D01*
X-61904Y-15750057D02*
X-14285Y-15702438D01*
X-14285Y-15702438D02*
X80952Y-15654819D01*
X80952Y-15654819D02*
X319047Y-15654819D01*
X319047Y-15654819D02*
X414285Y-15702438D01*
X414285Y-15702438D02*
X461904Y-15750057D01*
X461904Y-15750057D02*
X509523Y-15845295D01*
X509523Y-15845295D02*
X509523Y-15940533D01*
X509523Y-15940533D02*
X461904Y-16083390D01*
X461904Y-16083390D02*
X-109523Y-16654819D01*
X-109523Y-16654819D02*
X509523Y-16654819D01*
X1366666Y-15988152D02*
X1366666Y-16654819D01*
X1128571Y-15607200D02*
X890476Y-16321485D01*
X890476Y-16321485D02*
X1509523Y-16321485D01*
X5857142Y-12554819D02*
X5523809Y-12078628D01*
X5285714Y-12554819D02*
X5285714Y-11554819D01*
X5285714Y-11554819D02*
X5666666Y-11554819D01*
X5666666Y-11554819D02*
X5761904Y-11602438D01*
X5761904Y-11602438D02*
X5809523Y-11650057D01*
X5809523Y-11650057D02*
X5857142Y-11745295D01*
X5857142Y-11745295D02*
X5857142Y-11888152D01*
X5857142Y-11888152D02*
X5809523Y-11983390D01*
X5809523Y-11983390D02*
X5761904Y-12031009D01*
X5761904Y-12031009D02*
X5666666Y-12078628D01*
X5666666Y-12078628D02*
X5285714Y-12078628D01*
X6809523Y-12554819D02*
X6238095Y-12554819D01*
X6523809Y-12554819D02*
X6523809Y-11554819D01*
X6523809Y-11554819D02*
X6428571Y-11697676D01*
X6428571Y-11697676D02*
X6333333Y-11792914D01*
X6333333Y-11792914D02*
X6238095Y-11840533D01*
X7428571Y-11554819D02*
X7523809Y-11554819D01*
X7523809Y-11554819D02*
X7619047Y-11602438D01*
X7619047Y-11602438D02*
X7666666Y-11650057D01*
X7666666Y-11650057D02*
X7714285Y-11745295D01*
X7714285Y-11745295D02*
X7761904Y-11935771D01*
X7761904Y-11935771D02*
X7761904Y-12173866D01*
X7761904Y-12173866D02*
X7714285Y-12364342D01*
X7714285Y-12364342D02*
X7666666Y-12459580D01*
X7666666Y-12459580D02*
X7619047Y-12507200D01*
X7619047Y-12507200D02*
X7523809Y-12554819D01*
X7523809Y-12554819D02*
X7428571Y-12554819D01*
X7428571Y-12554819D02*
X7333333Y-12507200D01*
X7333333Y-12507200D02*
X7285714Y-12459580D01*
X7285714Y-12459580D02*
X7238095Y-12364342D01*
X7238095Y-12364342D02*
X7190476Y-12173866D01*
X7190476Y-12173866D02*
X7190476Y-11935771D01*
X7190476Y-11935771D02*
X7238095Y-11745295D01*
X7238095Y-11745295D02*
X7285714Y-11650057D01*
X7285714Y-11650057D02*
X7333333Y-11602438D01*
X7333333Y-11602438D02*
X7428571Y-11554819D01*
X-30948094Y-4661819D02*
X-30376666Y-4661819D01*
X-30662380Y-5661819D02*
X-30662380Y-4661819D01*
X-30043332Y-5661819D02*
X-30043332Y-4661819D01*
X-30043332Y-4661819D02*
X-29662380Y-4661819D01*
X-29662380Y-4661819D02*
X-29567142Y-4709438D01*
X-29567142Y-4709438D02*
X-29519523Y-4757057D01*
X-29519523Y-4757057D02*
X-29471904Y-4852295D01*
X-29471904Y-4852295D02*
X-29471904Y-4995152D01*
X-29471904Y-4995152D02*
X-29519523Y-5090390D01*
X-29519523Y-5090390D02*
X-29567142Y-5138009D01*
X-29567142Y-5138009D02*
X-29662380Y-5185628D01*
X-29662380Y-5185628D02*
X-30043332Y-5185628D01*
X-28519523Y-5661819D02*
X-29090951Y-5661819D01*
X-28805237Y-5661819D02*
X-28805237Y-4661819D01*
X-28805237Y-4661819D02*
X-28900475Y-4804676D01*
X-28900475Y-4804676D02*
X-28995713Y-4899914D01*
X-28995713Y-4899914D02*
X-29090951Y-4947533D01*
X-27900475Y-4661819D02*
X-27805237Y-4661819D01*
X-27805237Y-4661819D02*
X-27709999Y-4709438D01*
X-27709999Y-4709438D02*
X-27662380Y-4757057D01*
X-27662380Y-4757057D02*
X-27614761Y-4852295D01*
X-27614761Y-4852295D02*
X-27567142Y-5042771D01*
X-27567142Y-5042771D02*
X-27567142Y-5280866D01*
X-27567142Y-5280866D02*
X-27614761Y-5471342D01*
X-27614761Y-5471342D02*
X-27662380Y-5566580D01*
X-27662380Y-5566580D02*
X-27709999Y-5614200D01*
X-27709999Y-5614200D02*
X-27805237Y-5661819D01*
X-27805237Y-5661819D02*
X-27900475Y-5661819D01*
X-27900475Y-5661819D02*
X-27995713Y-5614200D01*
X-27995713Y-5614200D02*
X-28043332Y-5566580D01*
X-28043332Y-5566580D02*
X-28090951Y-5471342D01*
X-28090951Y-5471342D02*
X-28138570Y-5280866D01*
X-28138570Y-5280866D02*
X-28138570Y-5042771D01*
X-28138570Y-5042771D02*
X-28090951Y-4852295D01*
X-28090951Y-4852295D02*
X-28043332Y-4757057D01*
X-28043332Y-4757057D02*
X-27995713Y-4709438D01*
X-27995713Y-4709438D02*
X-27900475Y-4661819D01*
X-17366666Y11845180D02*
X-17699999Y12321371D01*
X-17938094Y11845180D02*
X-17938094Y12845180D01*
X-17938094Y12845180D02*
X-17557142Y12845180D01*
X-17557142Y12845180D02*
X-17461904Y12797561D01*
X-17461904Y12797561D02*
X-17414285Y12749942D01*
X-17414285Y12749942D02*
X-17366666Y12654704D01*
X-17366666Y12654704D02*
X-17366666Y12511847D01*
X-17366666Y12511847D02*
X-17414285Y12416609D01*
X-17414285Y12416609D02*
X-17461904Y12368990D01*
X-17461904Y12368990D02*
X-17557142Y12321371D01*
X-17557142Y12321371D02*
X-17938094Y12321371D01*
X-17033332Y12845180D02*
X-16414285Y12845180D01*
X-16414285Y12845180D02*
X-16747618Y12464228D01*
X-16747618Y12464228D02*
X-16604761Y12464228D01*
X-16604761Y12464228D02*
X-16509523Y12416609D01*
X-16509523Y12416609D02*
X-16461904Y12368990D01*
X-16461904Y12368990D02*
X-16414285Y12273752D01*
X-16414285Y12273752D02*
X-16414285Y12035657D01*
X-16414285Y12035657D02*
X-16461904Y11940419D01*
X-16461904Y11940419D02*
X-16509523Y11892800D01*
X-16509523Y11892800D02*
X-16604761Y11845180D01*
X-16604761Y11845180D02*
X-16890475Y11845180D01*
X-16890475Y11845180D02*
X-16985713Y11892800D01*
X-16985713Y11892800D02*
X-17033332Y11940419D01*
X-17142857Y-24154819D02*
X-17476190Y-23678628D01*
X-17714285Y-24154819D02*
X-17714285Y-23154819D01*
X-17714285Y-23154819D02*
X-17333333Y-23154819D01*
X-17333333Y-23154819D02*
X-17238095Y-23202438D01*
X-17238095Y-23202438D02*
X-17190476Y-23250057D01*
X-17190476Y-23250057D02*
X-17142857Y-23345295D01*
X-17142857Y-23345295D02*
X-17142857Y-23488152D01*
X-17142857Y-23488152D02*
X-17190476Y-23583390D01*
X-17190476Y-23583390D02*
X-17238095Y-23631009D01*
X-17238095Y-23631009D02*
X-17333333Y-23678628D01*
X-17333333Y-23678628D02*
X-17714285Y-23678628D01*
X-16761904Y-23250057D02*
X-16714285Y-23202438D01*
X-16714285Y-23202438D02*
X-16619047Y-23154819D01*
X-16619047Y-23154819D02*
X-16380952Y-23154819D01*
X-16380952Y-23154819D02*
X-16285714Y-23202438D01*
X-16285714Y-23202438D02*
X-16238095Y-23250057D01*
X-16238095Y-23250057D02*
X-16190476Y-23345295D01*
X-16190476Y-23345295D02*
X-16190476Y-23440533D01*
X-16190476Y-23440533D02*
X-16238095Y-23583390D01*
X-16238095Y-23583390D02*
X-16809523Y-24154819D01*
X-16809523Y-24154819D02*
X-16190476Y-24154819D01*
X-15809523Y-23250057D02*
X-15761904Y-23202438D01*
X-15761904Y-23202438D02*
X-15666666Y-23154819D01*
X-15666666Y-23154819D02*
X-15428571Y-23154819D01*
X-15428571Y-23154819D02*
X-15333333Y-23202438D01*
X-15333333Y-23202438D02*
X-15285714Y-23250057D01*
X-15285714Y-23250057D02*
X-15238095Y-23345295D01*
X-15238095Y-23345295D02*
X-15238095Y-23440533D01*
X-15238095Y-23440533D02*
X-15285714Y-23583390D01*
X-15285714Y-23583390D02*
X-15857142Y-24154819D01*
X-15857142Y-24154819D02*
X-15238095Y-24154819D01*
X6333333Y-14359580D02*
X6285714Y-14407200D01*
X6285714Y-14407200D02*
X6142857Y-14454819D01*
X6142857Y-14454819D02*
X6047619Y-14454819D01*
X6047619Y-14454819D02*
X5904762Y-14407200D01*
X5904762Y-14407200D02*
X5809524Y-14311961D01*
X5809524Y-14311961D02*
X5761905Y-14216723D01*
X5761905Y-14216723D02*
X5714286Y-14026247D01*
X5714286Y-14026247D02*
X5714286Y-13883390D01*
X5714286Y-13883390D02*
X5761905Y-13692914D01*
X5761905Y-13692914D02*
X5809524Y-13597676D01*
X5809524Y-13597676D02*
X5904762Y-13502438D01*
X5904762Y-13502438D02*
X6047619Y-13454819D01*
X6047619Y-13454819D02*
X6142857Y-13454819D01*
X6142857Y-13454819D02*
X6285714Y-13502438D01*
X6285714Y-13502438D02*
X6333333Y-13550057D01*
X6904762Y-13883390D02*
X6809524Y-13835771D01*
X6809524Y-13835771D02*
X6761905Y-13788152D01*
X6761905Y-13788152D02*
X6714286Y-13692914D01*
X6714286Y-13692914D02*
X6714286Y-13645295D01*
X6714286Y-13645295D02*
X6761905Y-13550057D01*
X6761905Y-13550057D02*
X6809524Y-13502438D01*
X6809524Y-13502438D02*
X6904762Y-13454819D01*
X6904762Y-13454819D02*
X7095238Y-13454819D01*
X7095238Y-13454819D02*
X7190476Y-13502438D01*
X7190476Y-13502438D02*
X7238095Y-13550057D01*
X7238095Y-13550057D02*
X7285714Y-13645295D01*
X7285714Y-13645295D02*
X7285714Y-13692914D01*
X7285714Y-13692914D02*
X7238095Y-13788152D01*
X7238095Y-13788152D02*
X7190476Y-13835771D01*
X7190476Y-13835771D02*
X7095238Y-13883390D01*
X7095238Y-13883390D02*
X6904762Y-13883390D01*
X6904762Y-13883390D02*
X6809524Y-13931009D01*
X6809524Y-13931009D02*
X6761905Y-13978628D01*
X6761905Y-13978628D02*
X6714286Y-14073866D01*
X6714286Y-14073866D02*
X6714286Y-14264342D01*
X6714286Y-14264342D02*
X6761905Y-14359580D01*
X6761905Y-14359580D02*
X6809524Y-14407200D01*
X6809524Y-14407200D02*
X6904762Y-14454819D01*
X6904762Y-14454819D02*
X7095238Y-14454819D01*
X7095238Y-14454819D02*
X7190476Y-14407200D01*
X7190476Y-14407200D02*
X7238095Y-14359580D01*
X7238095Y-14359580D02*
X7285714Y-14264342D01*
X7285714Y-14264342D02*
X7285714Y-14073866D01*
X7285714Y-14073866D02*
X7238095Y-13978628D01*
X7238095Y-13978628D02*
X7190476Y-13931009D01*
X7190476Y-13931009D02*
X7095238Y-13883390D01*
X-20442857Y-21154819D02*
X-20776190Y-20678628D01*
X-21014285Y-21154819D02*
X-21014285Y-20154819D01*
X-21014285Y-20154819D02*
X-20633333Y-20154819D01*
X-20633333Y-20154819D02*
X-20538095Y-20202438D01*
X-20538095Y-20202438D02*
X-20490476Y-20250057D01*
X-20490476Y-20250057D02*
X-20442857Y-20345295D01*
X-20442857Y-20345295D02*
X-20442857Y-20488152D01*
X-20442857Y-20488152D02*
X-20490476Y-20583390D01*
X-20490476Y-20583390D02*
X-20538095Y-20631009D01*
X-20538095Y-20631009D02*
X-20633333Y-20678628D01*
X-20633333Y-20678628D02*
X-21014285Y-20678628D01*
X-19490476Y-21154819D02*
X-20061904Y-21154819D01*
X-19776190Y-21154819D02*
X-19776190Y-20154819D01*
X-19776190Y-20154819D02*
X-19871428Y-20297676D01*
X-19871428Y-20297676D02*
X-19966666Y-20392914D01*
X-19966666Y-20392914D02*
X-20061904Y-20440533D01*
X-19014285Y-21154819D02*
X-18823809Y-21154819D01*
X-18823809Y-21154819D02*
X-18728571Y-21107200D01*
X-18728571Y-21107200D02*
X-18680952Y-21059580D01*
X-18680952Y-21059580D02*
X-18585714Y-20916723D01*
X-18585714Y-20916723D02*
X-18538095Y-20726247D01*
X-18538095Y-20726247D02*
X-18538095Y-20345295D01*
X-18538095Y-20345295D02*
X-18585714Y-20250057D01*
X-18585714Y-20250057D02*
X-18633333Y-20202438D01*
X-18633333Y-20202438D02*
X-18728571Y-20154819D01*
X-18728571Y-20154819D02*
X-18919047Y-20154819D01*
X-18919047Y-20154819D02*
X-19014285Y-20202438D01*
X-19014285Y-20202438D02*
X-19061904Y-20250057D01*
X-19061904Y-20250057D02*
X-19109523Y-20345295D01*
X-19109523Y-20345295D02*
X-19109523Y-20583390D01*
X-19109523Y-20583390D02*
X-19061904Y-20678628D01*
X-19061904Y-20678628D02*
X-19014285Y-20726247D01*
X-19014285Y-20726247D02*
X-18919047Y-20773866D01*
X-18919047Y-20773866D02*
X-18728571Y-20773866D01*
X-18728571Y-20773866D02*
X-18633333Y-20726247D01*
X-18633333Y-20726247D02*
X-18585714Y-20678628D01*
X-18585714Y-20678628D02*
X-18538095Y-20583390D01*
X-30471904Y-7201819D02*
X-29900476Y-7201819D01*
X-30186190Y-8201819D02*
X-30186190Y-7201819D01*
X-29567142Y-8201819D02*
X-29567142Y-7201819D01*
X-29567142Y-7201819D02*
X-29186190Y-7201819D01*
X-29186190Y-7201819D02*
X-29090952Y-7249438D01*
X-29090952Y-7249438D02*
X-29043333Y-7297057D01*
X-29043333Y-7297057D02*
X-28995714Y-7392295D01*
X-28995714Y-7392295D02*
X-28995714Y-7535152D01*
X-28995714Y-7535152D02*
X-29043333Y-7630390D01*
X-29043333Y-7630390D02*
X-29090952Y-7678009D01*
X-29090952Y-7678009D02*
X-29186190Y-7725628D01*
X-29186190Y-7725628D02*
X-29567142Y-7725628D01*
X-28662380Y-7201819D02*
X-28043333Y-7201819D01*
X-28043333Y-7201819D02*
X-28376666Y-7582771D01*
X-28376666Y-7582771D02*
X-28233809Y-7582771D01*
X-28233809Y-7582771D02*
X-28138571Y-7630390D01*
X-28138571Y-7630390D02*
X-28090952Y-7678009D01*
X-28090952Y-7678009D02*
X-28043333Y-7773247D01*
X-28043333Y-7773247D02*
X-28043333Y-8011342D01*
X-28043333Y-8011342D02*
X-28090952Y-8106580D01*
X-28090952Y-8106580D02*
X-28138571Y-8154200D01*
X-28138571Y-8154200D02*
X-28233809Y-8201819D01*
X-28233809Y-8201819D02*
X-28519523Y-8201819D01*
X-28519523Y-8201819D02*
X-28614761Y-8154200D01*
X-28614761Y-8154200D02*
X-28662380Y-8106580D01*
X6333333Y13640419D02*
X6285714Y13592800D01*
X6285714Y13592800D02*
X6142857Y13545180D01*
X6142857Y13545180D02*
X6047619Y13545180D01*
X6047619Y13545180D02*
X5904762Y13592800D01*
X5904762Y13592800D02*
X5809524Y13688038D01*
X5809524Y13688038D02*
X5761905Y13783276D01*
X5761905Y13783276D02*
X5714286Y13973752D01*
X5714286Y13973752D02*
X5714286Y14116609D01*
X5714286Y14116609D02*
X5761905Y14307085D01*
X5761905Y14307085D02*
X5809524Y14402323D01*
X5809524Y14402323D02*
X5904762Y14497561D01*
X5904762Y14497561D02*
X6047619Y14545180D01*
X6047619Y14545180D02*
X6142857Y14545180D01*
X6142857Y14545180D02*
X6285714Y14497561D01*
X6285714Y14497561D02*
X6333333Y14449942D01*
X7190476Y14545180D02*
X7000000Y14545180D01*
X7000000Y14545180D02*
X6904762Y14497561D01*
X6904762Y14497561D02*
X6857143Y14449942D01*
X6857143Y14449942D02*
X6761905Y14307085D01*
X6761905Y14307085D02*
X6714286Y14116609D01*
X6714286Y14116609D02*
X6714286Y13735657D01*
X6714286Y13735657D02*
X6761905Y13640419D01*
X6761905Y13640419D02*
X6809524Y13592800D01*
X6809524Y13592800D02*
X6904762Y13545180D01*
X6904762Y13545180D02*
X7095238Y13545180D01*
X7095238Y13545180D02*
X7190476Y13592800D01*
X7190476Y13592800D02*
X7238095Y13640419D01*
X7238095Y13640419D02*
X7285714Y13735657D01*
X7285714Y13735657D02*
X7285714Y13973752D01*
X7285714Y13973752D02*
X7238095Y14068990D01*
X7238095Y14068990D02*
X7190476Y14116609D01*
X7190476Y14116609D02*
X7095238Y14164228D01*
X7095238Y14164228D02*
X6904762Y14164228D01*
X6904762Y14164228D02*
X6809524Y14116609D01*
X6809524Y14116609D02*
X6761905Y14068990D01*
X6761905Y14068990D02*
X6714286Y13973752D01*
X-3008094Y4228180D02*
X-2436666Y4228180D01*
X-2722380Y3228180D02*
X-2722380Y4228180D01*
X-2103332Y3228180D02*
X-2103332Y4228180D01*
X-2103332Y4228180D02*
X-1722380Y4228180D01*
X-1722380Y4228180D02*
X-1627142Y4180561D01*
X-1627142Y4180561D02*
X-1579523Y4132942D01*
X-1579523Y4132942D02*
X-1531904Y4037704D01*
X-1531904Y4037704D02*
X-1531904Y3894847D01*
X-1531904Y3894847D02*
X-1579523Y3799609D01*
X-1579523Y3799609D02*
X-1627142Y3751990D01*
X-1627142Y3751990D02*
X-1722380Y3704371D01*
X-1722380Y3704371D02*
X-2103332Y3704371D01*
X-579523Y3228180D02*
X-1150951Y3228180D01*
X-865237Y3228180D02*
X-865237Y4228180D01*
X-865237Y4228180D02*
X-960475Y4085323D01*
X-960475Y4085323D02*
X-1055713Y3990085D01*
X-1055713Y3990085D02*
X-1150951Y3942466D01*
X-103332Y3228180D02*
X87143Y3228180D01*
X87143Y3228180D02*
X182381Y3275800D01*
X182381Y3275800D02*
X230000Y3323419D01*
X230000Y3323419D02*
X325238Y3466276D01*
X325238Y3466276D02*
X372857Y3656752D01*
X372857Y3656752D02*
X372857Y4037704D01*
X372857Y4037704D02*
X325238Y4132942D01*
X325238Y4132942D02*
X277619Y4180561D01*
X277619Y4180561D02*
X182381Y4228180D01*
X182381Y4228180D02*
X-8094Y4228180D01*
X-8094Y4228180D02*
X-103332Y4180561D01*
X-103332Y4180561D02*
X-150951Y4132942D01*
X-150951Y4132942D02*
X-198570Y4037704D01*
X-198570Y4037704D02*
X-198570Y3799609D01*
X-198570Y3799609D02*
X-150951Y3704371D01*
X-150951Y3704371D02*
X-103332Y3656752D01*
X-103332Y3656752D02*
X-8094Y3609133D01*
X-8094Y3609133D02*
X182381Y3609133D01*
X182381Y3609133D02*
X277619Y3656752D01*
X277619Y3656752D02*
X325238Y3704371D01*
X325238Y3704371D02*
X372857Y3799609D01*
X27471905Y1688180D02*
X28043333Y1688180D01*
X27757619Y688180D02*
X27757619Y1688180D01*
X28376667Y688180D02*
X28376667Y1688180D01*
X28376667Y1688180D02*
X28757619Y1688180D01*
X28757619Y1688180D02*
X28852857Y1640561D01*
X28852857Y1640561D02*
X28900476Y1592942D01*
X28900476Y1592942D02*
X28948095Y1497704D01*
X28948095Y1497704D02*
X28948095Y1354847D01*
X28948095Y1354847D02*
X28900476Y1259609D01*
X28900476Y1259609D02*
X28852857Y1211990D01*
X28852857Y1211990D02*
X28757619Y1164371D01*
X28757619Y1164371D02*
X28376667Y1164371D01*
X29900476Y688180D02*
X29329048Y688180D01*
X29614762Y688180D02*
X29614762Y1688180D01*
X29614762Y1688180D02*
X29519524Y1545323D01*
X29519524Y1545323D02*
X29424286Y1450085D01*
X29424286Y1450085D02*
X29329048Y1402466D01*
X30281429Y1592942D02*
X30329048Y1640561D01*
X30329048Y1640561D02*
X30424286Y1688180D01*
X30424286Y1688180D02*
X30662381Y1688180D01*
X30662381Y1688180D02*
X30757619Y1640561D01*
X30757619Y1640561D02*
X30805238Y1592942D01*
X30805238Y1592942D02*
X30852857Y1497704D01*
X30852857Y1497704D02*
X30852857Y1402466D01*
X30852857Y1402466D02*
X30805238Y1259609D01*
X30805238Y1259609D02*
X30233810Y688180D01*
X30233810Y688180D02*
X30852857Y688180D01*
X-32218094Y-21171819D02*
X-31646666Y-21171819D01*
X-31932380Y-22171819D02*
X-31932380Y-21171819D01*
X-31313332Y-22171819D02*
X-31313332Y-21171819D01*
X-31313332Y-21171819D02*
X-30932380Y-21171819D01*
X-30932380Y-21171819D02*
X-30837142Y-21219438D01*
X-30837142Y-21219438D02*
X-30789523Y-21267057D01*
X-30789523Y-21267057D02*
X-30741904Y-21362295D01*
X-30741904Y-21362295D02*
X-30741904Y-21505152D01*
X-30741904Y-21505152D02*
X-30789523Y-21600390D01*
X-30789523Y-21600390D02*
X-30837142Y-21648009D01*
X-30837142Y-21648009D02*
X-30932380Y-21695628D01*
X-30932380Y-21695628D02*
X-31313332Y-21695628D01*
X-29789523Y-22171819D02*
X-30360951Y-22171819D01*
X-30075237Y-22171819D02*
X-30075237Y-21171819D01*
X-30075237Y-21171819D02*
X-30170475Y-21314676D01*
X-30170475Y-21314676D02*
X-30265713Y-21409914D01*
X-30265713Y-21409914D02*
X-30360951Y-21457533D01*
X-28932380Y-21505152D02*
X-28932380Y-22171819D01*
X-29170475Y-21124200D02*
X-29408570Y-21838485D01*
X-29408570Y-21838485D02*
X-28789523Y-21838485D01*
X-26842857Y-24154819D02*
X-27176190Y-23678628D01*
X-27414285Y-24154819D02*
X-27414285Y-23154819D01*
X-27414285Y-23154819D02*
X-27033333Y-23154819D01*
X-27033333Y-23154819D02*
X-26938095Y-23202438D01*
X-26938095Y-23202438D02*
X-26890476Y-23250057D01*
X-26890476Y-23250057D02*
X-26842857Y-23345295D01*
X-26842857Y-23345295D02*
X-26842857Y-23488152D01*
X-26842857Y-23488152D02*
X-26890476Y-23583390D01*
X-26890476Y-23583390D02*
X-26938095Y-23631009D01*
X-26938095Y-23631009D02*
X-27033333Y-23678628D01*
X-27033333Y-23678628D02*
X-27414285Y-23678628D01*
X-26461904Y-23250057D02*
X-26414285Y-23202438D01*
X-26414285Y-23202438D02*
X-26319047Y-23154819D01*
X-26319047Y-23154819D02*
X-26080952Y-23154819D01*
X-26080952Y-23154819D02*
X-25985714Y-23202438D01*
X-25985714Y-23202438D02*
X-25938095Y-23250057D01*
X-25938095Y-23250057D02*
X-25890476Y-23345295D01*
X-25890476Y-23345295D02*
X-25890476Y-23440533D01*
X-25890476Y-23440533D02*
X-25938095Y-23583390D01*
X-25938095Y-23583390D02*
X-26509523Y-24154819D01*
X-26509523Y-24154819D02*
X-25890476Y-24154819D01*
X-24938095Y-24154819D02*
X-25509523Y-24154819D01*
X-25223809Y-24154819D02*
X-25223809Y-23154819D01*
X-25223809Y-23154819D02*
X-25319047Y-23297676D01*
X-25319047Y-23297676D02*
X-25414285Y-23392914D01*
X-25414285Y-23392914D02*
X-25509523Y-23440533D01*
X-3008094Y1688180D02*
X-2436666Y1688180D01*
X-2722380Y688180D02*
X-2722380Y1688180D01*
X-2103332Y688180D02*
X-2103332Y1688180D01*
X-2103332Y1688180D02*
X-1722380Y1688180D01*
X-1722380Y1688180D02*
X-1627142Y1640561D01*
X-1627142Y1640561D02*
X-1579523Y1592942D01*
X-1579523Y1592942D02*
X-1531904Y1497704D01*
X-1531904Y1497704D02*
X-1531904Y1354847D01*
X-1531904Y1354847D02*
X-1579523Y1259609D01*
X-1579523Y1259609D02*
X-1627142Y1211990D01*
X-1627142Y1211990D02*
X-1722380Y1164371D01*
X-1722380Y1164371D02*
X-2103332Y1164371D01*
X-1150951Y1592942D02*
X-1103332Y1640561D01*
X-1103332Y1640561D02*
X-1008094Y1688180D01*
X-1008094Y1688180D02*
X-769999Y1688180D01*
X-769999Y1688180D02*
X-674761Y1640561D01*
X-674761Y1640561D02*
X-627142Y1592942D01*
X-627142Y1592942D02*
X-579523Y1497704D01*
X-579523Y1497704D02*
X-579523Y1402466D01*
X-579523Y1402466D02*
X-627142Y1259609D01*
X-627142Y1259609D02*
X-1198570Y688180D01*
X-1198570Y688180D02*
X-579523Y688180D01*
X-198570Y1592942D02*
X-150951Y1640561D01*
X-150951Y1640561D02*
X-55713Y1688180D01*
X-55713Y1688180D02*
X182381Y1688180D01*
X182381Y1688180D02*
X277619Y1640561D01*
X277619Y1640561D02*
X325238Y1592942D01*
X325238Y1592942D02*
X372857Y1497704D01*
X372857Y1497704D02*
X372857Y1402466D01*
X372857Y1402466D02*
X325238Y1259609D01*
X325238Y1259609D02*
X-246189Y688180D01*
X-246189Y688180D02*
X372857Y688180D01*
X-3008094Y-851819D02*
X-2436666Y-851819D01*
X-2722380Y-1851819D02*
X-2722380Y-851819D01*
X-2103332Y-1851819D02*
X-2103332Y-851819D01*
X-2103332Y-851819D02*
X-1722380Y-851819D01*
X-1722380Y-851819D02*
X-1627142Y-899438D01*
X-1627142Y-899438D02*
X-1579523Y-947057D01*
X-1579523Y-947057D02*
X-1531904Y-1042295D01*
X-1531904Y-1042295D02*
X-1531904Y-1185152D01*
X-1531904Y-1185152D02*
X-1579523Y-1280390D01*
X-1579523Y-1280390D02*
X-1627142Y-1328009D01*
X-1627142Y-1328009D02*
X-1722380Y-1375628D01*
X-1722380Y-1375628D02*
X-2103332Y-1375628D01*
X-1150951Y-947057D02*
X-1103332Y-899438D01*
X-1103332Y-899438D02*
X-1008094Y-851819D01*
X-1008094Y-851819D02*
X-769999Y-851819D01*
X-769999Y-851819D02*
X-674761Y-899438D01*
X-674761Y-899438D02*
X-627142Y-947057D01*
X-627142Y-947057D02*
X-579523Y-1042295D01*
X-579523Y-1042295D02*
X-579523Y-1137533D01*
X-579523Y-1137533D02*
X-627142Y-1280390D01*
X-627142Y-1280390D02*
X-1198570Y-1851819D01*
X-1198570Y-1851819D02*
X-579523Y-1851819D01*
X39524Y-851819D02*
X134762Y-851819D01*
X134762Y-851819D02*
X230000Y-899438D01*
X230000Y-899438D02*
X277619Y-947057D01*
X277619Y-947057D02*
X325238Y-1042295D01*
X325238Y-1042295D02*
X372857Y-1232771D01*
X372857Y-1232771D02*
X372857Y-1470866D01*
X372857Y-1470866D02*
X325238Y-1661342D01*
X325238Y-1661342D02*
X277619Y-1756580D01*
X277619Y-1756580D02*
X230000Y-1804200D01*
X230000Y-1804200D02*
X134762Y-1851819D01*
X134762Y-1851819D02*
X39524Y-1851819D01*
X39524Y-1851819D02*
X-55713Y-1804200D01*
X-55713Y-1804200D02*
X-103332Y-1756580D01*
X-103332Y-1756580D02*
X-150951Y-1661342D01*
X-150951Y-1661342D02*
X-198570Y-1470866D01*
X-198570Y-1470866D02*
X-198570Y-1232771D01*
X-198570Y-1232771D02*
X-150951Y-1042295D01*
X-150951Y-1042295D02*
X-103332Y-947057D01*
X-103332Y-947057D02*
X-55713Y-899438D01*
X-55713Y-899438D02*
X39524Y-851819D01*
X6333333Y8145180D02*
X6000000Y8621371D01*
X5761905Y8145180D02*
X5761905Y9145180D01*
X5761905Y9145180D02*
X6142857Y9145180D01*
X6142857Y9145180D02*
X6238095Y9097561D01*
X6238095Y9097561D02*
X6285714Y9049942D01*
X6285714Y9049942D02*
X6333333Y8954704D01*
X6333333Y8954704D02*
X6333333Y8811847D01*
X6333333Y8811847D02*
X6285714Y8716609D01*
X6285714Y8716609D02*
X6238095Y8668990D01*
X6238095Y8668990D02*
X6142857Y8621371D01*
X6142857Y8621371D02*
X5761905Y8621371D01*
X7238095Y9145180D02*
X6761905Y9145180D01*
X6761905Y9145180D02*
X6714286Y8668990D01*
X6714286Y8668990D02*
X6761905Y8716609D01*
X6761905Y8716609D02*
X6857143Y8764228D01*
X6857143Y8764228D02*
X7095238Y8764228D01*
X7095238Y8764228D02*
X7190476Y8716609D01*
X7190476Y8716609D02*
X7238095Y8668990D01*
X7238095Y8668990D02*
X7285714Y8573752D01*
X7285714Y8573752D02*
X7285714Y8335657D01*
X7285714Y8335657D02*
X7238095Y8240419D01*
X7238095Y8240419D02*
X7190476Y8192800D01*
X7190476Y8192800D02*
X7095238Y8145180D01*
X7095238Y8145180D02*
X6857143Y8145180D01*
X6857143Y8145180D02*
X6761905Y8192800D01*
X6761905Y8192800D02*
X6714286Y8240419D01*
X-30471904Y10578180D02*
X-29900476Y10578180D01*
X-30186190Y9578180D02*
X-30186190Y10578180D01*
X-29567142Y9578180D02*
X-29567142Y10578180D01*
X-29567142Y10578180D02*
X-29186190Y10578180D01*
X-29186190Y10578180D02*
X-29090952Y10530561D01*
X-29090952Y10530561D02*
X-29043333Y10482942D01*
X-29043333Y10482942D02*
X-28995714Y10387704D01*
X-28995714Y10387704D02*
X-28995714Y10244847D01*
X-28995714Y10244847D02*
X-29043333Y10149609D01*
X-29043333Y10149609D02*
X-29090952Y10101990D01*
X-29090952Y10101990D02*
X-29186190Y10054371D01*
X-29186190Y10054371D02*
X-29567142Y10054371D01*
X-28138571Y10244847D02*
X-28138571Y9578180D01*
X-28376666Y10625800D02*
X-28614761Y9911514D01*
X-28614761Y9911514D02*
X-27995714Y9911514D01*
D12*
X22400000Y13100000D02*
X16800000Y13100000D01*
X22400000Y7900000D02*
X17600000Y7900000D01*
X-18450000Y16450000D02*
X-19950000Y16450000D01*
X-18450000Y16450000D02*
X-18450000Y13150000D01*
X-19950000Y16450000D02*
X-19950000Y13150000D01*
X-19200000Y14900000D02*
X-19000000Y14700000D01*
X-19000000Y14700000D02*
X-19400000Y14700000D01*
X-19400000Y14700000D02*
X-19200000Y14900000D01*
X-18450000Y13150000D02*
X-19950000Y13150000D01*
X-7950000Y-23050000D02*
X-7950000Y-24550000D01*
X-7950000Y-23050000D02*
X-4650000Y-23050000D01*
X-7950000Y-24550000D02*
X-4650000Y-24550000D01*
X-6400000Y-23800000D02*
X-6200000Y-23600000D01*
X-6200000Y-23600000D02*
X-6200000Y-24000000D01*
X-6200000Y-24000000D02*
X-6400000Y-23800000D01*
X-4650000Y-23050000D02*
X-4650000Y-24550000D01*
X8350000Y2650000D02*
X8350000Y1150000D01*
X8350000Y2650000D02*
X11650000Y2650000D01*
X8350000Y1150000D02*
X11650000Y1150000D01*
X9900000Y1900000D02*
X10100000Y2100000D01*
X10100000Y2100000D02*
X10100000Y1700000D01*
X10100000Y1700000D02*
X9900000Y1900000D01*
X11650000Y2650000D02*
X11650000Y1150000D01*
X10152500Y20062500D02*
X10152500Y20850000D01*
X9758750Y20456250D02*
X10546250Y20456250D01*
X9654437Y21090000D02*
X10940000Y21090000D01*
X9654437Y21090000D02*
X8590000Y22154437D01*
X14345563Y21090000D02*
X13060000Y21090000D01*
X14345563Y21090000D02*
X15410000Y22154437D01*
X8590000Y22154437D02*
X8590000Y27910000D01*
X15410000Y22154437D02*
X15410000Y27910000D01*
X8590000Y27910000D02*
X10940000Y27910000D01*
X15410000Y27910000D02*
X13060000Y27910000D01*
X5140000Y22155000D02*
X5140000Y29355000D01*
X5140000Y22155000D02*
X-5140000Y22155000D01*
X-5140000Y22155000D02*
X-5140000Y29355000D01*
X-25650000Y-2450000D02*
X-25650000Y-3950000D01*
X-25650000Y-2450000D02*
X-22350000Y-2450000D01*
X-25650000Y-3950000D02*
X-22350000Y-3950000D01*
X-24100000Y-3200000D02*
X-23900000Y-3000000D01*
X-23900000Y-3000000D02*
X-23900000Y-3400000D01*
X-23900000Y-3400000D02*
X-24100000Y-3200000D01*
X-22350000Y-2450000D02*
X-22350000Y-3950000D01*
X22400000Y-14900000D02*
X16800000Y-14900000D01*
X22400000Y-20100000D02*
X17600000Y-20100000D01*
X-5200000Y13140000D02*
X-3200000Y13140000D01*
X-5200000Y13140000D02*
X-5200000Y17150000D01*
X-3200000Y13140000D02*
X-3200000Y17150000D01*
X22400000Y-900000D02*
X16800000Y-900000D01*
X22400000Y-6100000D02*
X17600000Y-6100000D01*
X-23750000Y24650000D02*
X-23750000Y26150000D01*
X-23750000Y24650000D02*
X-27050000Y24650000D01*
X-23750000Y26150000D02*
X-27050000Y26150000D01*
X-25300000Y25400000D02*
X-25500000Y25200000D01*
X-25500000Y25200000D02*
X-25500000Y25600000D01*
X-25500000Y25600000D02*
X-25300000Y25400000D01*
X-27050000Y24650000D02*
X-27050000Y26150000D01*
X-5650000Y16450000D02*
X-7150000Y16450000D01*
X-5650000Y16450000D02*
X-5650000Y13150000D01*
X-7150000Y16450000D02*
X-7150000Y13150000D01*
X-6400000Y14900000D02*
X-6200000Y14700000D01*
X-6200000Y14700000D02*
X-6600000Y14700000D01*
X-6600000Y14700000D02*
X-6400000Y14900000D01*
X-5650000Y13150000D02*
X-7150000Y13150000D01*
X-21350000Y-16950000D02*
X-21350000Y-15450000D01*
X-21350000Y-16950000D02*
X-24650000Y-16950000D01*
X-21350000Y-15450000D02*
X-24650000Y-15450000D01*
X-22900000Y-16200000D02*
X-23100000Y-16400000D01*
X-23100000Y-16400000D02*
X-23100000Y-16000000D01*
X-23100000Y-16000000D02*
X-22900000Y-16200000D01*
X-24650000Y-16950000D02*
X-24650000Y-15450000D01*
X-27050000Y27650000D02*
X-27050000Y26150000D01*
X-27050000Y27650000D02*
X-23750000Y27650000D01*
X-27050000Y26150000D02*
X-23750000Y26150000D01*
X-25500000Y26900000D02*
X-25300000Y27100000D01*
X-25300000Y27100000D02*
X-25300000Y26700000D01*
X-25300000Y26700000D02*
X-25500000Y26900000D01*
X-23750000Y27650000D02*
X-23750000Y26150000D01*
X-10050000Y16450000D02*
X-11550000Y16450000D01*
X-10050000Y16450000D02*
X-10050000Y13150000D01*
X-11550000Y16450000D02*
X-11550000Y13150000D01*
X-10800000Y14900000D02*
X-10600000Y14700000D01*
X-10600000Y14700000D02*
X-11000000Y14700000D01*
X-11000000Y14700000D02*
X-10800000Y14900000D01*
X-10050000Y13150000D02*
X-11550000Y13150000D01*
X-22350000Y-2450000D02*
X-22350000Y-950000D01*
X-22350000Y-2450000D02*
X-25650000Y-2450000D01*
X-22350000Y-950000D02*
X-25650000Y-950000D01*
X-23900000Y-1700000D02*
X-24100000Y-1900000D01*
X-24100000Y-1900000D02*
X-24100000Y-1500000D01*
X-24100000Y-1500000D02*
X-23900000Y-1700000D01*
X-25650000Y-2450000D02*
X-25650000Y-950000D01*
X-1350000Y-19950000D02*
X-1350000Y-18450000D01*
X-1350000Y-19950000D02*
X-4650000Y-19950000D01*
X-1350000Y-18450000D02*
X-4650000Y-18450000D01*
X-2900000Y-19200000D02*
X-3100000Y-19400000D01*
X-3100000Y-19400000D02*
X-3100000Y-19000000D01*
X-3100000Y-19000000D02*
X-2900000Y-19200000D01*
X-4650000Y-19950000D02*
X-4650000Y-18450000D01*
X8350000Y-18650000D02*
X8350000Y-20150000D01*
X8350000Y-18650000D02*
X11650000Y-18650000D01*
X8350000Y-20150000D02*
X11650000Y-20150000D01*
X9900000Y-19400000D02*
X10100000Y-19200000D01*
X10100000Y-19200000D02*
X10100000Y-19600000D01*
X10100000Y-19600000D02*
X9900000Y-19400000D01*
X11650000Y-18650000D02*
X11650000Y-20150000D01*
X-4650000Y-15450000D02*
X-4650000Y-13950000D01*
X-4650000Y-15450000D02*
X-7950000Y-15450000D01*
X-4650000Y-13950000D02*
X-7950000Y-13950000D01*
X-6200000Y-14700000D02*
X-6400000Y-14900000D01*
X-6400000Y-14900000D02*
X-6400000Y-14500000D01*
X-6400000Y-14500000D02*
X-6200000Y-14700000D01*
X-7950000Y-15450000D02*
X-7950000Y-13950000D01*
X11850000Y-950000D02*
X11850000Y950000D01*
X11850000Y-950000D02*
X8150000Y-950000D01*
X11850000Y950000D02*
X8150000Y950000D01*
X10100000Y0D02*
X9900000Y-200000D01*
X9900000Y-200000D02*
X9900000Y200000D01*
X9900000Y200000D02*
X10100000Y0D01*
X8150000Y-950000D02*
X8150000Y950000D01*
X-14450000Y16450000D02*
X-15950000Y16450000D01*
X-14450000Y16450000D02*
X-14450000Y13150000D01*
X-15950000Y16450000D02*
X-15950000Y13150000D01*
X-15200000Y14900000D02*
X-15000000Y14700000D01*
X-15000000Y14700000D02*
X-15400000Y14700000D01*
X-15400000Y14700000D02*
X-15200000Y14900000D01*
X-14450000Y13150000D02*
X-15950000Y13150000D01*
X8350000Y-4650000D02*
X8350000Y-6150000D01*
X8350000Y-4650000D02*
X11650000Y-4650000D01*
X8350000Y-6150000D02*
X11650000Y-6150000D01*
X9900000Y-5400000D02*
X10100000Y-5200000D01*
X10100000Y-5200000D02*
X10100000Y-5600000D01*
X10100000Y-5600000D02*
X9900000Y-5400000D01*
X11650000Y-4650000D02*
X11650000Y-6150000D01*
X-4650000Y-16950000D02*
X-4650000Y-18450000D01*
X-4650000Y-16950000D02*
X-1350000Y-16950000D01*
X-4650000Y-18450000D02*
X-1350000Y-18450000D01*
X-3100000Y-17700000D02*
X-2900000Y-17500000D01*
X-2900000Y-17500000D02*
X-2900000Y-17900000D01*
X-2900000Y-17900000D02*
X-3100000Y-17700000D01*
X-1350000Y-16950000D02*
X-1350000Y-18450000D01*
X-16900000Y9100000D02*
X-16900000Y8800000D01*
X-16900000Y-9100000D02*
X-16900000Y-8815000D01*
X-13000000Y9100000D02*
X-16900000Y9100000D01*
X-13000000Y9100000D02*
X-9100000Y9100000D01*
X-13000000Y-9100000D02*
X-16900000Y-9100000D01*
X-13000000Y-9100000D02*
X-9100000Y-9100000D01*
X-9100000Y9100000D02*
X-9100000Y8800000D01*
X-9100000Y-9100000D02*
X-9100000Y-8815000D01*
D11*
X-19123000Y8255000D02*
G75*
G03*
X-19123000Y8255000I-100000J0D01*
G01*
D12*
X-9600000Y13140000D02*
X-7600000Y13140000D01*
X-9600000Y13140000D02*
X-9600000Y17150000D01*
X-7600000Y13140000D02*
X-7600000Y17150000D01*
X8350000Y16650000D02*
X8350000Y15150000D01*
X8350000Y16650000D02*
X11650000Y16650000D01*
X8350000Y15150000D02*
X11650000Y15150000D01*
X9900000Y15900000D02*
X10100000Y16100000D01*
X10100000Y16100000D02*
X10100000Y15700000D01*
X10100000Y15700000D02*
X9900000Y15900000D01*
X11650000Y16650000D02*
X11650000Y15150000D01*
X-21350000Y-19950000D02*
X-21350000Y-18450000D01*
X-21350000Y-19950000D02*
X-24650000Y-19950000D01*
X-21350000Y-18450000D02*
X-24650000Y-18450000D01*
X-22900000Y-19200000D02*
X-23100000Y-19400000D01*
X-23100000Y-19400000D02*
X-23100000Y-19000000D01*
X-23100000Y-19000000D02*
X-22900000Y-19200000D01*
X-24650000Y-19950000D02*
X-24650000Y-18450000D01*
X-7950000Y-15450000D02*
X-7950000Y-16950000D01*
X-7950000Y-15450000D02*
X-4650000Y-15450000D01*
X-7950000Y-16950000D02*
X-4650000Y-16950000D01*
X-6400000Y-16200000D02*
X-6200000Y-16000000D01*
X-6200000Y-16000000D02*
X-6200000Y-16400000D01*
X-6200000Y-16400000D02*
X-6400000Y-16200000D01*
X-4650000Y-15450000D02*
X-4650000Y-16950000D01*
X22400000Y6100000D02*
X16800000Y6100000D01*
X22400000Y900000D02*
X17600000Y900000D01*
X22400000Y-7900000D02*
X16800000Y-7900000D01*
X22400000Y-13100000D02*
X17600000Y-13100000D01*
X-4650000Y-26050000D02*
X-4650000Y-24550000D01*
X-4650000Y-26050000D02*
X-7950000Y-26050000D01*
X-4650000Y-24550000D02*
X-7950000Y-24550000D01*
X-6200000Y-25300000D02*
X-6400000Y-25500000D01*
X-6400000Y-25500000D02*
X-6400000Y-25100000D01*
X-6400000Y-25100000D02*
X-6200000Y-25300000D01*
X-7950000Y-26050000D02*
X-7950000Y-24550000D01*
X11800000Y9490000D02*
X8200000Y9490000D01*
X11800000Y12910000D02*
X8200000Y12910000D01*
X-18050000Y-25950000D02*
X-18050000Y-24450000D01*
X-18050000Y-25950000D02*
X-21350000Y-25950000D01*
X-18050000Y-24450000D02*
X-21350000Y-24450000D01*
X-19600000Y-25200000D02*
X-19800000Y-25400000D01*
X-19800000Y-25400000D02*
X-19800000Y-25000000D01*
X-19800000Y-25000000D02*
X-19600000Y-25200000D01*
X-21350000Y-25950000D02*
X-21350000Y-24450000D01*
X32155000Y-7680000D02*
X39455000Y-7680000D01*
X32155000Y-7680000D02*
X32155000Y7680000D01*
X32155000Y7680000D02*
X39355000Y7680000D01*
X11800000Y-4510000D02*
X8200000Y-4510000D01*
X11800000Y-1090000D02*
X8200000Y-1090000D01*
X-15300000Y-17390000D02*
X-15300000Y-17600000D01*
X-15300000Y-17390000D02*
X-13000000Y-17390000D01*
X-15300000Y-22400000D02*
X-15300000Y-22610000D01*
X-13000000Y-17390000D02*
X-10700000Y-17390000D01*
X-13000000Y-22610000D02*
X-15300000Y-22610000D01*
X-13000000Y-22610000D02*
X-10700000Y-22610000D01*
X-10700000Y-17390000D02*
X-10700000Y-17600000D01*
X-10700000Y-22400000D02*
X-10700000Y-22610000D01*
D11*
X-17000000Y-18050000D02*
G75*
G03*
X-17000000Y-18050000I-100000J0D01*
G01*
D12*
X-18050000Y-15450000D02*
X-18050000Y-13950000D01*
X-18050000Y-15450000D02*
X-21350000Y-15450000D01*
X-18050000Y-13950000D02*
X-21350000Y-13950000D01*
X-19600000Y-14700000D02*
X-19800000Y-14900000D01*
X-19800000Y-14900000D02*
X-19800000Y-14500000D01*
X-19800000Y-14500000D02*
X-19600000Y-14700000D01*
X-21350000Y-15450000D02*
X-21350000Y-13950000D01*
X-21350000Y-15450000D02*
X-21350000Y-16950000D01*
X-21350000Y-15450000D02*
X-18050000Y-15450000D01*
X-21350000Y-16950000D02*
X-18050000Y-16950000D01*
X-19800000Y-16200000D02*
X-19600000Y-16000000D01*
X-19600000Y-16000000D02*
X-19600000Y-16400000D01*
X-19600000Y-16400000D02*
X-19800000Y-16200000D01*
X-18050000Y-15450000D02*
X-18050000Y-16950000D01*
X-14000000Y13140000D02*
X-12000000Y13140000D01*
X-14000000Y13140000D02*
X-14000000Y17150000D01*
X-12000000Y13140000D02*
X-12000000Y17150000D01*
X-24650000Y-16950000D02*
X-24650000Y-18450000D01*
X-24650000Y-16950000D02*
X-21350000Y-16950000D01*
X-24650000Y-18450000D02*
X-21350000Y-18450000D01*
X-23100000Y-17700000D02*
X-22900000Y-17500000D01*
X-22900000Y-17500000D02*
X-22900000Y-17900000D01*
X-22900000Y-17900000D02*
X-23100000Y-17700000D01*
X-21350000Y-16950000D02*
X-21350000Y-18450000D01*
X11800000Y-18510000D02*
X8200000Y-18510000D01*
X11800000Y-15090000D02*
X8200000Y-15090000D01*
X-24650000Y-21450000D02*
X-24650000Y-22950000D01*
X-24650000Y-21450000D02*
X-21350000Y-21450000D01*
X-24650000Y-22950000D02*
X-21350000Y-22950000D01*
X-23100000Y-22200000D02*
X-22900000Y-22000000D01*
X-22900000Y-22000000D02*
X-22900000Y-22400000D01*
X-22900000Y-22400000D02*
X-23100000Y-22200000D01*
X-21350000Y-21450000D02*
X-21350000Y-22950000D01*
X-14650000Y-15450000D02*
X-14650000Y-16950000D01*
X-14650000Y-15450000D02*
X-11350000Y-15450000D01*
X-14650000Y-16950000D02*
X-11350000Y-16950000D01*
X-13100000Y-16200000D02*
X-12900000Y-16000000D01*
X-12900000Y-16000000D02*
X-12900000Y-16400000D01*
X-12900000Y-16400000D02*
X-13100000Y-16200000D01*
X-11350000Y-15450000D02*
X-11350000Y-16950000D01*
X22400000Y20100000D02*
X16800000Y20100000D01*
X22400000Y14900000D02*
X17600000Y14900000D01*
X-1350000Y-16950000D02*
X-1350000Y-15450000D01*
X-1350000Y-16950000D02*
X-4650000Y-16950000D01*
X-1350000Y-15450000D02*
X-4650000Y-15450000D01*
X-2900000Y-16200000D02*
X-3100000Y-16400000D01*
X-3100000Y-16400000D02*
X-3100000Y-16000000D01*
X-3100000Y-16000000D02*
X-2900000Y-16200000D01*
X-4650000Y-16950000D02*
X-4650000Y-15450000D01*
X8350000Y-11350000D02*
X8350000Y-12850000D01*
X8350000Y-11350000D02*
X11650000Y-11350000D01*
X8350000Y-12850000D02*
X11650000Y-12850000D01*
X9900000Y-12100000D02*
X10100000Y-11900000D01*
X10100000Y-11900000D02*
X10100000Y-12300000D01*
X10100000Y-12300000D02*
X9900000Y-12100000D01*
X11650000Y-11350000D02*
X11650000Y-12850000D01*
X-16450000Y16450000D02*
X-17950000Y16450000D01*
X-16450000Y16450000D02*
X-16450000Y13150000D01*
X-17950000Y16450000D02*
X-17950000Y13150000D01*
X-17200000Y14900000D02*
X-17000000Y14700000D01*
X-17000000Y14700000D02*
X-17400000Y14700000D01*
X-17400000Y14700000D02*
X-17200000Y14900000D01*
X-16450000Y13150000D02*
X-17950000Y13150000D01*
X-21350000Y-22950000D02*
X-21350000Y-24450000D01*
X-21350000Y-22950000D02*
X-18050000Y-22950000D01*
X-21350000Y-24450000D02*
X-18050000Y-24450000D01*
X-19800000Y-23700000D02*
X-19600000Y-23500000D01*
X-19600000Y-23500000D02*
X-19600000Y-23900000D01*
X-19600000Y-23900000D02*
X-19800000Y-23700000D01*
X-18050000Y-22950000D02*
X-18050000Y-24450000D01*
X11850000Y-14950000D02*
X11850000Y-13050000D01*
X11850000Y-14950000D02*
X8150000Y-14950000D01*
X11850000Y-13050000D02*
X8150000Y-13050000D01*
X10100000Y-14000000D02*
X9900000Y-14200000D01*
X9900000Y-14200000D02*
X9900000Y-13800000D01*
X9900000Y-13800000D02*
X10100000Y-14000000D01*
X8150000Y-14950000D02*
X8150000Y-13050000D01*
X-21350000Y-21450000D02*
X-21350000Y-19950000D01*
X-21350000Y-21450000D02*
X-24650000Y-21450000D01*
X-21350000Y-19950000D02*
X-24650000Y-19950000D01*
X-22900000Y-20700000D02*
X-23100000Y-20900000D01*
X-23100000Y-20900000D02*
X-23100000Y-20500000D01*
X-23100000Y-20500000D02*
X-22900000Y-20700000D01*
X-24650000Y-21450000D02*
X-24650000Y-19950000D01*
X11850000Y13050000D02*
X11850000Y14950000D01*
X11850000Y13050000D02*
X8150000Y13050000D01*
X11850000Y14950000D02*
X8150000Y14950000D01*
X10100000Y14000000D02*
X9900000Y13800000D01*
X9900000Y13800000D02*
X9900000Y14200000D01*
X9900000Y14200000D02*
X10100000Y14000000D01*
X8150000Y13050000D02*
X8150000Y14950000D01*
X-21350000Y-24450000D02*
X-21350000Y-22950000D01*
X-21350000Y-24450000D02*
X-24650000Y-24450000D01*
X-21350000Y-22950000D02*
X-24650000Y-22950000D01*
X-22900000Y-23700000D02*
X-23100000Y-23900000D01*
X-23100000Y-23900000D02*
X-23100000Y-23500000D01*
X-23100000Y-23500000D02*
X-22900000Y-23700000D01*
X-24650000Y-24450000D02*
X-24650000Y-22950000D01*
X8350000Y9350000D02*
X8350000Y7850000D01*
X8350000Y9350000D02*
X11650000Y9350000D01*
X8350000Y7850000D02*
X11650000Y7850000D01*
X9900000Y8600000D02*
X10100000Y8800000D01*
X10100000Y8800000D02*
X10100000Y8400000D01*
X10100000Y8400000D02*
X9900000Y8600000D01*
X11650000Y9350000D02*
X11650000Y7850000D01*
M02*
