G04 #@! TF.GenerationSoftware,KiCad,Pcbnew,7.0.6*
G04 #@! TF.CreationDate,2023-12-17T20:00:09+09:00*
G04 #@! TF.ProjectId,EB-BLDC,45422d42-4c44-4432-9e6b-696361645f70,V1_0*
G04 #@! TF.SameCoordinates,Original*
G04 #@! TF.FileFunction,Soldermask,Bot*
G04 #@! TF.FilePolarity,Negative*
%FSLAX46Y46*%
G04 Gerber Fmt 4.6, Leading zero omitted, Abs format (unit mm)*
G04 Created by KiCad (PCBNEW 7.0.6) date 2023-12-17 20:00:09*
%MOMM*%
%LPD*%
G01*
G04 APERTURE LIST*
%ADD10C,1.100000*%
%ADD11C,2.000000*%
%ADD12C,1.400000*%
%ADD13C,3.200000*%
G04 APERTURE END LIST*
D10*
X-1270000Y7620000D03*
D11*
X-2540000Y26455000D03*
X2540000Y26455000D03*
D10*
X-1270000Y-5080000D03*
X-29210000Y6350000D03*
X-12700000Y25400000D03*
X-2540000Y-24130000D03*
X-29210000Y-1270000D03*
X-29210000Y1270000D03*
X-30480000Y-17780000D03*
X-29210000Y-3810000D03*
X-17780000Y25400000D03*
X-30480000Y-20320000D03*
X29210000Y5080000D03*
D11*
X36455000Y5080000D03*
X36455000Y0D03*
X36455000Y-5080000D03*
D12*
X-33460000Y6350000D03*
X-36000000Y6350000D03*
X-33460000Y3810000D03*
X-36000000Y3810000D03*
X-33460000Y1270000D03*
X-36000000Y1270000D03*
X-33460000Y-1270000D03*
X-36000000Y-1270000D03*
X-33460000Y-3810000D03*
X-36000000Y-3810000D03*
X-33460000Y-6350000D03*
X-36000000Y-6350000D03*
D13*
X35000000Y12000000D03*
X35000000Y-12000000D03*
D10*
X29210000Y-5080000D03*
X-1270000Y5080000D03*
X-29210000Y3810000D03*
X-29210000Y-6350000D03*
X-29210000Y-8890000D03*
X-1270000Y2540000D03*
X29210000Y0D03*
X-30480000Y-22860000D03*
X-1270000Y0D03*
X-1270000Y-2540000D03*
X-29210000Y8890000D03*
M02*
