G04 #@! TF.GenerationSoftware,KiCad,Pcbnew,7.0.6*
G04 #@! TF.CreationDate,2023-12-17T20:00:09+09:00*
G04 #@! TF.ProjectId,EB-BLDC,45422d42-4c44-4432-9e6b-696361645f70,V1_0*
G04 #@! TF.SameCoordinates,Original*
G04 #@! TF.FileFunction,Copper,L2,Bot*
G04 #@! TF.FilePolarity,Positive*
%FSLAX46Y46*%
G04 Gerber Fmt 4.6, Leading zero omitted, Abs format (unit mm)*
G04 Created by KiCad (PCBNEW 7.0.6) date 2023-12-17 20:00:09*
%MOMM*%
%LPD*%
G01*
G04 APERTURE LIST*
G04 #@! TA.AperFunction,ComponentPad*
%ADD10C,1.100000*%
G04 #@! TD*
G04 #@! TA.AperFunction,ComponentPad*
%ADD11C,2.000000*%
G04 #@! TD*
G04 #@! TA.AperFunction,ComponentPad*
%ADD12C,1.400000*%
G04 #@! TD*
G04 #@! TA.AperFunction,ViaPad*
%ADD13C,0.609600*%
G04 #@! TD*
G04 #@! TA.AperFunction,Conductor*
%ADD14C,0.304800*%
G04 #@! TD*
G04 APERTURE END LIST*
D10*
X-1270000Y7620000D03*
D11*
X-2540000Y26455000D03*
X2540000Y26455000D03*
D10*
X-1270000Y-5080000D03*
X-29210000Y6350000D03*
X-12700000Y25400000D03*
X-2540000Y-24130000D03*
X-29210000Y-1270000D03*
X-29210000Y1270000D03*
X-30480000Y-17780000D03*
X-29210000Y-3810000D03*
X-17780000Y25400000D03*
X-30480000Y-20320000D03*
X29210000Y5080000D03*
D11*
X36455000Y5080000D03*
X36455000Y0D03*
X36455000Y-5080000D03*
D12*
X-33460000Y6350000D03*
X-36000000Y6350000D03*
X-33460000Y3810000D03*
X-36000000Y3810000D03*
X-33460000Y1270000D03*
X-36000000Y1270000D03*
X-33460000Y-1270000D03*
X-36000000Y-1270000D03*
X-33460000Y-3810000D03*
X-36000000Y-3810000D03*
X-33460000Y-6350000D03*
X-36000000Y-6350000D03*
D10*
X29210000Y-5080000D03*
X-1270000Y5080000D03*
X-29210000Y3810000D03*
X-29210000Y-6350000D03*
X-29210000Y-8890000D03*
X-1270000Y2540000D03*
X29210000Y0D03*
X-30480000Y-22860000D03*
X-1270000Y0D03*
X-1270000Y-2540000D03*
X-29210000Y8890000D03*
D13*
X-15000000Y0D03*
X37500000Y27500000D03*
X5000000Y15000000D03*
X-15000000Y-10000000D03*
X30000000Y22500000D03*
X-27500000Y-7500000D03*
X-37500000Y15000000D03*
X-25000000Y-7500000D03*
X-25000000Y-12500000D03*
X-27500000Y27500000D03*
X27500000Y-22500000D03*
X32500000Y27500000D03*
X27500000Y-17500000D03*
X-15000000Y2500000D03*
X-15000000Y5000000D03*
X-25000000Y22500000D03*
X-25000000Y12500000D03*
X7500000Y27500000D03*
X32500000Y25000000D03*
X-22500000Y-5000000D03*
X-30000000Y15000000D03*
X30000000Y-25000000D03*
X-27500000Y-10000000D03*
X-22500000Y-7500000D03*
X17500000Y-25000000D03*
X37500000Y17500000D03*
X7500000Y5000000D03*
X-37500000Y-12500000D03*
X17500000Y-27500000D03*
X27500000Y27500000D03*
X-22500000Y12500000D03*
X-27500000Y-27500000D03*
X22500000Y27500000D03*
X-17500000Y-27500000D03*
X-35000000Y15000000D03*
X-32500000Y12500000D03*
X-24800000Y-16200000D03*
X-25000000Y17500000D03*
X-37500000Y27500000D03*
X30000000Y27500000D03*
X-37500000Y22500000D03*
X0Y15000000D03*
X35000000Y20000000D03*
X15000000Y-25000000D03*
X-37500000Y5000000D03*
X-1200000Y-16200000D03*
X9400000Y-2800000D03*
X22500000Y-25000000D03*
X-10000000Y-12500000D03*
X-27500000Y-5000000D03*
X-37500000Y0D03*
X-37500000Y-20000000D03*
X2500000Y-15000000D03*
X-30000000Y12500000D03*
X-12500000Y-7500000D03*
X32500000Y17500000D03*
X35000000Y17500000D03*
X30000000Y-17500000D03*
X-30000000Y25000000D03*
X25000000Y-27500000D03*
X17500000Y27500000D03*
X5000000Y-27500000D03*
X-7500000Y-12500000D03*
X-30000000Y27500000D03*
X9400000Y-16800000D03*
X32500000Y22500000D03*
X-35000000Y-12500000D03*
X35000000Y-25000000D03*
X35000000Y25000000D03*
X-2500000Y-27500000D03*
X-17500000Y10000000D03*
X-20000000Y-27500000D03*
X-24800000Y-23700000D03*
X-25000000Y20000000D03*
X-5000000Y-27500000D03*
X-35000000Y25000000D03*
X-35000000Y-15000000D03*
X0Y-15000000D03*
X17500000Y-22500000D03*
X0Y-25000000D03*
X7500000Y17500000D03*
X10000000Y-27500000D03*
X30000000Y25000000D03*
X-35000000Y-20000000D03*
X-37500000Y2500000D03*
X25000000Y-20000000D03*
X27500000Y-25000000D03*
X20000000Y27500000D03*
X-32500000Y-25000000D03*
X30000000Y17500000D03*
X2500000Y7500000D03*
X-37500000Y25000000D03*
X-35000000Y27500000D03*
X-27500000Y15000000D03*
X-15000000Y-25000000D03*
X30000000Y-15000000D03*
X-22500000Y25000000D03*
X37500000Y20000000D03*
X-35000000Y12500000D03*
X-15000000Y-5000000D03*
X10000000Y17500000D03*
X32500000Y-22500000D03*
X35000000Y-15000000D03*
X37500000Y-15000000D03*
X-15000000Y27500000D03*
X-25000000Y17500000D03*
X0Y-10000000D03*
X32500000Y15000000D03*
X-20000000Y25000000D03*
X35000000Y-17500000D03*
X30000000Y15000000D03*
X32500000Y-25000000D03*
X-15000000Y20000000D03*
X35000000Y27500000D03*
X12500000Y5000000D03*
X-35000000Y-27500000D03*
X-35000000Y17500000D03*
X-32500000Y17500000D03*
X-15000000Y22500000D03*
X-20000000Y-7500000D03*
X-27500000Y25000000D03*
X12500000Y17500000D03*
X-32500000Y-27500000D03*
X-17500000Y20000000D03*
X27500000Y-20000000D03*
X-22500000Y22500000D03*
X-10000000Y22500000D03*
X-35000000Y-22500000D03*
X32500000Y-27500000D03*
X-20000000Y17500000D03*
X30000000Y-20000000D03*
X2500000Y0D03*
X-2500000Y10000000D03*
X-27500000Y12500000D03*
X-5000000Y-12500000D03*
X-22500000Y-12500000D03*
X2500000Y15000000D03*
X37500000Y25000000D03*
X7500000Y-7500000D03*
X-15000000Y-12500000D03*
X-37500000Y10000000D03*
X15000000Y-22500000D03*
X27500000Y-15000000D03*
X5000000Y27500000D03*
X35000000Y22500000D03*
X-27500000Y10000000D03*
X-20000000Y22500000D03*
X-22500000Y-27500000D03*
X-12500000Y27500000D03*
X-5000000Y0D03*
X2500000Y-25000000D03*
X-37500000Y-2500000D03*
X-22500000Y15000000D03*
X-2500000Y-10000000D03*
X22500000Y-27500000D03*
X-35000000Y-17500000D03*
X-10000000Y-27500000D03*
X-20000000Y20000000D03*
X-7500000Y-27500000D03*
X37500000Y-25000000D03*
X32500000Y20000000D03*
X25000000Y27500000D03*
X27500000Y-27500000D03*
X35000000Y15000000D03*
X0Y-12500000D03*
X-10000000Y27500000D03*
X-37500000Y-5000000D03*
X-2500000Y15000000D03*
X-25000000Y10000000D03*
X-20000000Y-5000000D03*
X-25000000Y-10000000D03*
X-20000000Y-12500000D03*
X20000000Y-22500000D03*
X-32500000Y20000000D03*
X37500000Y22500000D03*
X20000000Y-27500000D03*
X12500000Y-27500000D03*
X-27500000Y22500000D03*
X30000000Y-22500000D03*
X9400000Y11200000D03*
X-20000000Y-10000000D03*
X30000000Y-27500000D03*
X25000000Y-17500000D03*
X-17500000Y17500000D03*
X2500000Y-2500000D03*
X-25000000Y-27500000D03*
X37500000Y-22500000D03*
X0Y12500000D03*
X-7500000Y20000000D03*
X-2500000Y-12500000D03*
X-37500000Y12500000D03*
X35000000Y-22500000D03*
X-27500000Y17500000D03*
X5000000Y-2500000D03*
X-25000000Y15000000D03*
X-2500000Y17500000D03*
X-22500000Y-10000000D03*
X32500000Y-17500000D03*
X5000000Y17500000D03*
X-12500000Y-12500000D03*
X37500000Y-10000000D03*
X2500000Y-12500000D03*
X-22500000Y-27500000D03*
X-37500000Y20000000D03*
X15000000Y-27500000D03*
X-37500000Y-10000000D03*
X-37500000Y-22500000D03*
X-12500000Y-27500000D03*
X-7500000Y27500000D03*
X10000000Y-25000000D03*
X-12500000Y-25000000D03*
X37500000Y-20000000D03*
X-15000000Y-27500000D03*
X-7500000Y22500000D03*
X7500000Y-27500000D03*
X-22500000Y17500000D03*
X0Y10000000D03*
X-30000000Y20000000D03*
X-2500000Y12500000D03*
X0Y17500000D03*
X25000000Y-25000000D03*
X37500000Y10000000D03*
X12500000Y7500000D03*
X-12500000Y-5000000D03*
X7500000Y-10000000D03*
X-37500000Y-15000000D03*
X-5000000Y5000000D03*
X37500000Y15000000D03*
X-37500000Y-7500000D03*
X35000000Y-20000000D03*
X-32500000Y10000000D03*
X-15000000Y7500000D03*
X0Y-27500000D03*
X-32500000Y22500000D03*
X-37500000Y27500000D03*
X37500000Y-17500000D03*
X5000000Y-25000000D03*
X2500000Y5000000D03*
X-35000000Y10000000D03*
X-32500000Y25000000D03*
X-30000000Y-27500000D03*
X37500000Y-27500000D03*
X-10000000Y20000000D03*
X20000000Y-25000000D03*
X15000000Y27500000D03*
X-17500000Y22500000D03*
X-37500000Y-27500000D03*
X-32500000Y27500000D03*
X-35000000Y20000000D03*
X-22500000Y20000000D03*
X5000000Y5000000D03*
X-27500000Y20000000D03*
X7500000Y-25000000D03*
X2500000Y17500000D03*
X22500000Y-22500000D03*
X32500000Y-20000000D03*
X-32500000Y15000000D03*
X-35000000Y-10000000D03*
X-17500000Y-10000000D03*
X25000000Y-15000000D03*
X-37500000Y-7500000D03*
X2500000Y-27500000D03*
X-37500000Y-25000000D03*
X32500000Y-15000000D03*
X30000000Y20000000D03*
X-20000000Y10000000D03*
X5000000Y0D03*
X0Y-22500000D03*
X25000000Y-22500000D03*
X-37500000Y17500000D03*
X12500000Y-25000000D03*
X-22500000Y10000000D03*
X-37500000Y-17500000D03*
X2500000Y12500000D03*
X-35000000Y22500000D03*
X35000000Y-27500000D03*
X5000000Y7500000D03*
X-30000000Y22500000D03*
X35000000Y-27500000D03*
X-37500000Y7500000D03*
X-17500000Y-12500000D03*
X-35000000Y-25000000D03*
X-30000000Y17500000D03*
X-21500000Y-25200000D03*
X-4400000Y-14700000D03*
X19000000Y9200000D03*
X15087600Y18135600D03*
X20300000Y10500000D03*
X19000000Y11800000D03*
X21600000Y11800000D03*
X20300000Y9200000D03*
X16205200Y18135600D03*
X15087600Y16865600D03*
X21600000Y10500000D03*
X20300000Y11800000D03*
X21600000Y9200000D03*
X16205200Y16865600D03*
X15036800Y19405600D03*
X16205200Y19405600D03*
X19000000Y10500000D03*
X21600000Y-4800000D03*
X20300000Y-4800000D03*
X19000000Y-3500000D03*
X21600000Y-2200000D03*
X19000000Y-4800000D03*
X15087600Y5410200D03*
X19000000Y-2200000D03*
X20300000Y-3500000D03*
X21600000Y-3500000D03*
X15087600Y4140200D03*
X16205200Y4140200D03*
X16205200Y2870200D03*
X16205200Y5410200D03*
X20300000Y-2200000D03*
X15087600Y2870200D03*
X21600000Y-16200000D03*
X16205200Y-8585200D03*
X16205200Y-9880600D03*
X19000000Y-18800000D03*
X20300000Y-18800000D03*
X19000000Y-16200000D03*
X15087600Y-11150600D03*
X20300000Y-17500000D03*
X15087600Y-8585200D03*
X15087600Y-9880600D03*
X19000000Y-17500000D03*
X21600000Y-17500000D03*
X21600000Y-18800000D03*
X16205200Y-11150600D03*
X20300000Y-16200000D03*
X10600000Y11200000D03*
X-21200000Y-22200000D03*
X-4800000Y-17700000D03*
X10600000Y-2800000D03*
X-21200000Y-17700000D03*
X10600000Y-16800000D03*
X8000000Y15900000D03*
X8000000Y8600000D03*
X-3400000Y-3800000D03*
X8000000Y1900000D03*
X8000000Y-5400000D03*
X8000000Y-12100000D03*
X8000000Y-19400000D03*
X-8600000Y-22000000D03*
X-24800000Y-20700000D03*
D14*
X9400000Y11106843D02*
X9900000Y10606843D01*
X9900000Y-12600000D02*
X7800000Y-14700000D01*
X9400000Y11200000D02*
X9400000Y11106843D01*
X11700000Y-2606843D02*
X11700000Y-21200000D01*
X-21200000Y-20100000D02*
X-24800000Y-23700000D01*
X11700000Y-21200000D02*
X9800000Y-23100000D01*
X-7800000Y-16200000D02*
X-24800000Y-16200000D01*
X2600000Y-18700000D02*
X-5300000Y-18700000D01*
X7800000Y-14700000D02*
X7800000Y-17900000D01*
X1900000Y-20100000D02*
X-21200000Y-20100000D01*
X6214400Y-20314400D02*
X2100000Y-16200000D01*
X9900000Y10606843D02*
X9900000Y-806843D01*
X9800000Y-23100000D02*
X4900000Y-23100000D01*
X8914400Y-19778757D02*
X8378757Y-20314400D01*
X10300000Y-20600000D02*
X9200000Y-21700000D01*
X9400000Y-16800000D02*
X9400000Y-17500000D01*
X8914400Y-19014400D02*
X8914400Y-19778757D01*
X2100000Y-16200000D02*
X-1200000Y-16200000D01*
X5600000Y-21700000D02*
X2600000Y-18700000D01*
X9400000Y-2800000D02*
X9400000Y-2893157D01*
X9900000Y-3393157D02*
X9900000Y-12600000D01*
X-5300000Y-18700000D02*
X-7800000Y-16200000D01*
X7800000Y-17900000D02*
X8914400Y-19014400D01*
X10300000Y-18400000D02*
X10300000Y-20600000D01*
X9400000Y-17500000D02*
X10300000Y-18400000D01*
X9400000Y-2893157D02*
X9900000Y-3393157D01*
X9200000Y-21700000D02*
X5600000Y-21700000D01*
X8378757Y-20314400D02*
X6214400Y-20314400D01*
X4900000Y-23100000D02*
X1900000Y-20100000D01*
X9900000Y-806843D02*
X11700000Y-2606843D01*
X-32300000Y-9600000D02*
X-32300000Y-14100000D01*
X-21500000Y-25200000D02*
X-21608000Y-25308000D01*
X-31642000Y-23458000D02*
X-31642000Y-18942000D01*
X-29792000Y-25308000D02*
X-31642000Y-23458000D01*
X-21608000Y-25308000D02*
X-29792000Y-25308000D01*
X-34700000Y-2570000D02*
X-34700000Y-7200000D01*
X-36000000Y-1270000D02*
X-34700000Y-2570000D01*
X-30480000Y-15920000D02*
X-30480000Y-17780000D01*
X-34700000Y-7200000D02*
X-32300000Y-9600000D01*
X-31642000Y-18942000D02*
X-30480000Y-17780000D01*
X-32300000Y-14100000D02*
X-30480000Y-15920000D01*
X-31400000Y-5870000D02*
X-31400000Y-13600000D01*
X-31400000Y-13600000D02*
X-27580000Y-17420000D01*
X-33460000Y-3810000D02*
X-31400000Y-5870000D01*
X-4400000Y-14700000D02*
X-24860000Y-14700000D01*
X-27580000Y-17420000D02*
X-30480000Y-20320000D01*
X-24860000Y-14700000D02*
X-27580000Y-17420000D01*
X12400000Y-21504605D02*
X10104605Y-23800000D01*
X-19800000Y-20800000D02*
X-21200000Y-22200000D01*
X10600000Y-500000D02*
X12400000Y-2300000D01*
X4600000Y-23800000D02*
X1600000Y-20800000D01*
X1600000Y-20800000D02*
X-19800000Y-20800000D01*
X12400000Y-2300000D02*
X12400000Y-21504605D01*
X10600000Y11200000D02*
X10600000Y-500000D01*
X10104605Y-23800000D02*
X4600000Y-23800000D01*
X8800000Y-21000000D02*
X5900000Y-21000000D01*
X10600000Y-12926420D02*
X8459210Y-15067210D01*
X8459210Y-17559210D02*
X9600000Y-18700000D01*
X9600000Y-20200000D02*
X8800000Y-21000000D01*
X10600000Y-2800000D02*
X10600000Y-12926420D01*
X9600000Y-18700000D02*
X9600000Y-20200000D01*
X5900000Y-21000000D02*
X2600000Y-17700000D01*
X8459210Y-15067210D02*
X8459210Y-17559210D01*
X2600000Y-17700000D02*
X-4800000Y-17700000D01*
X11000000Y-20900000D02*
X9500000Y-22400000D01*
X10600000Y-16800000D02*
X11000000Y-17200000D01*
X9500000Y-22400000D02*
X5200000Y-22400000D01*
X-7300000Y-17700000D02*
X-21200000Y-17700000D01*
X5200000Y-22400000D02*
X2200000Y-19400000D01*
X-5600000Y-19400000D02*
X-7300000Y-17700000D01*
X2200000Y-19400000D02*
X-5600000Y-19400000D01*
X11000000Y-17200000D02*
X11000000Y-20900000D01*
X-280000Y7620000D02*
X-1270000Y7620000D01*
X8000000Y15900000D02*
X-280000Y7620000D01*
X-3400000Y2950000D02*
X-1270000Y5080000D01*
X-3400000Y-3800000D02*
X-3400000Y2950000D01*
X8000000Y8600000D02*
X2250000Y8600000D01*
X2250000Y8600000D02*
X-1270000Y5080000D01*
X-630000Y1900000D02*
X-1270000Y2540000D01*
X8000000Y1900000D02*
X-630000Y1900000D01*
X8000000Y-5400000D02*
X4130000Y-5400000D01*
X4130000Y-5400000D02*
X-1270000Y0D01*
X8000000Y-12100000D02*
X8000000Y-11810000D01*
X8000000Y-11810000D02*
X-1270000Y-2540000D01*
X7200000Y-13550000D02*
X-1270000Y-5080000D01*
X8000000Y-19400000D02*
X7200000Y-18600000D01*
X7200000Y-18600000D02*
X7200000Y-13550000D01*
X-8700000Y-21900000D02*
X-8600000Y-22000000D01*
X-25100000Y-24800000D02*
X-22400000Y-24800000D01*
X-22400000Y-24800000D02*
X-19500000Y-21900000D01*
X-25800000Y-24100000D02*
X-25100000Y-24800000D01*
X-4670000Y-22000000D02*
X-8600000Y-22000000D01*
X-24800000Y-20700000D02*
X-25800000Y-21700000D01*
X-19500000Y-21900000D02*
X-8700000Y-21900000D01*
X-25800000Y-21700000D02*
X-25800000Y-24100000D01*
X-2540000Y-24130000D02*
X-4670000Y-22000000D01*
G04 #@! TA.AperFunction,Conductor*
G36*
X16550000Y2300000D02*
G01*
X14501941Y2300000D01*
X14500000Y2319712D01*
X14500000Y5680287D01*
X14502909Y5709823D01*
X14517326Y5782304D01*
X14539933Y5836882D01*
X14572543Y5885686D01*
X14614313Y5927456D01*
X14663117Y5960066D01*
X14717693Y5982673D01*
X14790176Y5997091D01*
X14819713Y6000000D01*
X16550000Y6000000D01*
X16550000Y2300000D01*
G37*
G04 #@! TD.AperFunction*
G04 #@! TA.AperFunction,Conductor*
G36*
X38209823Y-3002909D02*
G01*
X38237064Y-3008327D01*
X38282305Y-3017326D01*
X38336882Y-3039933D01*
X38385686Y-3072543D01*
X38427456Y-3114313D01*
X38460066Y-3163117D01*
X38482673Y-3217693D01*
X38497091Y-3290174D01*
X38500000Y-3319712D01*
X38500000Y-7180287D01*
X38497091Y-7209825D01*
X38482673Y-7282306D01*
X38460066Y-7336882D01*
X38427456Y-7385686D01*
X38385686Y-7427456D01*
X38336882Y-7460066D01*
X38282306Y-7482673D01*
X38241692Y-7490751D01*
X38209823Y-7497091D01*
X38180287Y-7500000D01*
X32000000Y-7500000D01*
X32000000Y-7804800D01*
X32000000Y-12680287D01*
X31997091Y-12709825D01*
X31982673Y-12782306D01*
X31960066Y-12836882D01*
X31927456Y-12885686D01*
X31885686Y-12927456D01*
X31836882Y-12960066D01*
X31782306Y-12982673D01*
X31741692Y-12990751D01*
X31709823Y-12997091D01*
X31680287Y-13000000D01*
X23500000Y-13000000D01*
X23500000Y-13304800D01*
X23500000Y-19680287D01*
X23497091Y-19709825D01*
X23482673Y-19782306D01*
X23460066Y-19836882D01*
X23427456Y-19885686D01*
X23385686Y-19927456D01*
X23336882Y-19960066D01*
X23282306Y-19982673D01*
X23241692Y-19990751D01*
X23209823Y-19997091D01*
X23180287Y-20000000D01*
X18319713Y-20000000D01*
X18290176Y-19997091D01*
X18217692Y-19982672D01*
X18163117Y-19960066D01*
X18114313Y-19927456D01*
X18072543Y-19885686D01*
X18039933Y-19836882D01*
X18017326Y-19782304D01*
X18002909Y-19709823D01*
X18000000Y-19680287D01*
X18000000Y-12304800D01*
X18000000Y-12000000D01*
X17695200Y-12000000D01*
X14819713Y-12000000D01*
X14790176Y-11997091D01*
X14717692Y-11982672D01*
X14663117Y-11960066D01*
X14614313Y-11927456D01*
X14572543Y-11885686D01*
X14539933Y-11836882D01*
X14517326Y-11782304D01*
X14502909Y-11709823D01*
X14500000Y-11680287D01*
X14500000Y-8319712D01*
X14502909Y-8290176D01*
X14503951Y-8284932D01*
X14517327Y-8217692D01*
X14539931Y-8163120D01*
X14572544Y-8114311D01*
X14614311Y-8072544D01*
X14663120Y-8039931D01*
X14717692Y-8017327D01*
X14769278Y-8007065D01*
X14790177Y-8002909D01*
X14819713Y-8000000D01*
X26695200Y-8000000D01*
X27000000Y-8000000D01*
X27000000Y-5080000D01*
X28350492Y-5080000D01*
X28369274Y-5258705D01*
X28424799Y-5429591D01*
X28424800Y-5429593D01*
X28452762Y-5478025D01*
X28452763Y-5478025D01*
X28811272Y-5119515D01*
X28824835Y-5205148D01*
X28882359Y-5318045D01*
X28971955Y-5407641D01*
X29084852Y-5465165D01*
X29170482Y-5478727D01*
X28811111Y-5838098D01*
X28944395Y-5897440D01*
X29120160Y-5934800D01*
X29299840Y-5934800D01*
X29475604Y-5897440D01*
X29608888Y-5838098D01*
X29249517Y-5478727D01*
X29335148Y-5465165D01*
X29448045Y-5407641D01*
X29537641Y-5318045D01*
X29595165Y-5205148D01*
X29608727Y-5119518D01*
X29967235Y-5478025D01*
X29995198Y-5429594D01*
X29995201Y-5429587D01*
X30050725Y-5258705D01*
X30069507Y-5080000D01*
X35145216Y-5080000D01*
X35165114Y-5307441D01*
X35224205Y-5527969D01*
X35224207Y-5527976D01*
X35320695Y-5734894D01*
X35320697Y-5734897D01*
X35370197Y-5805591D01*
X35370198Y-5805591D01*
X35851065Y-5324723D01*
X35862188Y-5358956D01*
X35950186Y-5497619D01*
X36069903Y-5610040D01*
X36208161Y-5686048D01*
X35729408Y-6164801D01*
X35800100Y-6214301D01*
X35800105Y-6214304D01*
X36007023Y-6310792D01*
X36007030Y-6310794D01*
X36227558Y-6369885D01*
X36227557Y-6369885D01*
X36455000Y-6389783D01*
X36682441Y-6369885D01*
X36902969Y-6310794D01*
X36902976Y-6310792D01*
X37109894Y-6214304D01*
X37180590Y-6164801D01*
X37180590Y-6164800D01*
X36698481Y-5682691D01*
X36770629Y-5654126D01*
X36903492Y-5557595D01*
X37008175Y-5431055D01*
X37058442Y-5324232D01*
X37539801Y-5805591D01*
X37539801Y-5805590D01*
X37589304Y-5734894D01*
X37685792Y-5527976D01*
X37685794Y-5527969D01*
X37744885Y-5307441D01*
X37764783Y-5080000D01*
X37744885Y-4852558D01*
X37685794Y-4632030D01*
X37685792Y-4632023D01*
X37589304Y-4425105D01*
X37589301Y-4425100D01*
X37539801Y-4354408D01*
X37058934Y-4835274D01*
X37047812Y-4801044D01*
X36959814Y-4662381D01*
X36840097Y-4549960D01*
X36701837Y-4473950D01*
X37180591Y-3995198D01*
X37180591Y-3995197D01*
X37109897Y-3945697D01*
X37109894Y-3945695D01*
X36902976Y-3849207D01*
X36902969Y-3849205D01*
X36682441Y-3790114D01*
X36682442Y-3790114D01*
X36455000Y-3770216D01*
X36227558Y-3790114D01*
X36007030Y-3849205D01*
X36007023Y-3849207D01*
X35800107Y-3945695D01*
X35800106Y-3945695D01*
X35729408Y-3995198D01*
X36211518Y-4477308D01*
X36139371Y-4505874D01*
X36006508Y-4602405D01*
X35901825Y-4728945D01*
X35851557Y-4835767D01*
X35370198Y-4354408D01*
X35320695Y-4425106D01*
X35320695Y-4425107D01*
X35224207Y-4632023D01*
X35224205Y-4632030D01*
X35165114Y-4852558D01*
X35145216Y-5080000D01*
X30069507Y-5080000D01*
X30050725Y-4901294D01*
X29995201Y-4730410D01*
X29967235Y-4681973D01*
X29608726Y-5040481D01*
X29595165Y-4954852D01*
X29537641Y-4841955D01*
X29448045Y-4752359D01*
X29335148Y-4694835D01*
X29249515Y-4681272D01*
X29608887Y-4321901D01*
X29475602Y-4262559D01*
X29299840Y-4225200D01*
X29120160Y-4225200D01*
X28944395Y-4262559D01*
X28811111Y-4321900D01*
X28811111Y-4321901D01*
X29170482Y-4681272D01*
X29084852Y-4694835D01*
X28971955Y-4752359D01*
X28882359Y-4841955D01*
X28824835Y-4954852D01*
X28811272Y-5040482D01*
X28452763Y-4681973D01*
X28452762Y-4681973D01*
X28424800Y-4730406D01*
X28369274Y-4901294D01*
X28350492Y-5080000D01*
X27000000Y-5080000D01*
X27000000Y-3319712D01*
X27002909Y-3290176D01*
X27003951Y-3284932D01*
X27017327Y-3217692D01*
X27039931Y-3163120D01*
X27072544Y-3114311D01*
X27114311Y-3072544D01*
X27163120Y-3039931D01*
X27217692Y-3017327D01*
X27269278Y-3007065D01*
X27290177Y-3002909D01*
X27319713Y-3000000D01*
X38180287Y-3000000D01*
X38209823Y-3002909D01*
G37*
G04 #@! TD.AperFunction*
G04 #@! TA.AperFunction,Conductor*
G36*
X22209823Y19997091D02*
G01*
X22241692Y19990751D01*
X22282306Y19982673D01*
X22336882Y19960066D01*
X22385686Y19927456D01*
X22427456Y19885686D01*
X22460066Y19836882D01*
X22482673Y19782306D01*
X22497091Y19709825D01*
X22500000Y19680287D01*
X22500000Y13000000D01*
X31680287Y13000000D01*
X31709823Y12997091D01*
X31741692Y12990751D01*
X31782306Y12982673D01*
X31836882Y12960066D01*
X31885686Y12927456D01*
X31927456Y12885686D01*
X31960066Y12836882D01*
X31982673Y12782306D01*
X31997091Y12709825D01*
X32000000Y12680287D01*
X32000000Y7000000D01*
X38180287Y7000000D01*
X38209823Y6997091D01*
X38241692Y6990751D01*
X38282306Y6982673D01*
X38336882Y6960066D01*
X38385686Y6927456D01*
X38427456Y6885686D01*
X38460066Y6836882D01*
X38482673Y6782306D01*
X38497091Y6709825D01*
X38500000Y6680287D01*
X38500000Y3319712D01*
X38497091Y3290174D01*
X38482673Y3217693D01*
X38460066Y3163117D01*
X38427456Y3114313D01*
X38385686Y3072543D01*
X38336882Y3039933D01*
X38282305Y3017326D01*
X38237064Y3008327D01*
X38209823Y3002909D01*
X38180287Y3000000D01*
X27319713Y3000000D01*
X27290177Y3002909D01*
X27269278Y3007065D01*
X27217692Y3017327D01*
X27163120Y3039931D01*
X27114311Y3072544D01*
X27072544Y3114311D01*
X27039931Y3163120D01*
X27017327Y3217693D01*
X27002909Y3290176D01*
X27000000Y3319712D01*
X27000000Y5080000D01*
X28350492Y5080000D01*
X28369274Y4901294D01*
X28424800Y4730406D01*
X28452762Y4681973D01*
X28452763Y4681973D01*
X28811272Y5040482D01*
X28824835Y4954852D01*
X28882359Y4841955D01*
X28971955Y4752359D01*
X29084852Y4694835D01*
X29170482Y4681272D01*
X28811111Y4321901D01*
X28811111Y4321900D01*
X28944395Y4262559D01*
X29120160Y4225200D01*
X29299840Y4225200D01*
X29475602Y4262559D01*
X29608888Y4321901D01*
X29249517Y4681272D01*
X29335148Y4694835D01*
X29448045Y4752359D01*
X29537641Y4841955D01*
X29595165Y4954852D01*
X29608726Y5040481D01*
X29967235Y4681973D01*
X29995201Y4730410D01*
X30050725Y4901294D01*
X30069507Y5080000D01*
X35145216Y5080000D01*
X35165114Y4852558D01*
X35224205Y4632030D01*
X35224207Y4632023D01*
X35320695Y4425107D01*
X35320695Y4425106D01*
X35370198Y4354408D01*
X35851065Y4835275D01*
X35862188Y4801044D01*
X35950186Y4662381D01*
X36069903Y4549960D01*
X36208161Y4473951D01*
X35729408Y3995198D01*
X35800107Y3945695D01*
X36007023Y3849207D01*
X36007030Y3849205D01*
X36227558Y3790114D01*
X36227557Y3790114D01*
X36455000Y3770216D01*
X36682441Y3790114D01*
X36902969Y3849205D01*
X36902976Y3849207D01*
X37109894Y3945695D01*
X37109897Y3945697D01*
X37180591Y3995197D01*
X37180591Y3995198D01*
X36698481Y4477308D01*
X36770629Y4505874D01*
X36903492Y4602405D01*
X37008175Y4728945D01*
X37058441Y4835767D01*
X37539801Y4354408D01*
X37589301Y4425100D01*
X37589304Y4425105D01*
X37685792Y4632023D01*
X37685794Y4632030D01*
X37744885Y4852558D01*
X37764783Y5080000D01*
X37744885Y5307441D01*
X37685794Y5527969D01*
X37685792Y5527976D01*
X37589304Y5734894D01*
X37539801Y5805590D01*
X37539801Y5805591D01*
X37058934Y5324724D01*
X37047812Y5358956D01*
X36959814Y5497619D01*
X36840097Y5610040D01*
X36701838Y5686048D01*
X37180590Y6164800D01*
X37180590Y6164801D01*
X37109893Y6214304D01*
X37109895Y6214304D01*
X36902976Y6310792D01*
X36902969Y6310794D01*
X36682441Y6369885D01*
X36682442Y6369885D01*
X36455000Y6389783D01*
X36227558Y6369885D01*
X36007030Y6310794D01*
X36007023Y6310792D01*
X35800105Y6214304D01*
X35800100Y6214301D01*
X35729408Y6164801D01*
X36211518Y5682691D01*
X36139371Y5654126D01*
X36006508Y5557595D01*
X35901825Y5431055D01*
X35851557Y5324230D01*
X35370198Y5805591D01*
X35370197Y5805591D01*
X35320697Y5734897D01*
X35320695Y5734894D01*
X35224207Y5527976D01*
X35224205Y5527969D01*
X35165114Y5307441D01*
X35145216Y5080000D01*
X30069507Y5080000D01*
X30050725Y5258705D01*
X29995201Y5429587D01*
X29995198Y5429594D01*
X29967235Y5478025D01*
X29608727Y5119518D01*
X29595165Y5205148D01*
X29537641Y5318045D01*
X29448045Y5407641D01*
X29335148Y5465165D01*
X29249517Y5478727D01*
X29608888Y5838098D01*
X29475604Y5897440D01*
X29299840Y5934800D01*
X29120160Y5934800D01*
X28944395Y5897440D01*
X28811111Y5838098D01*
X29170482Y5478727D01*
X29084852Y5465165D01*
X28971955Y5407641D01*
X28882359Y5318045D01*
X28824835Y5205148D01*
X28811272Y5119515D01*
X28452763Y5478025D01*
X28452762Y5478025D01*
X28424800Y5429593D01*
X28424799Y5429591D01*
X28369274Y5258705D01*
X28350492Y5080000D01*
X27000000Y5080000D01*
X27000000Y5478025D01*
X27000000Y7695200D01*
X27000000Y8000000D01*
X26695200Y8000000D01*
X18319713Y8000000D01*
X18290177Y8002909D01*
X18269278Y8007065D01*
X18217692Y8017327D01*
X18163120Y8039931D01*
X18114311Y8072544D01*
X18072544Y8114311D01*
X18039931Y8163120D01*
X18017327Y8217692D01*
X18002909Y8290176D01*
X18000000Y8319712D01*
X18000000Y15695199D01*
X18000000Y15695200D01*
X18000000Y16000000D01*
X17695200Y16000000D01*
X14819713Y16000000D01*
X14790177Y16002909D01*
X14769278Y16007065D01*
X14717692Y16017327D01*
X14663120Y16039931D01*
X14614311Y16072544D01*
X14572544Y16114311D01*
X14539931Y16163120D01*
X14517327Y16217692D01*
X14502909Y16290176D01*
X14500000Y16319712D01*
X14500000Y19680287D01*
X14502909Y19709823D01*
X14517326Y19782304D01*
X14539933Y19836882D01*
X14572543Y19885686D01*
X14614313Y19927456D01*
X14663117Y19960066D01*
X14717693Y19982673D01*
X14790176Y19997091D01*
X14819713Y20000000D01*
X22180287Y20000000D01*
X22209823Y19997091D01*
G37*
G04 #@! TD.AperFunction*
G04 #@! TA.AperFunction,Conductor*
G36*
X23209823Y5997091D02*
G01*
X23241692Y5990751D01*
X23282306Y5982673D01*
X23336882Y5960066D01*
X23385686Y5927456D01*
X23427456Y5885686D01*
X23460066Y5836882D01*
X23482673Y5782306D01*
X23497091Y5709825D01*
X23500000Y5680287D01*
X23500000Y2000000D01*
X38180287Y2000000D01*
X38209823Y1997091D01*
X38241692Y1990751D01*
X38282306Y1982673D01*
X38336882Y1960066D01*
X38385686Y1927456D01*
X38427456Y1885686D01*
X38460066Y1836882D01*
X38482673Y1782306D01*
X38497091Y1709825D01*
X38500000Y1680287D01*
X38500000Y-1680287D01*
X38497091Y-1709825D01*
X38482673Y-1782306D01*
X38460066Y-1836882D01*
X38427456Y-1885686D01*
X38385686Y-1927456D01*
X38336882Y-1960066D01*
X38282306Y-1982673D01*
X38241692Y-1990751D01*
X38209823Y-1997091D01*
X38180287Y-2000000D01*
X23500000Y-2000000D01*
X23500000Y-2304800D01*
X23500000Y-5680287D01*
X23497091Y-5709825D01*
X23482673Y-5782306D01*
X23460066Y-5836882D01*
X23427456Y-5885686D01*
X23385686Y-5927456D01*
X23336882Y-5960066D01*
X23282306Y-5982673D01*
X23241692Y-5990751D01*
X23209823Y-5997091D01*
X23180287Y-6000000D01*
X18319713Y-6000000D01*
X18290176Y-5997091D01*
X18217692Y-5982672D01*
X18163117Y-5960066D01*
X18114313Y-5927456D01*
X18072543Y-5885686D01*
X18039933Y-5836882D01*
X18017326Y-5782304D01*
X18002909Y-5709823D01*
X18000000Y-5680287D01*
X18000000Y0D01*
X28350492Y0D01*
X28369274Y-178705D01*
X28424799Y-349591D01*
X28424800Y-349593D01*
X28452762Y-398025D01*
X28452763Y-398025D01*
X28811272Y-39517D01*
X28824835Y-125148D01*
X28882359Y-238045D01*
X28971955Y-327641D01*
X29084852Y-385165D01*
X29170482Y-398727D01*
X28811111Y-758098D01*
X28944395Y-817440D01*
X29120160Y-854800D01*
X29299840Y-854800D01*
X29475604Y-817440D01*
X29608888Y-758098D01*
X29249517Y-398727D01*
X29335148Y-385165D01*
X29448045Y-327641D01*
X29537641Y-238045D01*
X29595165Y-125148D01*
X29608727Y-39518D01*
X29967235Y-398025D01*
X29995198Y-349594D01*
X29995201Y-349587D01*
X30050725Y-178705D01*
X30069507Y0D01*
X35145216Y0D01*
X35165114Y-227441D01*
X35224205Y-447969D01*
X35224207Y-447976D01*
X35320695Y-654894D01*
X35320697Y-654897D01*
X35370197Y-725591D01*
X35370198Y-725591D01*
X35851065Y-244724D01*
X35862188Y-278956D01*
X35950186Y-417619D01*
X36069903Y-530040D01*
X36208161Y-606048D01*
X35729408Y-1084801D01*
X35800100Y-1134301D01*
X35800105Y-1134304D01*
X36007023Y-1230792D01*
X36007030Y-1230794D01*
X36227558Y-1289885D01*
X36227557Y-1289885D01*
X36455000Y-1309783D01*
X36682441Y-1289885D01*
X36902969Y-1230794D01*
X36902976Y-1230792D01*
X37109894Y-1134304D01*
X37180590Y-1084801D01*
X37180590Y-1084800D01*
X36698481Y-602691D01*
X36770629Y-574126D01*
X36903492Y-477595D01*
X37008175Y-351055D01*
X37058442Y-244232D01*
X37539801Y-725591D01*
X37539801Y-725590D01*
X37589304Y-654894D01*
X37685792Y-447976D01*
X37685794Y-447969D01*
X37744885Y-227441D01*
X37764783Y0D01*
X37744885Y227441D01*
X37685794Y447969D01*
X37685792Y447976D01*
X37589304Y654894D01*
X37539801Y725590D01*
X37539801Y725591D01*
X37058934Y244724D01*
X37047812Y278956D01*
X36959814Y417619D01*
X36840097Y530040D01*
X36701838Y606048D01*
X37180590Y1084800D01*
X37180590Y1084801D01*
X37109893Y1134304D01*
X37109895Y1134304D01*
X36902976Y1230792D01*
X36902969Y1230794D01*
X36682441Y1289885D01*
X36682442Y1289885D01*
X36455000Y1309783D01*
X36227558Y1289885D01*
X36007030Y1230794D01*
X36007023Y1230792D01*
X35800105Y1134304D01*
X35800100Y1134301D01*
X35729408Y1084801D01*
X36211518Y602691D01*
X36139371Y574126D01*
X36006508Y477595D01*
X35901825Y351055D01*
X35851557Y244231D01*
X35370198Y725591D01*
X35370197Y725591D01*
X35320697Y654897D01*
X35320695Y654894D01*
X35224207Y447976D01*
X35224205Y447969D01*
X35165114Y227441D01*
X35145216Y0D01*
X30069507Y0D01*
X30050725Y178705D01*
X29995201Y349587D01*
X29995198Y349594D01*
X29967235Y398025D01*
X29608727Y39518D01*
X29595165Y125148D01*
X29537641Y238045D01*
X29448045Y327641D01*
X29335148Y385165D01*
X29249516Y398727D01*
X29608887Y758097D01*
X29608887Y758098D01*
X29475606Y817439D01*
X29299840Y854800D01*
X29120160Y854800D01*
X28944395Y817440D01*
X28811111Y758097D01*
X29170481Y398727D01*
X29084852Y385165D01*
X28971955Y327641D01*
X28882359Y238045D01*
X28824835Y125148D01*
X28811272Y39517D01*
X28452763Y398025D01*
X28452762Y398025D01*
X28424800Y349593D01*
X28424799Y349591D01*
X28369274Y178705D01*
X28350492Y0D01*
X18000000Y0D01*
X18000000Y1695199D01*
X18000000Y1695200D01*
X18000000Y2000000D01*
X17695200Y2000000D01*
X14819713Y2000000D01*
X14790177Y2002909D01*
X14769278Y2007065D01*
X14717692Y2017327D01*
X14663120Y2039931D01*
X14614311Y2072544D01*
X14572544Y2114311D01*
X14539931Y2163120D01*
X14517327Y2217692D01*
X14502909Y2290176D01*
X14501941Y2300000D01*
X16550000Y2300000D01*
X16550000Y6000000D01*
X23180287Y6000000D01*
X23209823Y5997091D01*
G37*
G04 #@! TD.AperFunction*
G04 #@! TA.AperFunction,Conductor*
G36*
X37002118Y29694581D02*
G01*
X37297464Y29677994D01*
X37305906Y29677042D01*
X37595431Y29627850D01*
X37603714Y29625960D01*
X37885912Y29544660D01*
X37893931Y29541854D01*
X38165259Y29429467D01*
X38172913Y29425781D01*
X38429942Y29283726D01*
X38437136Y29279206D01*
X38676649Y29109261D01*
X38683291Y29103964D01*
X38902268Y28908276D01*
X38908276Y28902268D01*
X39103964Y28683291D01*
X39109261Y28676649D01*
X39279206Y28437136D01*
X39283726Y28429942D01*
X39425781Y28172913D01*
X39429467Y28165259D01*
X39541854Y27893931D01*
X39544660Y27885912D01*
X39625960Y27603714D01*
X39627850Y27595431D01*
X39677042Y27305906D01*
X39677994Y27297464D01*
X39694581Y27002117D01*
X39694700Y26997872D01*
X39694700Y-26997872D01*
X39694581Y-27002117D01*
X39677994Y-27297464D01*
X39677042Y-27305906D01*
X39627850Y-27595431D01*
X39625960Y-27603714D01*
X39544660Y-27885912D01*
X39541854Y-27893931D01*
X39429467Y-28165259D01*
X39425781Y-28172913D01*
X39283726Y-28429942D01*
X39279206Y-28437136D01*
X39109261Y-28676649D01*
X39103964Y-28683291D01*
X38908276Y-28902268D01*
X38902268Y-28908276D01*
X38683291Y-29103964D01*
X38676649Y-29109261D01*
X38437136Y-29279206D01*
X38429942Y-29283726D01*
X38172913Y-29425781D01*
X38165259Y-29429467D01*
X37893931Y-29541854D01*
X37885912Y-29544660D01*
X37603714Y-29625960D01*
X37595431Y-29627850D01*
X37305906Y-29677042D01*
X37297464Y-29677994D01*
X37002118Y-29694581D01*
X36997873Y-29694700D01*
X-36997873Y-29694700D01*
X-37002118Y-29694581D01*
X-37297464Y-29677994D01*
X-37305906Y-29677042D01*
X-37595431Y-29627850D01*
X-37603714Y-29625960D01*
X-37885919Y-29544658D01*
X-37893938Y-29541852D01*
X-38165250Y-29429471D01*
X-38172904Y-29425785D01*
X-38429943Y-29283725D01*
X-38437137Y-29279205D01*
X-38676649Y-29109261D01*
X-38683292Y-29103964D01*
X-38902267Y-28908275D01*
X-38908275Y-28902267D01*
X-39103964Y-28683292D01*
X-39109261Y-28676649D01*
X-39279205Y-28437137D01*
X-39283725Y-28429943D01*
X-39425785Y-28172904D01*
X-39429471Y-28165250D01*
X-39541852Y-27893938D01*
X-39544658Y-27885919D01*
X-39625960Y-27603714D01*
X-39627850Y-27595431D01*
X-39677042Y-27305906D01*
X-39677994Y-27297464D01*
X-39694581Y-27002117D01*
X-39694700Y-26997872D01*
X-39694700Y-3810000D01*
X-37014987Y-3810000D01*
X-36995484Y-4008014D01*
X-36937726Y-4198419D01*
X-36843931Y-4373897D01*
X-36717704Y-4527704D01*
X-36563897Y-4653931D01*
X-36388419Y-4747726D01*
X-36198014Y-4805484D01*
X-36049618Y-4820100D01*
X-36004370Y-4820100D01*
X-36003069Y-4820164D01*
X-36000000Y-4820164D01*
X-35996931Y-4820164D01*
X-35995630Y-4820100D01*
X-35950385Y-4820100D01*
X-35950382Y-4820100D01*
X-35801986Y-4805484D01*
X-35611581Y-4747726D01*
X-35436103Y-4653931D01*
X-35405147Y-4628526D01*
X-35333765Y-4596182D01*
X-35255772Y-4603862D01*
X-35192068Y-4649510D01*
X-35159723Y-4720894D01*
X-35157700Y-4745559D01*
X-35157700Y-5421296D01*
X-35177984Y-5496996D01*
X-35233400Y-5552412D01*
X-35309100Y-5572696D01*
X-35384800Y-5552412D01*
X-35405145Y-5538332D01*
X-35439065Y-5510495D01*
X-35613621Y-5417192D01*
X-35803024Y-5359738D01*
X-36000000Y-5340338D01*
X-36196975Y-5359738D01*
X-36386378Y-5417192D01*
X-36508382Y-5482406D01*
X-36039517Y-5951272D01*
X-36125148Y-5964835D01*
X-36238045Y-6022359D01*
X-36327641Y-6111955D01*
X-36385165Y-6224852D01*
X-36398727Y-6310481D01*
X-36867593Y-5841615D01*
X-36932804Y-5963614D01*
X-36932805Y-5963616D01*
X-36990261Y-6153024D01*
X-37009661Y-6349999D01*
X-36990261Y-6546975D01*
X-36932805Y-6736382D01*
X-36867592Y-6858382D01*
X-36398727Y-6389517D01*
X-36385165Y-6475148D01*
X-36327641Y-6588045D01*
X-36238045Y-6677641D01*
X-36125148Y-6735165D01*
X-36039517Y-6748727D01*
X-36508383Y-7217593D01*
X-36386382Y-7282805D01*
X-36196975Y-7340261D01*
X-36000000Y-7359661D01*
X-35803024Y-7340261D01*
X-35613621Y-7282807D01*
X-35439064Y-7189504D01*
X-35401612Y-7158768D01*
X-35330227Y-7126424D01*
X-35252234Y-7134106D01*
X-35188531Y-7179755D01*
X-35156805Y-7247653D01*
X-35151311Y-7276686D01*
X-35142306Y-7336434D01*
X-35139766Y-7344667D01*
X-35136896Y-7352867D01*
X-35136895Y-7352876D01*
X-35108660Y-7406299D01*
X-35082441Y-7460744D01*
X-35082437Y-7460748D01*
X-35077569Y-7467888D01*
X-35072425Y-7474858D01*
X-35072424Y-7474862D01*
X-35029691Y-7517594D01*
X-34988595Y-7561886D01*
X-34988590Y-7561888D01*
X-34979721Y-7568962D01*
X-34980528Y-7569975D01*
X-34966941Y-7580343D01*
X-32802041Y-9745243D01*
X-32762858Y-9813112D01*
X-32757699Y-9852296D01*
X-32757699Y-14070054D01*
X-32758175Y-14078510D01*
X-32762547Y-14117307D01*
X-32752451Y-14170659D01*
X-32751311Y-14176686D01*
X-32742306Y-14236434D01*
X-32739766Y-14244667D01*
X-32736896Y-14252867D01*
X-32736895Y-14252876D01*
X-32708660Y-14306299D01*
X-32682441Y-14360744D01*
X-32682437Y-14360748D01*
X-32677569Y-14367888D01*
X-32672425Y-14374858D01*
X-32672424Y-14374862D01*
X-32629691Y-14417594D01*
X-32588595Y-14461886D01*
X-32588590Y-14461888D01*
X-32579721Y-14468962D01*
X-32580528Y-14469975D01*
X-32566941Y-14480343D01*
X-30982041Y-16065243D01*
X-30942858Y-16133112D01*
X-30937700Y-16172289D01*
X-30937700Y-16665657D01*
X-30937700Y-16788559D01*
X-30957984Y-16864259D01*
X-31013400Y-16919675D01*
X-31017727Y-16922080D01*
X-31043894Y-16936067D01*
X-31043895Y-16936068D01*
X-31043897Y-16936069D01*
X-31197704Y-17062296D01*
X-31323931Y-17216103D01*
X-31417726Y-17391581D01*
X-31475484Y-17581986D01*
X-31494987Y-17780000D01*
X-31475484Y-17978014D01*
X-31467966Y-18002795D01*
X-31466872Y-18006404D01*
X-31464307Y-18084733D01*
X-31501249Y-18153850D01*
X-31504696Y-18157411D01*
X-31944451Y-18597166D01*
X-31950786Y-18602827D01*
X-31981308Y-18627166D01*
X-31981310Y-18627169D01*
X-32015354Y-18677104D01*
X-32051229Y-18725713D01*
X-32055270Y-18733360D01*
X-32059027Y-18741163D01*
X-32059031Y-18741168D01*
X-32069616Y-18775484D01*
X-32076843Y-18798914D01*
X-32096799Y-18855944D01*
X-32098409Y-18864453D01*
X-32099700Y-18873012D01*
X-32099700Y-18873013D01*
X-32099700Y-18933436D01*
X-32101960Y-18993825D01*
X-32101958Y-18993832D01*
X-32100689Y-19005106D01*
X-32101943Y-19005247D01*
X-32099700Y-19022193D01*
X-32099700Y-23428036D01*
X-32100175Y-23436512D01*
X-32104547Y-23475307D01*
X-32093310Y-23534685D01*
X-32093311Y-23534686D01*
X-32084306Y-23594434D01*
X-32081766Y-23602667D01*
X-32078896Y-23610867D01*
X-32078895Y-23610876D01*
X-32050660Y-23664299D01*
X-32024441Y-23718744D01*
X-32024437Y-23718748D01*
X-32019569Y-23725888D01*
X-32014425Y-23732858D01*
X-32014424Y-23732862D01*
X-31971691Y-23775594D01*
X-31930595Y-23819886D01*
X-31930590Y-23819888D01*
X-31921721Y-23826962D01*
X-31922528Y-23827975D01*
X-31908941Y-23838343D01*
X-30136823Y-25610461D01*
X-30131183Y-25616772D01*
X-30106832Y-25647308D01*
X-30056894Y-25681354D01*
X-30008285Y-25717230D01*
X-30008279Y-25717231D01*
X-30000638Y-25721271D01*
X-29992836Y-25725027D01*
X-29992832Y-25725031D01*
X-29992826Y-25725032D01*
X-29992826Y-25725033D01*
X-29935085Y-25742843D01*
X-29878051Y-25762801D01*
X-29869557Y-25764407D01*
X-29860987Y-25765699D01*
X-29860987Y-25765700D01*
X-29800550Y-25765700D01*
X-29798646Y-25765771D01*
X-29740176Y-25767959D01*
X-29740172Y-25767958D01*
X-29728899Y-25766689D01*
X-29728758Y-25767932D01*
X-29711813Y-25765700D01*
X-22074305Y-25765700D01*
X-21998605Y-25785984D01*
X-21979909Y-25798730D01*
X-21978426Y-25799911D01*
X-21978419Y-25799919D01*
X-21832930Y-25891336D01*
X-21670746Y-25948087D01*
X-21500000Y-25967325D01*
X-21329254Y-25948087D01*
X-21209109Y-25906046D01*
X-21167069Y-25891336D01*
X-21100421Y-25849457D01*
X-21021581Y-25799919D01*
X-20900081Y-25678419D01*
X-20861355Y-25616787D01*
X-20808663Y-25532930D01*
X-20751913Y-25370745D01*
X-20732675Y-25200000D01*
X-20732675Y-25199999D01*
X-20751913Y-25029254D01*
X-20808663Y-24867069D01*
X-20900082Y-24721579D01*
X-21021579Y-24600082D01*
X-21167073Y-24508661D01*
X-21173475Y-24505578D01*
X-21232875Y-24454454D01*
X-21258754Y-24380480D01*
X-21244180Y-24303477D01*
X-21214833Y-24262119D01*
X-19354758Y-22402044D01*
X-19286887Y-22362859D01*
X-19247702Y-22357700D01*
X-9359448Y-22357700D01*
X-9283748Y-22377984D01*
X-9231255Y-22428549D01*
X-9220681Y-22445375D01*
X-9199919Y-22478419D01*
X-9078419Y-22599919D01*
X-8932930Y-22691336D01*
X-8770746Y-22748087D01*
X-8600000Y-22767325D01*
X-8429254Y-22748087D01*
X-8309109Y-22706046D01*
X-8267069Y-22691336D01*
X-8200421Y-22649457D01*
X-8121581Y-22599919D01*
X-8023706Y-22502044D01*
X-7955835Y-22462859D01*
X-7916650Y-22457700D01*
X-4922298Y-22457700D01*
X-4846598Y-22477984D01*
X-4815241Y-22502044D01*
X-3564694Y-23752589D01*
X-3525511Y-23820458D01*
X-3525511Y-23898828D01*
X-3526871Y-23903592D01*
X-3535484Y-23931986D01*
X-3554987Y-24130000D01*
X-3535484Y-24328014D01*
X-3477726Y-24518419D01*
X-3383931Y-24693897D01*
X-3257704Y-24847704D01*
X-3103897Y-24973931D01*
X-2928419Y-25067726D01*
X-2738014Y-25125484D01*
X-2589618Y-25140100D01*
X-2589615Y-25140100D01*
X-2490385Y-25140100D01*
X-2490382Y-25140100D01*
X-2341986Y-25125484D01*
X-2151581Y-25067726D01*
X-1976103Y-24973931D01*
X-1822296Y-24847704D01*
X-1820192Y-24845141D01*
X-1788034Y-24805956D01*
X-1696069Y-24693897D01*
X-1641521Y-24591845D01*
X-1602274Y-24518420D01*
X-1544515Y-24328013D01*
X-1544515Y-24328012D01*
X-1525013Y-24130000D01*
X-1544515Y-23931987D01*
X-1544515Y-23931986D01*
X-1602274Y-23741579D01*
X-1696068Y-23566104D01*
X-1822295Y-23412296D01*
X-1822296Y-23412295D01*
X-1976104Y-23286068D01*
X-2151580Y-23192274D01*
X-2151579Y-23192274D01*
X-2341987Y-23134515D01*
X-2453752Y-23123507D01*
X-2490382Y-23119900D01*
X-2589618Y-23119900D01*
X-2629531Y-23123831D01*
X-2738012Y-23134515D01*
X-2738019Y-23134517D01*
X-2766407Y-23143128D01*
X-2844735Y-23145691D01*
X-2913851Y-23108747D01*
X-2917410Y-23105303D01*
X-4325165Y-21697547D01*
X-4330824Y-21691215D01*
X-4355167Y-21660692D01*
X-4355170Y-21660689D01*
X-4405105Y-21626644D01*
X-4453713Y-21590770D01*
X-4461364Y-21586726D01*
X-4469166Y-21582970D01*
X-4469166Y-21582969D01*
X-4469168Y-21582969D01*
X-4526914Y-21565156D01*
X-4564500Y-21552004D01*
X-4629253Y-21507857D01*
X-4663257Y-21437248D01*
X-4657401Y-21359097D01*
X-4613254Y-21294344D01*
X-4542645Y-21260340D01*
X-4514497Y-21257700D01*
X1347702Y-21257700D01*
X1423402Y-21277984D01*
X1454758Y-21302044D01*
X4255170Y-24102455D01*
X4260828Y-24108787D01*
X4285168Y-24139308D01*
X4285169Y-24139308D01*
X4285171Y-24139311D01*
X4335104Y-24173354D01*
X4383711Y-24209228D01*
X4391389Y-24213285D01*
X4399163Y-24217029D01*
X4399166Y-24217030D01*
X4399168Y-24217031D01*
X4456900Y-24234839D01*
X4513947Y-24254800D01*
X4513947Y-24254801D01*
X4522413Y-24256403D01*
X4531011Y-24257699D01*
X4531013Y-24257700D01*
X4531015Y-24257700D01*
X4591425Y-24257700D01*
X4651825Y-24259960D01*
X4651833Y-24259957D01*
X4663099Y-24258689D01*
X4663239Y-24259932D01*
X4680190Y-24257700D01*
X10074641Y-24257700D01*
X10083117Y-24258175D01*
X10121912Y-24262547D01*
X10181291Y-24251311D01*
X10241039Y-24242306D01*
X10249272Y-24239766D01*
X10257472Y-24236896D01*
X10257481Y-24236895D01*
X10310904Y-24208660D01*
X10365349Y-24182441D01*
X10365353Y-24182437D01*
X10372493Y-24177569D01*
X10379463Y-24172425D01*
X10379467Y-24172424D01*
X10422199Y-24129691D01*
X10466491Y-24088595D01*
X10466493Y-24088590D01*
X10473567Y-24079721D01*
X10474580Y-24080528D01*
X10484948Y-24066941D01*
X12702463Y-21849425D01*
X12708785Y-21843776D01*
X12739308Y-21819437D01*
X12773354Y-21769499D01*
X12809230Y-21720890D01*
X12809231Y-21720884D01*
X12813269Y-21713247D01*
X12817027Y-21705441D01*
X12817031Y-21705437D01*
X12834839Y-21647704D01*
X12854801Y-21590658D01*
X12854801Y-21590655D01*
X12856404Y-21582186D01*
X12857698Y-21573597D01*
X12857700Y-21573592D01*
X12857699Y-21513180D01*
X12859960Y-21452780D01*
X12859957Y-21452771D01*
X12858689Y-21441504D01*
X12859928Y-21441364D01*
X12857700Y-21424415D01*
X12857700Y-11692893D01*
X13986500Y-11692893D01*
X13987737Y-11718073D01*
X13992495Y-11766381D01*
X13993117Y-11772699D01*
X13996817Y-11797644D01*
X14013692Y-11882481D01*
X14042913Y-11978811D01*
X14042915Y-11978815D01*
X14065522Y-12033392D01*
X14101124Y-12100000D01*
X14112974Y-12122169D01*
X14145584Y-12170973D01*
X14209444Y-12248785D01*
X14251214Y-12290555D01*
X14329026Y-12354415D01*
X14377830Y-12387025D01*
X14377839Y-12387029D01*
X14377841Y-12387031D01*
X14466597Y-12434472D01*
X14466602Y-12434474D01*
X14466607Y-12434477D01*
X14466611Y-12434478D01*
X14466616Y-12434481D01*
X14478974Y-12439600D01*
X14521182Y-12457083D01*
X14617506Y-12486304D01*
X14702356Y-12503183D01*
X14702359Y-12503183D01*
X14702367Y-12503185D01*
X14702366Y-12503185D01*
X14727298Y-12506883D01*
X14727299Y-12506883D01*
X14781928Y-12512263D01*
X14804204Y-12513357D01*
X14807106Y-12513500D01*
X14807108Y-12513500D01*
X17335100Y-12513500D01*
X17410800Y-12533784D01*
X17466216Y-12589200D01*
X17486500Y-12664900D01*
X17486500Y-19692893D01*
X17487737Y-19718073D01*
X17493117Y-19772699D01*
X17496817Y-19797644D01*
X17513692Y-19882481D01*
X17542913Y-19978811D01*
X17542915Y-19978815D01*
X17565521Y-20033390D01*
X17612974Y-20122169D01*
X17645584Y-20170973D01*
X17709444Y-20248785D01*
X17751214Y-20290555D01*
X17829026Y-20354415D01*
X17877830Y-20387025D01*
X17877839Y-20387029D01*
X17877841Y-20387031D01*
X17966597Y-20434472D01*
X17966602Y-20434474D01*
X17966607Y-20434477D01*
X17966611Y-20434478D01*
X17966616Y-20434481D01*
X17978974Y-20439600D01*
X18021182Y-20457083D01*
X18117506Y-20486304D01*
X18202356Y-20503183D01*
X18202359Y-20503183D01*
X18202367Y-20503185D01*
X18202366Y-20503185D01*
X18227298Y-20506883D01*
X18227299Y-20506883D01*
X18281928Y-20512263D01*
X18304204Y-20513357D01*
X18307106Y-20513500D01*
X18307108Y-20513500D01*
X23192895Y-20513500D01*
X23195796Y-20513357D01*
X23218073Y-20512263D01*
X23232509Y-20510841D01*
X23272706Y-20506883D01*
X23272704Y-20506883D01*
X23289326Y-20504416D01*
X23297639Y-20503183D01*
X23382486Y-20486306D01*
X23478820Y-20457082D01*
X23533396Y-20434475D01*
X23622169Y-20387025D01*
X23670973Y-20354415D01*
X23748785Y-20290555D01*
X23790555Y-20248785D01*
X23854415Y-20170973D01*
X23887025Y-20122169D01*
X23934475Y-20033396D01*
X23957082Y-19978820D01*
X23986305Y-19882489D01*
X24003183Y-19797643D01*
X24003184Y-19797636D01*
X24003185Y-19797632D01*
X24003185Y-19797633D01*
X24006883Y-19772701D01*
X24006883Y-19772700D01*
X24006883Y-19772699D01*
X24012263Y-19718071D01*
X24013500Y-19692892D01*
X24013500Y-13664899D01*
X24033784Y-13589200D01*
X24089200Y-13533784D01*
X24164900Y-13513500D01*
X31692895Y-13513500D01*
X31695796Y-13513357D01*
X31718073Y-13512263D01*
X31732509Y-13510841D01*
X31772706Y-13506883D01*
X31772704Y-13506883D01*
X31789326Y-13504416D01*
X31797639Y-13503183D01*
X31882486Y-13486306D01*
X31978820Y-13457082D01*
X32033396Y-13434475D01*
X32122169Y-13387025D01*
X32170973Y-13354415D01*
X32248785Y-13290555D01*
X32290555Y-13248785D01*
X32354415Y-13170973D01*
X32387025Y-13122169D01*
X32434475Y-13033396D01*
X32457082Y-12978820D01*
X32486305Y-12882489D01*
X32503183Y-12797643D01*
X32503183Y-12797639D01*
X32503185Y-12797632D01*
X32503185Y-12797633D01*
X32506883Y-12772701D01*
X32506883Y-12772700D01*
X32512262Y-12718079D01*
X32512263Y-12718071D01*
X32513500Y-12692892D01*
X32513500Y-12380904D01*
X32533784Y-12305204D01*
X32589200Y-12249788D01*
X32664900Y-12229504D01*
X32740600Y-12249788D01*
X32796016Y-12305204D01*
X32814802Y-12363462D01*
X32814967Y-12363435D01*
X32815157Y-12364563D01*
X32815539Y-12365748D01*
X32815809Y-12368427D01*
X32848805Y-12506883D01*
X32884406Y-12656271D01*
X32990749Y-12932384D01*
X32990756Y-12932399D01*
X33132951Y-13191871D01*
X33132953Y-13191874D01*
X33132955Y-13191877D01*
X33308475Y-13430095D01*
X33514181Y-13642794D01*
X33746401Y-13826176D01*
X34000992Y-13976970D01*
X34075736Y-14008664D01*
X34273399Y-14092481D01*
X34273403Y-14092482D01*
X34273410Y-14092485D01*
X34558794Y-14170660D01*
X34789889Y-14201739D01*
X34852049Y-14210100D01*
X34852051Y-14210100D01*
X35073886Y-14210100D01*
X35114129Y-14207405D01*
X35295237Y-14195282D01*
X35585205Y-14136344D01*
X35864730Y-14039282D01*
X36128824Y-13905829D01*
X36372775Y-13738367D01*
X36372777Y-13738364D01*
X36372780Y-13738363D01*
X36478445Y-13642794D01*
X36592228Y-13539883D01*
X36783267Y-13313920D01*
X36942484Y-13064511D01*
X37067038Y-12796105D01*
X37154705Y-12513492D01*
X37203922Y-12221717D01*
X37207250Y-12122169D01*
X37213809Y-11925995D01*
X37213808Y-11925992D01*
X37213809Y-11925984D01*
X37184191Y-11631573D01*
X37115596Y-11343736D01*
X37009248Y-11067610D01*
X36936841Y-10935485D01*
X36867048Y-10808128D01*
X36867046Y-10808126D01*
X36867045Y-10808123D01*
X36691525Y-10569905D01*
X36485819Y-10357206D01*
X36253599Y-10173824D01*
X35999008Y-10023030D01*
X35999001Y-10023027D01*
X35726600Y-9907518D01*
X35726591Y-9907515D01*
X35726590Y-9907515D01*
X35441206Y-9829340D01*
X35343453Y-9816193D01*
X35147951Y-9789900D01*
X35147949Y-9789900D01*
X34926116Y-9789900D01*
X34926114Y-9789900D01*
X34704771Y-9804717D01*
X34704759Y-9804718D01*
X34414800Y-9863654D01*
X34202439Y-9937393D01*
X34135270Y-9960718D01*
X34135267Y-9960719D01*
X34135258Y-9960723D01*
X33871179Y-10094169D01*
X33627219Y-10261636D01*
X33407774Y-10460114D01*
X33216734Y-10686079D01*
X33057518Y-10935485D01*
X32932960Y-11203899D01*
X32845294Y-11486511D01*
X32845293Y-11486514D01*
X32814191Y-11670903D01*
X32781598Y-11742174D01*
X32717737Y-11787601D01*
X32639717Y-11795011D01*
X32568446Y-11762418D01*
X32523019Y-11698557D01*
X32513500Y-11645720D01*
X32513500Y-8164900D01*
X32533784Y-8089200D01*
X32589200Y-8033784D01*
X32664900Y-8013500D01*
X38192895Y-8013500D01*
X38195796Y-8013357D01*
X38218073Y-8012263D01*
X38232509Y-8010841D01*
X38272706Y-8006883D01*
X38272704Y-8006883D01*
X38289326Y-8004416D01*
X38297639Y-8003183D01*
X38382486Y-7986306D01*
X38478820Y-7957082D01*
X38533396Y-7934475D01*
X38622169Y-7887025D01*
X38670973Y-7854415D01*
X38748785Y-7790555D01*
X38790555Y-7748785D01*
X38854415Y-7670973D01*
X38887025Y-7622169D01*
X38934475Y-7533396D01*
X38957082Y-7478820D01*
X38986305Y-7382489D01*
X39003183Y-7297643D01*
X39003183Y-7297639D01*
X39003185Y-7297632D01*
X39003185Y-7297633D01*
X39006883Y-7272701D01*
X39006883Y-7272700D01*
X39012262Y-7218079D01*
X39012263Y-7218071D01*
X39013500Y-7192892D01*
X39013500Y-3307107D01*
X39012263Y-3281928D01*
X39006883Y-3227299D01*
X39003185Y-3202367D01*
X39003184Y-3202366D01*
X39001193Y-3192350D01*
X38986305Y-3117510D01*
X38957082Y-3021179D01*
X38934475Y-2966603D01*
X38887025Y-2877830D01*
X38854415Y-2829026D01*
X38790555Y-2751214D01*
X38748785Y-2709444D01*
X38670973Y-2645584D01*
X38641487Y-2625882D01*
X38589815Y-2566961D01*
X38574526Y-2490097D01*
X38599718Y-2415885D01*
X38641486Y-2374117D01*
X38670973Y-2354415D01*
X38748785Y-2290555D01*
X38790555Y-2248785D01*
X38854415Y-2170973D01*
X38887025Y-2122169D01*
X38934475Y-2033396D01*
X38957082Y-1978820D01*
X38986305Y-1882489D01*
X39003183Y-1797643D01*
X39003183Y-1797639D01*
X39003185Y-1797632D01*
X39003185Y-1797633D01*
X39006883Y-1772701D01*
X39006883Y-1772700D01*
X39012262Y-1718079D01*
X39012263Y-1718071D01*
X39013500Y-1692892D01*
X39013500Y1692892D01*
X39012263Y1718071D01*
X39006883Y1772700D01*
X39003185Y1797632D01*
X39003184Y1797633D01*
X38996940Y1829026D01*
X38986305Y1882489D01*
X38957082Y1978820D01*
X38934475Y2033396D01*
X38887025Y2122169D01*
X38854415Y2170973D01*
X38790555Y2248785D01*
X38748785Y2290555D01*
X38670973Y2354415D01*
X38641488Y2374116D01*
X38589817Y2433034D01*
X38574526Y2509898D01*
X38599716Y2584110D01*
X38641486Y2625881D01*
X38670973Y2645584D01*
X38748785Y2709444D01*
X38790555Y2751214D01*
X38854415Y2829026D01*
X38887025Y2877830D01*
X38934475Y2966603D01*
X38957082Y3021179D01*
X38986305Y3117510D01*
X39003183Y3202356D01*
X39003184Y3202362D01*
X39003185Y3202367D01*
X39003185Y3202366D01*
X39006883Y3227298D01*
X39006883Y3227299D01*
X39012262Y3281920D01*
X39012262Y3281921D01*
X39012263Y3281928D01*
X39013500Y3307107D01*
X39013500Y6692892D01*
X39012263Y6718071D01*
X39006883Y6772700D01*
X39006883Y6772701D01*
X39003185Y6797633D01*
X39003185Y6797632D01*
X39003184Y6797633D01*
X38986307Y6882477D01*
X38986305Y6882489D01*
X38957082Y6978820D01*
X38934475Y7033396D01*
X38887025Y7122169D01*
X38854415Y7170973D01*
X38790555Y7248785D01*
X38748785Y7290555D01*
X38670973Y7354415D01*
X38622169Y7387025D01*
X38533396Y7434475D01*
X38478820Y7457082D01*
X38382486Y7486306D01*
X38297639Y7503183D01*
X38289326Y7504416D01*
X38272704Y7506883D01*
X38272706Y7506883D01*
X38232509Y7510841D01*
X38218073Y7512263D01*
X38195796Y7513357D01*
X38192895Y7513500D01*
X38192893Y7513500D01*
X32664900Y7513500D01*
X32589200Y7533784D01*
X32533784Y7589200D01*
X32513500Y7664900D01*
X32513500Y9607704D01*
X32513500Y11619098D01*
X32533783Y11694795D01*
X32589199Y11750211D01*
X32664899Y11770495D01*
X32740599Y11750211D01*
X32796015Y11694795D01*
X32814805Y11636537D01*
X32814967Y11636565D01*
X32815153Y11635458D01*
X32815537Y11634270D01*
X32815808Y11631578D01*
X32815809Y11631573D01*
X32884404Y11343736D01*
X32884406Y11343728D01*
X32990749Y11067615D01*
X32990756Y11067600D01*
X33132951Y10808128D01*
X33308475Y10569905D01*
X33308477Y10569903D01*
X33514181Y10357205D01*
X33746400Y10173824D01*
X34000991Y10023030D01*
X34000998Y10023027D01*
X34273399Y9907518D01*
X34558794Y9829340D01*
X34852049Y9789900D01*
X34852051Y9789900D01*
X35073886Y9789900D01*
X35295228Y9804717D01*
X35295240Y9804718D01*
X35585199Y9863654D01*
X35585205Y9863656D01*
X35864730Y9960718D01*
X35864736Y9960721D01*
X35864741Y9960723D01*
X36128820Y10094169D01*
X36128824Y10094171D01*
X36283263Y10200187D01*
X36372780Y10261636D01*
X36592225Y10460114D01*
X36640023Y10516650D01*
X36783267Y10686080D01*
X36942484Y10935489D01*
X37067038Y11203895D01*
X37154705Y11486508D01*
X37203922Y11778283D01*
X37213809Y12074016D01*
X37184191Y12368427D01*
X37115596Y12656264D01*
X37009248Y12932390D01*
X36867045Y13191877D01*
X36691525Y13430095D01*
X36485819Y13642794D01*
X36253599Y13826176D01*
X35999008Y13976970D01*
X35780772Y14069509D01*
X35726600Y14092481D01*
X35726598Y14092481D01*
X35726590Y14092485D01*
X35441206Y14170660D01*
X35204154Y14202541D01*
X35147951Y14210100D01*
X35147949Y14210100D01*
X34926116Y14210100D01*
X34926114Y14210100D01*
X34881845Y14207136D01*
X34704763Y14195282D01*
X34414795Y14136344D01*
X34135270Y14039282D01*
X33871176Y13905829D01*
X33755140Y13826175D01*
X33627219Y13738363D01*
X33462299Y13589200D01*
X33407772Y13539883D01*
X33216733Y13313920D01*
X33057516Y13064511D01*
X32973049Y12882489D01*
X32932960Y12796100D01*
X32845294Y12513488D01*
X32845293Y12513485D01*
X32814191Y12329096D01*
X32781599Y12257825D01*
X32717737Y12212398D01*
X32639717Y12204988D01*
X32568446Y12237580D01*
X32523019Y12301442D01*
X32513500Y12354279D01*
X32513500Y12692894D01*
X32513357Y12695796D01*
X32512263Y12718071D01*
X32506883Y12772700D01*
X32503412Y12796100D01*
X32503185Y12797633D01*
X32503185Y12797632D01*
X32503184Y12797633D01*
X32486307Y12882477D01*
X32486305Y12882489D01*
X32457082Y12978820D01*
X32434475Y13033396D01*
X32387025Y13122169D01*
X32354415Y13170973D01*
X32290555Y13248785D01*
X32248785Y13290555D01*
X32170973Y13354415D01*
X32122169Y13387025D01*
X32033396Y13434475D01*
X31978820Y13457082D01*
X31882486Y13486306D01*
X31797639Y13503183D01*
X31789326Y13504416D01*
X31772704Y13506883D01*
X31772706Y13506883D01*
X31732509Y13510841D01*
X31718073Y13512263D01*
X31695796Y13513357D01*
X31692895Y13513500D01*
X31692893Y13513500D01*
X23164900Y13513500D01*
X23089200Y13533784D01*
X23033784Y13589200D01*
X23013500Y13664900D01*
X23013500Y19692894D01*
X23013357Y19695796D01*
X23012263Y19718071D01*
X23006883Y19772700D01*
X23003185Y19797632D01*
X23003184Y19797633D01*
X22986307Y19882477D01*
X22986305Y19882489D01*
X22957082Y19978820D01*
X22934475Y20033396D01*
X22887025Y20122169D01*
X22854415Y20170973D01*
X22790555Y20248785D01*
X22748785Y20290555D01*
X22670973Y20354415D01*
X22622169Y20387025D01*
X22533396Y20434475D01*
X22478820Y20457082D01*
X22382486Y20486306D01*
X22297639Y20503183D01*
X22289326Y20504416D01*
X22272704Y20506883D01*
X22272706Y20506883D01*
X22232509Y20510841D01*
X22218073Y20512263D01*
X22195796Y20513357D01*
X22192895Y20513500D01*
X22192893Y20513500D01*
X14807108Y20513500D01*
X14807106Y20513500D01*
X14804204Y20513357D01*
X14781928Y20512263D01*
X14744619Y20508588D01*
X14727300Y20506883D01*
X14727301Y20506883D01*
X14702360Y20503183D01*
X14702355Y20503182D01*
X14702354Y20503182D01*
X14674595Y20497660D01*
X14617513Y20486306D01*
X14521179Y20457082D01*
X14466603Y20434475D01*
X14377830Y20387025D01*
X14329026Y20354415D01*
X14251214Y20290555D01*
X14209444Y20248785D01*
X14145584Y20170973D01*
X14112974Y20122169D01*
X14112969Y20122161D01*
X14112968Y20122158D01*
X14065522Y20033392D01*
X14042915Y19978815D01*
X14042913Y19978811D01*
X14013692Y19882481D01*
X13996817Y19797644D01*
X13996815Y19797632D01*
X13993117Y19772699D01*
X13987737Y19718073D01*
X13986500Y19692893D01*
X13986500Y16307106D01*
X13987737Y16281926D01*
X13987738Y16281919D01*
X13993116Y16227305D01*
X13996815Y16202368D01*
X13996816Y16202361D01*
X14003087Y16170835D01*
X14013693Y16117513D01*
X14013695Y16117506D01*
X14042910Y16021194D01*
X14042912Y16021189D01*
X14042913Y16021187D01*
X14065517Y15966615D01*
X14112971Y15877835D01*
X14121839Y15864563D01*
X14145583Y15829026D01*
X14145584Y15829025D01*
X14209441Y15751215D01*
X14251215Y15709441D01*
X14329025Y15645584D01*
X14329026Y15645583D01*
X14358208Y15626085D01*
X14377835Y15612971D01*
X14377839Y15612969D01*
X14466607Y15565521D01*
X14466609Y15565520D01*
X14466615Y15565517D01*
X14521187Y15542913D01*
X14521194Y15542911D01*
X14617506Y15513696D01*
X14617522Y15513692D01*
X14660805Y15505082D01*
X14702363Y15496816D01*
X14727301Y15493117D01*
X14781927Y15487737D01*
X14804203Y15486642D01*
X14807105Y15486500D01*
X14807107Y15486500D01*
X17335100Y15486500D01*
X17410800Y15466216D01*
X17466216Y15410800D01*
X17486500Y15335100D01*
X17486500Y8307106D01*
X17487737Y8281926D01*
X17487738Y8281919D01*
X17493116Y8227305D01*
X17496815Y8202368D01*
X17496816Y8202361D01*
X17502797Y8172296D01*
X17513693Y8117513D01*
X17513695Y8117506D01*
X17542910Y8021194D01*
X17542912Y8021189D01*
X17542913Y8021187D01*
X17565517Y7966615D01*
X17612971Y7877835D01*
X17626085Y7858208D01*
X17645583Y7829026D01*
X17645584Y7829025D01*
X17709441Y7751215D01*
X17751215Y7709441D01*
X17829025Y7645584D01*
X17829026Y7645583D01*
X17858208Y7626085D01*
X17877835Y7612971D01*
X17877839Y7612969D01*
X17966607Y7565521D01*
X17966609Y7565520D01*
X17966615Y7565517D01*
X18021187Y7542913D01*
X18021194Y7542911D01*
X18117506Y7513696D01*
X18117522Y7513692D01*
X18151754Y7506883D01*
X18202363Y7496816D01*
X18227301Y7493117D01*
X18281927Y7487737D01*
X18304203Y7486642D01*
X18307105Y7486500D01*
X18307107Y7486500D01*
X26335100Y7486500D01*
X26410800Y7466216D01*
X26466216Y7410800D01*
X26486500Y7335100D01*
X26486500Y5077695D01*
X26486500Y3307106D01*
X26487737Y3281926D01*
X26487738Y3281920D01*
X26487738Y3281918D01*
X26493117Y3227293D01*
X26496817Y3202362D01*
X26496817Y3202361D01*
X26513692Y3117517D01*
X26513694Y3117512D01*
X26542913Y3021188D01*
X26565512Y2966626D01*
X26565519Y2966611D01*
X26612974Y2877829D01*
X26645580Y2829031D01*
X26645584Y2829025D01*
X26701455Y2760947D01*
X26733799Y2689562D01*
X26726117Y2611569D01*
X26680468Y2547866D01*
X26609083Y2515522D01*
X26584421Y2513500D01*
X24164900Y2513500D01*
X24089200Y2533784D01*
X24033784Y2589200D01*
X24013500Y2664900D01*
X24013500Y5692894D01*
X24013357Y5695796D01*
X24012263Y5718071D01*
X24006883Y5772700D01*
X24003185Y5797632D01*
X24003184Y5797633D01*
X23986307Y5882477D01*
X23986305Y5882489D01*
X23957082Y5978820D01*
X23934475Y6033396D01*
X23887025Y6122169D01*
X23854415Y6170973D01*
X23790555Y6248785D01*
X23748785Y6290555D01*
X23670973Y6354415D01*
X23622169Y6387025D01*
X23533396Y6434475D01*
X23478820Y6457082D01*
X23382486Y6486306D01*
X23297639Y6503183D01*
X23289326Y6504416D01*
X23272704Y6506883D01*
X23272706Y6506883D01*
X23232509Y6510841D01*
X23218073Y6512263D01*
X23195796Y6513357D01*
X23192895Y6513500D01*
X23192893Y6513500D01*
X16550000Y6513500D01*
X14807108Y6513500D01*
X14807106Y6513500D01*
X14804204Y6513357D01*
X14781928Y6512263D01*
X14744619Y6508588D01*
X14727300Y6506883D01*
X14727301Y6506883D01*
X14702360Y6503183D01*
X14702355Y6503182D01*
X14702354Y6503182D01*
X14674595Y6497660D01*
X14617513Y6486306D01*
X14521179Y6457082D01*
X14466603Y6434475D01*
X14377830Y6387025D01*
X14329026Y6354415D01*
X14251214Y6290555D01*
X14209444Y6248785D01*
X14145584Y6170973D01*
X14112974Y6122169D01*
X14112969Y6122161D01*
X14112968Y6122158D01*
X14065522Y6033392D01*
X14042915Y5978815D01*
X14042913Y5978811D01*
X14013692Y5882481D01*
X13996817Y5797644D01*
X13996815Y5797632D01*
X13993117Y5772699D01*
X13987737Y5718073D01*
X13986642Y5695796D01*
X13986500Y5692895D01*
X13986500Y2307106D01*
X13987312Y2290555D01*
X13987736Y2281934D01*
X13990912Y2249680D01*
X13990916Y2249647D01*
X13991000Y2248790D01*
X13993120Y2227277D01*
X13993120Y2227275D01*
X13996817Y2202360D01*
X14013692Y2117518D01*
X14013695Y2117507D01*
X14042910Y2021194D01*
X14042912Y2021189D01*
X14042913Y2021187D01*
X14065517Y1966615D01*
X14112971Y1877835D01*
X14126085Y1858208D01*
X14145583Y1829026D01*
X14145584Y1829025D01*
X14209441Y1751215D01*
X14251215Y1709441D01*
X14329025Y1645584D01*
X14329026Y1645583D01*
X14358208Y1626085D01*
X14377835Y1612971D01*
X14377839Y1612969D01*
X14466607Y1565521D01*
X14466609Y1565520D01*
X14466615Y1565517D01*
X14521187Y1542913D01*
X14521194Y1542911D01*
X14617506Y1513696D01*
X14617522Y1513692D01*
X14660805Y1505082D01*
X14702363Y1496816D01*
X14727301Y1493117D01*
X14781927Y1487737D01*
X14804203Y1486642D01*
X14807105Y1486500D01*
X14807107Y1486500D01*
X17335100Y1486500D01*
X17410800Y1466216D01*
X17466216Y1410800D01*
X17486500Y1335100D01*
X17486500Y-2303D01*
X17486500Y-5692893D01*
X17487737Y-5718073D01*
X17489829Y-5739311D01*
X17493117Y-5772699D01*
X17496817Y-5797644D01*
X17513692Y-5882481D01*
X17542913Y-5978811D01*
X17542915Y-5978815D01*
X17565522Y-6033392D01*
X17607514Y-6111955D01*
X17612974Y-6122169D01*
X17645584Y-6170973D01*
X17709444Y-6248785D01*
X17751214Y-6290555D01*
X17829026Y-6354415D01*
X17877830Y-6387025D01*
X17877839Y-6387029D01*
X17877841Y-6387031D01*
X17966597Y-6434472D01*
X17966602Y-6434474D01*
X17966607Y-6434477D01*
X17966611Y-6434478D01*
X17966616Y-6434481D01*
X17978974Y-6439600D01*
X18021182Y-6457083D01*
X18117506Y-6486304D01*
X18202356Y-6503183D01*
X18202359Y-6503183D01*
X18202367Y-6503185D01*
X18202366Y-6503185D01*
X18227298Y-6506883D01*
X18227299Y-6506883D01*
X18281928Y-6512263D01*
X18304204Y-6513357D01*
X18307106Y-6513500D01*
X18307108Y-6513500D01*
X23192895Y-6513500D01*
X23195796Y-6513357D01*
X23218073Y-6512263D01*
X23232509Y-6510841D01*
X23272706Y-6506883D01*
X23272704Y-6506883D01*
X23289326Y-6504416D01*
X23297639Y-6503183D01*
X23382486Y-6486306D01*
X23478820Y-6457082D01*
X23533396Y-6434475D01*
X23622169Y-6387025D01*
X23670973Y-6354415D01*
X23748785Y-6290555D01*
X23790555Y-6248785D01*
X23854415Y-6170973D01*
X23887025Y-6122169D01*
X23934475Y-6033396D01*
X23957082Y-5978820D01*
X23986305Y-5882489D01*
X24003183Y-5797643D01*
X24003184Y-5797636D01*
X24003185Y-5797632D01*
X24003185Y-5797633D01*
X24006883Y-5772701D01*
X24006883Y-5772700D01*
X24010171Y-5739311D01*
X24012263Y-5718071D01*
X24013500Y-5692892D01*
X24013500Y-2664900D01*
X24033784Y-2589200D01*
X24089200Y-2533784D01*
X24164900Y-2513500D01*
X26584421Y-2513500D01*
X26660121Y-2533784D01*
X26715537Y-2589200D01*
X26735821Y-2664900D01*
X26715537Y-2740600D01*
X26701455Y-2760947D01*
X26645584Y-2829025D01*
X26645583Y-2829026D01*
X26629402Y-2853244D01*
X26612971Y-2877835D01*
X26565517Y-2966615D01*
X26542913Y-3021187D01*
X26542913Y-3021188D01*
X26542910Y-3021194D01*
X26513695Y-3117506D01*
X26513693Y-3117513D01*
X26506071Y-3155834D01*
X26496816Y-3202361D01*
X26496815Y-3202369D01*
X26496815Y-3202368D01*
X26493116Y-3227305D01*
X26491461Y-3244115D01*
X26487737Y-3281926D01*
X26486849Y-3299999D01*
X26486500Y-3307104D01*
X26486500Y-7335100D01*
X26466216Y-7410800D01*
X26410800Y-7466216D01*
X26335100Y-7486500D01*
X14807105Y-7486500D01*
X14804203Y-7486642D01*
X14781927Y-7487737D01*
X14727301Y-7493117D01*
X14702363Y-7496816D01*
X14660805Y-7505082D01*
X14617522Y-7513692D01*
X14617506Y-7513696D01*
X14542789Y-7536360D01*
X14521187Y-7542913D01*
X14466615Y-7565517D01*
X14466609Y-7565520D01*
X14466607Y-7565521D01*
X14438870Y-7580347D01*
X14377835Y-7612971D01*
X14371120Y-7617458D01*
X14329026Y-7645583D01*
X14329025Y-7645584D01*
X14251215Y-7709441D01*
X14209441Y-7751215D01*
X14145584Y-7829025D01*
X14145583Y-7829026D01*
X14128620Y-7854415D01*
X14112971Y-7877835D01*
X14108059Y-7887025D01*
X14070613Y-7957082D01*
X14065517Y-7966615D01*
X14046097Y-8013500D01*
X14042913Y-8021188D01*
X14042910Y-8021194D01*
X14013695Y-8117506D01*
X14013693Y-8117513D01*
X14004268Y-8164900D01*
X13996816Y-8202361D01*
X13996815Y-8202369D01*
X13996815Y-8202368D01*
X13993116Y-8227305D01*
X13989779Y-8261186D01*
X13987737Y-8281926D01*
X13986500Y-8307106D01*
X13986500Y-11692893D01*
X12857700Y-11692893D01*
X12857700Y-2329963D01*
X12858176Y-2321481D01*
X12862547Y-2282693D01*
X12851311Y-2223313D01*
X12842306Y-2163567D01*
X12842305Y-2163564D01*
X12839758Y-2155306D01*
X12836897Y-2147128D01*
X12823704Y-2122166D01*
X12808660Y-2093700D01*
X12782441Y-2039256D01*
X12782438Y-2039253D01*
X12782438Y-2039252D01*
X12777564Y-2032102D01*
X12772425Y-2025139D01*
X12729690Y-1982404D01*
X12723844Y-1976104D01*
X12688595Y-1938114D01*
X12688593Y-1938112D01*
X12679727Y-1931042D01*
X12680498Y-1930074D01*
X12666941Y-1919655D01*
X11102044Y-354757D01*
X11062859Y-286886D01*
X11057700Y-247701D01*
X11057700Y10516650D01*
X11077984Y10592350D01*
X11102044Y10623706D01*
X11199917Y10721579D01*
X11199919Y10721581D01*
X11254300Y10808128D01*
X11291336Y10867069D01*
X11306046Y10909109D01*
X11348087Y11029254D01*
X11367325Y11200000D01*
X11348087Y11370746D01*
X11291336Y11532930D01*
X11199919Y11678419D01*
X11078419Y11799919D01*
X10932930Y11891336D01*
X10770746Y11948087D01*
X10600000Y11967325D01*
X10429254Y11948087D01*
X10309109Y11906046D01*
X10267069Y11891336D01*
X10200421Y11849457D01*
X10121581Y11799919D01*
X10121579Y11799917D01*
X10066006Y11744344D01*
X9998135Y11705159D01*
X9958950Y11700000D01*
X8900000Y11700000D01*
X8900000Y10799998D01*
X9343179Y10445455D01*
X9389620Y10382327D01*
X9400000Y10327232D01*
X9400000Y-1927232D01*
X9379716Y-2002932D01*
X9343179Y-2045455D01*
X8900000Y-2399998D01*
X8900000Y-3299999D01*
X8900000Y-3300000D01*
X9289983Y-3611986D01*
X9343179Y-3654543D01*
X9389619Y-3717672D01*
X9400000Y-3772767D01*
X9400000Y-12332306D01*
X9379716Y-12408006D01*
X9349553Y-12445136D01*
X7910052Y-13733108D01*
X7840112Y-13768468D01*
X7761862Y-13764120D01*
X7696269Y-13721231D01*
X7660909Y-13651291D01*
X7657699Y-13620286D01*
X7657699Y-13579944D01*
X7658175Y-13571491D01*
X7662547Y-13532693D01*
X7651311Y-13473313D01*
X7642306Y-13413567D01*
X7642305Y-13413564D01*
X7639758Y-13405306D01*
X7636897Y-13397128D01*
X7608660Y-13343700D01*
X7582441Y-13289256D01*
X7582438Y-13289253D01*
X7582438Y-13289252D01*
X7577564Y-13282102D01*
X7572425Y-13275139D01*
X7529690Y-13232404D01*
X7488597Y-13188116D01*
X7488596Y-13188115D01*
X7488595Y-13188114D01*
X7488593Y-13188112D01*
X7479727Y-13181042D01*
X7480498Y-13180074D01*
X7466941Y-13169655D01*
X-245303Y-5457410D01*
X-284488Y-5389539D01*
X-284488Y-5311169D01*
X-283128Y-5306407D01*
X-274517Y-5278019D01*
X-274515Y-5278012D01*
X-255013Y-5080000D01*
X-274515Y-4881987D01*
X-274515Y-4881986D01*
X-332274Y-4691579D01*
X-426068Y-4516104D01*
X-552295Y-4362296D01*
X-552296Y-4362295D01*
X-706104Y-4236068D01*
X-881580Y-4142274D01*
X-881579Y-4142274D01*
X-1071987Y-4084515D01*
X-1183752Y-4073507D01*
X-1220382Y-4069900D01*
X-1319618Y-4069900D01*
X-1359531Y-4073831D01*
X-1468012Y-4084515D01*
X-1468013Y-4084515D01*
X-1658420Y-4142274D01*
X-1763459Y-4198419D01*
X-1833897Y-4236069D01*
X-1987704Y-4362296D01*
X-2113931Y-4516103D01*
X-2207726Y-4691581D01*
X-2265484Y-4881986D01*
X-2284987Y-5080000D01*
X-2265484Y-5278014D01*
X-2207726Y-5468419D01*
X-2113931Y-5643897D01*
X-1987704Y-5797704D01*
X-1833897Y-5923931D01*
X-1658419Y-6017726D01*
X-1468014Y-6075484D01*
X-1319618Y-6090100D01*
X-1319615Y-6090100D01*
X-1220385Y-6090100D01*
X-1220382Y-6090100D01*
X-1071986Y-6075484D01*
X-1043592Y-6066870D01*
X-965265Y-6064307D01*
X-896149Y-6101250D01*
X-892618Y-6104666D01*
X2902815Y-9900100D01*
X6697956Y-13695241D01*
X6737141Y-13763112D01*
X6742300Y-13802297D01*
X6742300Y-18570036D01*
X6741824Y-18578512D01*
X6737453Y-18617307D01*
X6739319Y-18627168D01*
X6748688Y-18676686D01*
X6757693Y-18736432D01*
X6760247Y-18744709D01*
X6763102Y-18752871D01*
X6791339Y-18806299D01*
X6817556Y-18860740D01*
X6822455Y-18867924D01*
X6827573Y-18874859D01*
X6870308Y-18917594D01*
X6911407Y-18961888D01*
X6920278Y-18968962D01*
X6919497Y-18969940D01*
X6933060Y-18980346D01*
X7071312Y-19118598D01*
X7193275Y-19240560D01*
X7232460Y-19308431D01*
X7236667Y-19364566D01*
X7232675Y-19399998D01*
X7232675Y-19399999D01*
X7236241Y-19431648D01*
X7224561Y-19509144D01*
X7175697Y-19570416D01*
X7102745Y-19599048D01*
X7085793Y-19600000D01*
X6361591Y-19600000D01*
X6285891Y-19579716D01*
X6255899Y-19557002D01*
X6145988Y-19449839D01*
X2300000Y-15700000D01*
X-1800000Y-15700000D01*
X-1800000Y-16748600D01*
X-1820284Y-16824300D01*
X-1875700Y-16879716D01*
X-1951400Y-16900000D01*
X-6244540Y-16900000D01*
X-6320240Y-16879716D01*
X-6342336Y-16864177D01*
X-7160013Y-16172297D01*
X-7600000Y-15800000D01*
X-7600001Y-15800000D01*
X-24947203Y-15800000D01*
X-25022903Y-15779716D01*
X-25078319Y-15724300D01*
X-25098603Y-15648600D01*
X-25078319Y-15572900D01*
X-25054259Y-15541544D01*
X-24714759Y-15202044D01*
X-24646888Y-15162859D01*
X-24607703Y-15157700D01*
X-5083350Y-15157700D01*
X-5007650Y-15177984D01*
X-4976294Y-15202044D01*
X-4878419Y-15299919D01*
X-4732930Y-15391336D01*
X-4570746Y-15448087D01*
X-4400000Y-15467325D01*
X-4229254Y-15448087D01*
X-4109109Y-15406046D01*
X-4067069Y-15391336D01*
X-4000421Y-15349457D01*
X-3921581Y-15299919D01*
X-3800081Y-15178419D01*
X-3775311Y-15138998D01*
X-3708663Y-15032930D01*
X-3651913Y-14870745D01*
X-3632675Y-14700000D01*
X-3632675Y-14699999D01*
X-3651913Y-14529254D01*
X-3708663Y-14367069D01*
X-3800082Y-14221579D01*
X-3921579Y-14100082D01*
X-4067069Y-14008663D01*
X-4229254Y-13951913D01*
X-4400000Y-13932675D01*
X-4570746Y-13951913D01*
X-4599247Y-13961886D01*
X-4732930Y-14008663D01*
X-4830604Y-14070037D01*
X-4878419Y-14100081D01*
X-4878420Y-14100081D01*
X-4878420Y-14100082D01*
X-4976294Y-14197956D01*
X-5044165Y-14237141D01*
X-5083350Y-14242300D01*
X-24830036Y-14242300D01*
X-24838512Y-14241824D01*
X-24866562Y-14238663D01*
X-24877306Y-14237453D01*
X-24877307Y-14237453D01*
X-24902924Y-14242300D01*
X-24936686Y-14248688D01*
X-24996432Y-14257693D01*
X-25004709Y-14260247D01*
X-25012871Y-14263102D01*
X-25066299Y-14291339D01*
X-25120740Y-14317556D01*
X-25127924Y-14322455D01*
X-25134859Y-14327573D01*
X-25177594Y-14370308D01*
X-25221888Y-14411407D01*
X-25228962Y-14420278D01*
X-25229940Y-14419497D01*
X-25240346Y-14433060D01*
X-27472943Y-16665657D01*
X-27540814Y-16704842D01*
X-27619184Y-16704842D01*
X-27687055Y-16665657D01*
X-30897956Y-13454757D01*
X-30937141Y-13386886D01*
X-30942300Y-13347701D01*
X-30942300Y-8890000D01*
X-30224987Y-8890000D01*
X-30205484Y-9088014D01*
X-30147726Y-9278419D01*
X-30053931Y-9453897D01*
X-29927704Y-9607704D01*
X-29773897Y-9733931D01*
X-29598419Y-9827726D01*
X-29408014Y-9885484D01*
X-29259618Y-9900100D01*
X-29259615Y-9900100D01*
X-29160385Y-9900100D01*
X-29160382Y-9900100D01*
X-29011986Y-9885484D01*
X-28821581Y-9827726D01*
X-28646103Y-9733931D01*
X-28492296Y-9607704D01*
X-28366069Y-9453897D01*
X-28304792Y-9339256D01*
X-28272274Y-9278420D01*
X-28214515Y-9088013D01*
X-28214515Y-9088012D01*
X-28195013Y-8889999D01*
X-28214515Y-8691987D01*
X-28214515Y-8691986D01*
X-28272274Y-8501579D01*
X-28366068Y-8326104D01*
X-28492295Y-8172296D01*
X-28492296Y-8172295D01*
X-28646104Y-8046068D01*
X-28821580Y-7952274D01*
X-28821579Y-7952274D01*
X-29011987Y-7894515D01*
X-29123752Y-7883507D01*
X-29160382Y-7879900D01*
X-29259618Y-7879900D01*
X-29299531Y-7883831D01*
X-29408012Y-7894515D01*
X-29408013Y-7894515D01*
X-29598420Y-7952274D01*
X-29712965Y-8013500D01*
X-29773897Y-8046069D01*
X-29927704Y-8172296D01*
X-30053931Y-8326103D01*
X-30147726Y-8501581D01*
X-30205484Y-8691986D01*
X-30224987Y-8890000D01*
X-30942300Y-8890000D01*
X-30942300Y-6350000D01*
X-30224987Y-6350000D01*
X-30205484Y-6548014D01*
X-30147726Y-6738419D01*
X-30053931Y-6913897D01*
X-29927704Y-7067704D01*
X-29773897Y-7193931D01*
X-29598419Y-7287726D01*
X-29408014Y-7345484D01*
X-29259618Y-7360100D01*
X-29259615Y-7360100D01*
X-29160385Y-7360100D01*
X-29160382Y-7360100D01*
X-29011986Y-7345484D01*
X-28821581Y-7287726D01*
X-28646103Y-7193931D01*
X-28492296Y-7067704D01*
X-28366069Y-6913897D01*
X-28355341Y-6893826D01*
X-28272274Y-6738420D01*
X-28214515Y-6548013D01*
X-28214515Y-6548012D01*
X-28195013Y-6350000D01*
X-28214515Y-6151987D01*
X-28214515Y-6151986D01*
X-28272274Y-5961579D01*
X-28366068Y-5786104D01*
X-28492295Y-5632296D01*
X-28492296Y-5632295D01*
X-28646104Y-5506068D01*
X-28821580Y-5412274D01*
X-28821579Y-5412274D01*
X-29011987Y-5354515D01*
X-29123752Y-5343507D01*
X-29160382Y-5339900D01*
X-29259618Y-5339900D01*
X-29299531Y-5343831D01*
X-29408012Y-5354515D01*
X-29408013Y-5354515D01*
X-29598420Y-5412274D01*
X-29703459Y-5468419D01*
X-29773897Y-5506069D01*
X-29927704Y-5632296D01*
X-30053931Y-5786103D01*
X-30147726Y-5961581D01*
X-30205484Y-6151986D01*
X-30224987Y-6350000D01*
X-30942300Y-6350000D01*
X-30942300Y-5899963D01*
X-30941824Y-5891481D01*
X-30940811Y-5882497D01*
X-30937453Y-5852693D01*
X-30948688Y-5793313D01*
X-30957694Y-5733567D01*
X-30960242Y-5725306D01*
X-30963106Y-5717121D01*
X-30991339Y-5663700D01*
X-31017557Y-5609258D01*
X-31022459Y-5602068D01*
X-31027573Y-5595140D01*
X-31070308Y-5552405D01*
X-31111401Y-5508117D01*
X-31120272Y-5501043D01*
X-31119518Y-5500097D01*
X-31133053Y-5489659D01*
X-32435303Y-4187410D01*
X-32474488Y-4119539D01*
X-32474488Y-4041169D01*
X-32473128Y-4036407D01*
X-32464517Y-4008019D01*
X-32464515Y-4008012D01*
X-32445013Y-3810000D01*
X-30224987Y-3810000D01*
X-30205484Y-4008014D01*
X-30147726Y-4198419D01*
X-30053931Y-4373897D01*
X-29927704Y-4527704D01*
X-29773897Y-4653931D01*
X-29598419Y-4747726D01*
X-29408014Y-4805484D01*
X-29259618Y-4820100D01*
X-29259615Y-4820100D01*
X-29160385Y-4820100D01*
X-29160382Y-4820100D01*
X-29011986Y-4805484D01*
X-28821581Y-4747726D01*
X-28646103Y-4653931D01*
X-28492296Y-4527704D01*
X-28366069Y-4373897D01*
X-28292398Y-4236069D01*
X-28272274Y-4198420D01*
X-28214515Y-4008013D01*
X-28214515Y-4008012D01*
X-28195013Y-3809999D01*
X-28195998Y-3800000D01*
X-4167325Y-3800000D01*
X-4148087Y-3970746D01*
X-4091336Y-4132930D01*
X-3999919Y-4278419D01*
X-3878419Y-4399919D01*
X-3732930Y-4491336D01*
X-3570746Y-4548087D01*
X-3400000Y-4567325D01*
X-3229254Y-4548087D01*
X-3109109Y-4506046D01*
X-3067069Y-4491336D01*
X-2999683Y-4448994D01*
X-2921581Y-4399919D01*
X-2800081Y-4278419D01*
X-2749814Y-4198420D01*
X-2708663Y-4132930D01*
X-2666623Y-4012785D01*
X-2651913Y-3970746D01*
X-2632675Y-3800000D01*
X-2651913Y-3629254D01*
X-2657955Y-3611986D01*
X-2708663Y-3467069D01*
X-2800083Y-3321578D01*
X-2800085Y-3321575D01*
X-2897955Y-3223705D01*
X-2937140Y-3155834D01*
X-2942299Y-3116650D01*
X-2942299Y-2540000D01*
X-2284987Y-2540000D01*
X-2265484Y-2738014D01*
X-2207726Y-2928419D01*
X-2113931Y-3103897D01*
X-1987704Y-3257704D01*
X-1833897Y-3383931D01*
X-1658419Y-3477726D01*
X-1468014Y-3535484D01*
X-1319618Y-3550100D01*
X-1319615Y-3550100D01*
X-1220385Y-3550100D01*
X-1220382Y-3550100D01*
X-1071986Y-3535484D01*
X-1043592Y-3526870D01*
X-965265Y-3524307D01*
X-896149Y-3561250D01*
X-892618Y-3564666D01*
X3188298Y-7645583D01*
X7241686Y-11698971D01*
X7280871Y-11766842D01*
X7280871Y-11845212D01*
X7277534Y-11856030D01*
X7251913Y-11929251D01*
X7251913Y-11929252D01*
X7232675Y-12099999D01*
X7232675Y-12100000D01*
X7251913Y-12270746D01*
X7266623Y-12312785D01*
X7308663Y-12432930D01*
X7372035Y-12533784D01*
X7400081Y-12578419D01*
X7521581Y-12699919D01*
X7600421Y-12749457D01*
X7667069Y-12791336D01*
X7685094Y-12797643D01*
X7829254Y-12848087D01*
X8000000Y-12867325D01*
X8170746Y-12848087D01*
X8332930Y-12791336D01*
X8478419Y-12699919D01*
X8599919Y-12578419D01*
X8691336Y-12432930D01*
X8748087Y-12270746D01*
X8767325Y-12100000D01*
X8748087Y-11929254D01*
X8691336Y-11767070D01*
X8691336Y-11767069D01*
X8630910Y-11670903D01*
X8599919Y-11621581D01*
X8478419Y-11500081D01*
X8424347Y-11466105D01*
X8332931Y-11408664D01*
X8231745Y-11373257D01*
X8174694Y-11337409D01*
X-245303Y-2917410D01*
X-284488Y-2849539D01*
X-284488Y-2771169D01*
X-283128Y-2766407D01*
X-274517Y-2738019D01*
X-274515Y-2738012D01*
X-255013Y-2540000D01*
X-274515Y-2341987D01*
X-274515Y-2341986D01*
X-332274Y-2151579D01*
X-426068Y-1976104D01*
X-552295Y-1822296D01*
X-552296Y-1822295D01*
X-706104Y-1696068D01*
X-881580Y-1602274D01*
X-881579Y-1602274D01*
X-1071987Y-1544515D01*
X-1183752Y-1533507D01*
X-1220382Y-1529900D01*
X-1319618Y-1529900D01*
X-1359531Y-1533831D01*
X-1468012Y-1544515D01*
X-1468013Y-1544515D01*
X-1658420Y-1602274D01*
X-1763459Y-1658419D01*
X-1833897Y-1696069D01*
X-1987704Y-1822296D01*
X-2113931Y-1976103D01*
X-2207726Y-2151581D01*
X-2265484Y-2341986D01*
X-2284987Y-2540000D01*
X-2942299Y-2540000D01*
X-2942299Y0D01*
X-2284987Y0D01*
X-2265484Y-198014D01*
X-2207726Y-388419D01*
X-2113931Y-563897D01*
X-1987704Y-717704D01*
X-1833897Y-843931D01*
X-1658419Y-937726D01*
X-1468014Y-995484D01*
X-1319618Y-1010100D01*
X-1319615Y-1010100D01*
X-1220385Y-1010100D01*
X-1220382Y-1010100D01*
X-1071986Y-995484D01*
X-1043592Y-986870D01*
X-965265Y-984307D01*
X-896149Y-1021250D01*
X-892618Y-1024666D01*
X1466646Y-3383931D01*
X3785170Y-5702455D01*
X3790828Y-5708787D01*
X3815168Y-5739308D01*
X3815169Y-5739308D01*
X3815171Y-5739311D01*
X3865104Y-5773354D01*
X3913713Y-5809229D01*
X3921360Y-5813270D01*
X3929163Y-5817027D01*
X3929168Y-5817031D01*
X3986914Y-5834843D01*
X4043947Y-5854800D01*
X4043949Y-5854800D01*
X4052453Y-5856409D01*
X4061013Y-5857700D01*
X4121450Y-5857700D01*
X4123415Y-5857773D01*
X4181824Y-5859959D01*
X4181828Y-5859957D01*
X4193101Y-5858689D01*
X4193241Y-5859932D01*
X4210187Y-5857700D01*
X7316650Y-5857700D01*
X7392350Y-5877984D01*
X7423706Y-5902044D01*
X7521581Y-5999919D01*
X7600421Y-6049457D01*
X7667069Y-6091336D01*
X7695402Y-6101250D01*
X7829254Y-6148087D01*
X8000000Y-6167325D01*
X8170746Y-6148087D01*
X8332930Y-6091336D01*
X8478419Y-5999919D01*
X8599919Y-5878419D01*
X8691336Y-5732930D01*
X8748087Y-5570746D01*
X8767325Y-5400000D01*
X8748087Y-5229254D01*
X8696666Y-5082302D01*
X8691336Y-5067069D01*
X8649457Y-5000421D01*
X8599919Y-4921581D01*
X8478419Y-4800081D01*
X8395097Y-4747726D01*
X8332930Y-4708663D01*
X8212785Y-4666623D01*
X8170746Y-4651913D01*
X8000000Y-4632675D01*
X7829254Y-4651913D01*
X7667069Y-4708663D01*
X7521579Y-4800082D01*
X7423706Y-4897956D01*
X7355835Y-4937141D01*
X7316650Y-4942300D01*
X4382298Y-4942300D01*
X4306598Y-4922016D01*
X4275242Y-4897956D01*
X-245303Y-377410D01*
X-284488Y-309539D01*
X-284488Y-231169D01*
X-283128Y-226407D01*
X-274517Y-198019D01*
X-274515Y-198012D01*
X-255013Y0D01*
X-274515Y198012D01*
X-274515Y198013D01*
X-332274Y388420D01*
X-426068Y563895D01*
X-426069Y563897D01*
X-552296Y717704D01*
X-706103Y843931D01*
X-881581Y937726D01*
X-1071986Y995484D01*
X-1220382Y1010100D01*
X-1319618Y1010100D01*
X-1468014Y995484D01*
X-1658419Y937726D01*
X-1833897Y843931D01*
X-1987704Y717704D01*
X-2113931Y563897D01*
X-2207726Y388419D01*
X-2265484Y198014D01*
X-2284987Y0D01*
X-2942299Y0D01*
X-2942299Y2540000D01*
X-2284987Y2540000D01*
X-2265484Y2341986D01*
X-2207726Y2151581D01*
X-2113931Y1976103D01*
X-1987704Y1822296D01*
X-1833897Y1696069D01*
X-1833895Y1696068D01*
X-1658419Y1602274D01*
X-1658420Y1602274D01*
X-1468012Y1544515D01*
X-1359531Y1533831D01*
X-1319618Y1529900D01*
X-1319615Y1529900D01*
X-1220385Y1529900D01*
X-1220382Y1529900D01*
X-1180468Y1533831D01*
X-1071988Y1544515D01*
X-1071987Y1544515D01*
X-1071986Y1544516D01*
X-1036915Y1555154D01*
X-958588Y1557716D01*
X-907681Y1535363D01*
X-894893Y1526644D01*
X-846283Y1490768D01*
X-838640Y1486729D01*
X-830833Y1482969D01*
X-801965Y1474064D01*
X-773099Y1465160D01*
X-752091Y1457809D01*
X-716049Y1445197D01*
X-707577Y1443594D01*
X-698987Y1442300D01*
X-638575Y1442300D01*
X-578177Y1440040D01*
X-578176Y1440040D01*
X-578175Y1440040D01*
X-578173Y1440040D01*
X-566901Y1441311D01*
X-566760Y1440067D01*
X-549810Y1442300D01*
X7316650Y1442300D01*
X7392350Y1422016D01*
X7423706Y1397956D01*
X7521579Y1300082D01*
X7667069Y1208663D01*
X7829254Y1151913D01*
X8000000Y1132675D01*
X8170746Y1151913D01*
X8212785Y1166623D01*
X8332930Y1208663D01*
X8438998Y1275311D01*
X8478419Y1300081D01*
X8599919Y1421581D01*
X8665935Y1526645D01*
X8691336Y1567069D01*
X8718809Y1645584D01*
X8748087Y1729254D01*
X8767325Y1900000D01*
X8748087Y2070746D01*
X8691336Y2232930D01*
X8599919Y2378419D01*
X8478419Y2499919D01*
X8332930Y2591336D01*
X8170746Y2648087D01*
X8000000Y2667325D01*
X7829254Y2648087D01*
X7709109Y2606046D01*
X7667069Y2591336D01*
X7625987Y2565522D01*
X7521581Y2499919D01*
X7521579Y2499917D01*
X7423706Y2402044D01*
X7355835Y2362859D01*
X7316650Y2357700D01*
X-105924Y2357700D01*
X-181624Y2377984D01*
X-237040Y2433400D01*
X-257324Y2509100D01*
X-256595Y2523941D01*
X-255013Y2540000D01*
X-274515Y2738012D01*
X-274515Y2738013D01*
X-332274Y2928420D01*
X-426068Y3103895D01*
X-426069Y3103897D01*
X-552296Y3257704D01*
X-706103Y3383931D01*
X-881581Y3477726D01*
X-1071986Y3535484D01*
X-1220382Y3550100D01*
X-1319618Y3550100D01*
X-1468014Y3535484D01*
X-1658419Y3477726D01*
X-1833897Y3383931D01*
X-1987704Y3257704D01*
X-2113931Y3103897D01*
X-2207726Y2928419D01*
X-2265484Y2738014D01*
X-2284987Y2540000D01*
X-2942299Y2540000D01*
X-2942299Y2697702D01*
X-2922015Y2773402D01*
X-2897955Y2804758D01*
X-1647410Y4055303D01*
X-1579539Y4094488D01*
X-1501169Y4094488D01*
X-1496407Y4093128D01*
X-1468019Y4084517D01*
X-1468012Y4084515D01*
X-1359531Y4073831D01*
X-1319618Y4069900D01*
X-1319615Y4069900D01*
X-1220385Y4069900D01*
X-1220382Y4069900D01*
X-1183752Y4073507D01*
X-1071987Y4084515D01*
X-1071986Y4084515D01*
X-881579Y4142274D01*
X-706104Y4236068D01*
X-552296Y4362295D01*
X-552295Y4362296D01*
X-426068Y4516104D01*
X-332274Y4691579D01*
X-274515Y4881986D01*
X-274515Y4881987D01*
X-255013Y5080000D01*
X-274515Y5278012D01*
X-274516Y5278016D01*
X-283128Y5306405D01*
X-285692Y5384733D01*
X-248748Y5453850D01*
X-245303Y5457409D01*
X2395241Y8097956D01*
X2463112Y8137141D01*
X2502297Y8142300D01*
X7316650Y8142300D01*
X7392350Y8122016D01*
X7423706Y8097956D01*
X7521579Y8000082D01*
X7667069Y7908663D01*
X7829254Y7851913D01*
X8000000Y7832675D01*
X8170746Y7851913D01*
X8212785Y7866623D01*
X8332930Y7908663D01*
X8438998Y7975311D01*
X8478419Y8000081D01*
X8599919Y8121581D01*
X8667039Y8228401D01*
X8691336Y8267069D01*
X8711993Y8326104D01*
X8748087Y8429254D01*
X8767325Y8600000D01*
X8748087Y8770746D01*
X8691336Y8932930D01*
X8599919Y9078419D01*
X8478419Y9199919D01*
X8332930Y9291336D01*
X8170746Y9348087D01*
X8000000Y9367325D01*
X7829254Y9348087D01*
X7723072Y9310932D01*
X7667069Y9291336D01*
X7607454Y9253877D01*
X7521581Y9199919D01*
X7521579Y9199917D01*
X7423706Y9102044D01*
X7355835Y9062859D01*
X7316650Y9057700D01*
X2279964Y9057700D01*
X2271487Y9058175D01*
X2232693Y9062547D01*
X2193422Y9055116D01*
X2115273Y9060971D01*
X2050519Y9105117D01*
X2016514Y9175726D01*
X2022369Y9253877D01*
X2058218Y9310932D01*
X7840560Y15093274D01*
X7908431Y15132459D01*
X7964563Y15136667D01*
X7994330Y15133313D01*
X8000000Y15132675D01*
X8000001Y15132675D01*
X8107881Y15144830D01*
X8170746Y15151913D01*
X8212785Y15166623D01*
X8332930Y15208663D01*
X8438998Y15275311D01*
X8478419Y15300081D01*
X8599919Y15421581D01*
X8676156Y15542911D01*
X8691336Y15567069D01*
X8718809Y15645584D01*
X8748087Y15729254D01*
X8767325Y15900000D01*
X8748087Y16070746D01*
X8691336Y16232930D01*
X8599919Y16378419D01*
X8478419Y16499919D01*
X8332930Y16591336D01*
X8170746Y16648087D01*
X8000000Y16667325D01*
X7829254Y16648087D01*
X7709109Y16606046D01*
X7667069Y16591336D01*
X7600421Y16549457D01*
X7521581Y16499919D01*
X7521578Y16499917D01*
X7521579Y16499917D01*
X7400082Y16378420D01*
X7308663Y16232930D01*
X7251913Y16070745D01*
X7232675Y15900001D01*
X7236667Y15864563D01*
X7224984Y15787068D01*
X7193274Y15740560D01*
X-279699Y8267584D01*
X-347568Y8228401D01*
X-425938Y8228401D01*
X-493809Y8267586D01*
X-503778Y8278585D01*
X-552296Y8337704D01*
X-706103Y8463931D01*
X-881581Y8557726D01*
X-1071986Y8615484D01*
X-1220382Y8630100D01*
X-1319618Y8630100D01*
X-1468014Y8615484D01*
X-1658419Y8557726D01*
X-1833897Y8463931D01*
X-1987704Y8337704D01*
X-2113931Y8183897D01*
X-2207726Y8008419D01*
X-2265484Y7818014D01*
X-2284987Y7620000D01*
X-2265484Y7421986D01*
X-2207726Y7231581D01*
X-2113931Y7056103D01*
X-1987704Y6902296D01*
X-1833897Y6776069D01*
X-1833895Y6776068D01*
X-1658419Y6682274D01*
X-1658420Y6682274D01*
X-1468012Y6624515D01*
X-1359531Y6613831D01*
X-1319618Y6609900D01*
X-1319615Y6609900D01*
X-1220385Y6609900D01*
X-1220382Y6609900D01*
X-1183752Y6613507D01*
X-1071987Y6624515D01*
X-1071986Y6624515D01*
X-881579Y6682274D01*
X-706104Y6776068D01*
X-552296Y6902295D01*
X-552295Y6902296D01*
X-426071Y7056100D01*
X-426064Y7056109D01*
X-414104Y7078485D01*
X-360529Y7135683D01*
X-285532Y7158430D01*
X-263634Y7157559D01*
X-263543Y7157548D01*
X-262691Y7157452D01*
X-262689Y7157453D01*
X-223416Y7164883D01*
X-145265Y7159025D01*
X-80514Y7114875D01*
X-46512Y7044265D01*
X-52370Y6966114D01*
X-88214Y6909069D01*
X-892589Y6104694D01*
X-960458Y6065511D01*
X-1038828Y6065511D01*
X-1043592Y6066871D01*
X-1050869Y6069078D01*
X-1071986Y6075484D01*
X-1220382Y6090100D01*
X-1319618Y6090100D01*
X-1468014Y6075484D01*
X-1658419Y6017726D01*
X-1833897Y5923931D01*
X-1987704Y5797704D01*
X-2113931Y5643897D01*
X-2207726Y5468419D01*
X-2265484Y5278014D01*
X-2284987Y5080000D01*
X-2267232Y4899739D01*
X-2265484Y4881985D01*
X-2256871Y4853592D01*
X-2254307Y4775263D01*
X-2291251Y4706147D01*
X-2294664Y4702619D01*
X-3702461Y3294823D01*
X-3708772Y3289183D01*
X-3739308Y3264832D01*
X-3744168Y3257703D01*
X-3764897Y3227298D01*
X-3773354Y3214894D01*
X-3809230Y3166285D01*
X-3809231Y3166279D01*
X-3813271Y3158638D01*
X-3817027Y3150836D01*
X-3817031Y3150832D01*
X-3817032Y3150826D01*
X-3817033Y3150826D01*
X-3834843Y3093085D01*
X-3854801Y3036051D01*
X-3856407Y3027557D01*
X-3857699Y3018987D01*
X-3857700Y3018987D01*
X-3857700Y2958563D01*
X-3859960Y2898175D01*
X-3859957Y2898166D01*
X-3858689Y2886898D01*
X-3859928Y2886758D01*
X-3857700Y2869809D01*
X-3857700Y-3116650D01*
X-3877984Y-3192350D01*
X-3902043Y-3223705D01*
X-3999919Y-3321581D01*
X-4039096Y-3383931D01*
X-4091336Y-3467069D01*
X-4095065Y-3477726D01*
X-4148087Y-3629254D01*
X-4167325Y-3800000D01*
X-28195998Y-3800000D01*
X-28214515Y-3611987D01*
X-28214515Y-3611986D01*
X-28272274Y-3421579D01*
X-28366068Y-3246104D01*
X-28492295Y-3092296D01*
X-28492296Y-3092295D01*
X-28646104Y-2966068D01*
X-28821580Y-2872274D01*
X-28821579Y-2872274D01*
X-29011987Y-2814515D01*
X-29123752Y-2803507D01*
X-29160382Y-2799900D01*
X-29259618Y-2799900D01*
X-29299531Y-2803831D01*
X-29408012Y-2814515D01*
X-29408013Y-2814515D01*
X-29598420Y-2872274D01*
X-29703459Y-2928419D01*
X-29773897Y-2966069D01*
X-29927704Y-3092296D01*
X-30053931Y-3246103D01*
X-30147726Y-3421581D01*
X-30205484Y-3611986D01*
X-30224987Y-3810000D01*
X-32445013Y-3810000D01*
X-32445013Y-3809999D01*
X-32464515Y-3611987D01*
X-32464515Y-3611986D01*
X-32522274Y-3421579D01*
X-32616068Y-3246104D01*
X-32742295Y-3092296D01*
X-32742296Y-3092295D01*
X-32896104Y-2966068D01*
X-33071580Y-2872274D01*
X-33071579Y-2872274D01*
X-33261987Y-2814515D01*
X-33373752Y-2803507D01*
X-33410382Y-2799900D01*
X-33410385Y-2799900D01*
X-33455630Y-2799900D01*
X-33456931Y-2799836D01*
X-33463069Y-2799836D01*
X-33464370Y-2799900D01*
X-33509618Y-2799900D01*
X-33549531Y-2803831D01*
X-33658012Y-2814515D01*
X-33658013Y-2814515D01*
X-33848420Y-2872274D01*
X-34019531Y-2963734D01*
X-34095854Y-2981530D01*
X-34170850Y-2958780D01*
X-34224423Y-2901580D01*
X-34242300Y-2830211D01*
X-34242300Y-2599963D01*
X-34241824Y-2591481D01*
X-34237453Y-2552692D01*
X-34248688Y-2493313D01*
X-34257694Y-2433567D01*
X-34260245Y-2425296D01*
X-34263105Y-2417122D01*
X-34291337Y-2363704D01*
X-34317557Y-2309258D01*
X-34322419Y-2302127D01*
X-34327579Y-2295135D01*
X-34370295Y-2252419D01*
X-34411401Y-2208116D01*
X-34420271Y-2201044D01*
X-34419517Y-2200099D01*
X-34433055Y-2189658D01*
X-34975303Y-1647410D01*
X-35014488Y-1579539D01*
X-35014488Y-1501169D01*
X-35013128Y-1496407D01*
X-35004517Y-1468019D01*
X-35004515Y-1468012D01*
X-34985013Y-1270000D01*
X-34474987Y-1270000D01*
X-34455484Y-1468014D01*
X-34397726Y-1658419D01*
X-34303931Y-1833897D01*
X-34177704Y-1987704D01*
X-34023897Y-2113931D01*
X-33848419Y-2207726D01*
X-33658014Y-2265484D01*
X-33509618Y-2280100D01*
X-33464370Y-2280100D01*
X-33463069Y-2280164D01*
X-33460000Y-2280164D01*
X-33456931Y-2280164D01*
X-33455630Y-2280100D01*
X-33410385Y-2280100D01*
X-33410382Y-2280100D01*
X-33261986Y-2265484D01*
X-33071581Y-2207726D01*
X-32896103Y-2113931D01*
X-32742296Y-1987704D01*
X-32616069Y-1833897D01*
X-32583359Y-1772701D01*
X-32522274Y-1658420D01*
X-32464515Y-1468013D01*
X-32464515Y-1468012D01*
X-32445013Y-1270000D01*
X-30224987Y-1270000D01*
X-30205484Y-1468014D01*
X-30147726Y-1658419D01*
X-30053931Y-1833897D01*
X-29927704Y-1987704D01*
X-29773897Y-2113931D01*
X-29598419Y-2207726D01*
X-29408014Y-2265484D01*
X-29259618Y-2280100D01*
X-29259615Y-2280100D01*
X-29160385Y-2280100D01*
X-29160382Y-2280100D01*
X-29011986Y-2265484D01*
X-28821581Y-2207726D01*
X-28646103Y-2113931D01*
X-28492296Y-1987704D01*
X-28366069Y-1833897D01*
X-28333359Y-1772701D01*
X-28272274Y-1658420D01*
X-28214515Y-1468013D01*
X-28214515Y-1468012D01*
X-28195013Y-1270000D01*
X-28214515Y-1071987D01*
X-28214515Y-1071986D01*
X-28272274Y-881579D01*
X-28366068Y-706104D01*
X-28492295Y-552296D01*
X-28492296Y-552295D01*
X-28646104Y-426068D01*
X-28821580Y-332274D01*
X-28821579Y-332274D01*
X-29011987Y-274515D01*
X-29123752Y-263507D01*
X-29160382Y-259900D01*
X-29259618Y-259900D01*
X-29299531Y-263831D01*
X-29408012Y-274515D01*
X-29408013Y-274515D01*
X-29598420Y-332274D01*
X-29703459Y-388419D01*
X-29773897Y-426069D01*
X-29927704Y-552296D01*
X-30053931Y-706103D01*
X-30147726Y-881581D01*
X-30205484Y-1071986D01*
X-30224987Y-1270000D01*
X-32445013Y-1270000D01*
X-32445013Y-1269999D01*
X-32464515Y-1071987D01*
X-32464515Y-1071986D01*
X-32522274Y-881579D01*
X-32616068Y-706104D01*
X-32742295Y-552296D01*
X-32742296Y-552295D01*
X-32896104Y-426068D01*
X-33071580Y-332274D01*
X-33071579Y-332274D01*
X-33261987Y-274515D01*
X-33373752Y-263507D01*
X-33410382Y-259900D01*
X-33410385Y-259900D01*
X-33455630Y-259900D01*
X-33456931Y-259836D01*
X-33463069Y-259836D01*
X-33464370Y-259900D01*
X-33509618Y-259900D01*
X-33549531Y-263831D01*
X-33658012Y-274515D01*
X-33658013Y-274515D01*
X-33848420Y-332274D01*
X-33953459Y-388419D01*
X-34023897Y-426069D01*
X-34177704Y-552296D01*
X-34303931Y-706103D01*
X-34397726Y-881581D01*
X-34455484Y-1071986D01*
X-34474987Y-1270000D01*
X-34985013Y-1270000D01*
X-35004515Y-1071987D01*
X-35004515Y-1071986D01*
X-35062274Y-881579D01*
X-35156068Y-706104D01*
X-35282295Y-552296D01*
X-35282296Y-552295D01*
X-35436104Y-426068D01*
X-35611580Y-332274D01*
X-35611579Y-332274D01*
X-35801987Y-274515D01*
X-35913752Y-263507D01*
X-35950382Y-259900D01*
X-35950385Y-259900D01*
X-35995630Y-259900D01*
X-35996931Y-259836D01*
X-36003069Y-259836D01*
X-36004370Y-259900D01*
X-36049618Y-259900D01*
X-36089531Y-263831D01*
X-36198012Y-274515D01*
X-36198013Y-274515D01*
X-36388420Y-332274D01*
X-36493459Y-388419D01*
X-36563897Y-426069D01*
X-36717704Y-552296D01*
X-36843931Y-706103D01*
X-36937726Y-881581D01*
X-36995484Y-1071986D01*
X-37014987Y-1270000D01*
X-36995484Y-1468014D01*
X-36937726Y-1658419D01*
X-36843931Y-1833897D01*
X-36717704Y-1987704D01*
X-36563897Y-2113931D01*
X-36388419Y-2207726D01*
X-36198014Y-2265484D01*
X-36049618Y-2280100D01*
X-36004370Y-2280100D01*
X-36003069Y-2280164D01*
X-36000000Y-2280164D01*
X-35996931Y-2280164D01*
X-35995630Y-2280100D01*
X-35950385Y-2280100D01*
X-35950382Y-2280100D01*
X-35801986Y-2265484D01*
X-35773592Y-2256870D01*
X-35695265Y-2254307D01*
X-35626149Y-2291250D01*
X-35622622Y-2294662D01*
X-35202042Y-2715243D01*
X-35162859Y-2783112D01*
X-35157700Y-2822297D01*
X-35157700Y-2874440D01*
X-35177984Y-2950140D01*
X-35233400Y-3005556D01*
X-35309100Y-3025840D01*
X-35384800Y-3005556D01*
X-35405147Y-2991474D01*
X-35436104Y-2966067D01*
X-35611580Y-2872274D01*
X-35611579Y-2872274D01*
X-35801987Y-2814515D01*
X-35913752Y-2803507D01*
X-35950382Y-2799900D01*
X-35950385Y-2799900D01*
X-35995630Y-2799900D01*
X-35996931Y-2799836D01*
X-36003069Y-2799836D01*
X-36004370Y-2799900D01*
X-36049618Y-2799900D01*
X-36089531Y-2803831D01*
X-36198012Y-2814515D01*
X-36198013Y-2814515D01*
X-36388420Y-2872274D01*
X-36493459Y-2928419D01*
X-36563897Y-2966069D01*
X-36717704Y-3092296D01*
X-36843931Y-3246103D01*
X-36937726Y-3421581D01*
X-36995484Y-3611986D01*
X-37014987Y-3810000D01*
X-39694700Y-3810000D01*
X-39694700Y1270000D01*
X-37014987Y1270000D01*
X-36995484Y1071986D01*
X-36937726Y881581D01*
X-36843931Y706103D01*
X-36717704Y552296D01*
X-36563897Y426069D01*
X-36563895Y426068D01*
X-36388419Y332274D01*
X-36388420Y332274D01*
X-36198012Y274515D01*
X-36089531Y263831D01*
X-36049618Y259900D01*
X-36004370Y259900D01*
X-36003069Y259836D01*
X-36000000Y259836D01*
X-35996931Y259836D01*
X-35995630Y259900D01*
X-35950385Y259900D01*
X-35950382Y259900D01*
X-35913752Y263507D01*
X-35801987Y274515D01*
X-35801986Y274515D01*
X-35611579Y332274D01*
X-35436104Y426068D01*
X-35282296Y552295D01*
X-35282295Y552296D01*
X-35156068Y706104D01*
X-35062274Y881579D01*
X-35004515Y1071986D01*
X-35004515Y1071987D01*
X-34985013Y1270000D01*
X-34474987Y1270000D01*
X-34455484Y1071986D01*
X-34397726Y881581D01*
X-34303931Y706103D01*
X-34177704Y552296D01*
X-34023897Y426069D01*
X-34023895Y426068D01*
X-33848419Y332274D01*
X-33848420Y332274D01*
X-33658012Y274515D01*
X-33549531Y263831D01*
X-33509618Y259900D01*
X-33464370Y259900D01*
X-33463069Y259836D01*
X-33460000Y259836D01*
X-33456931Y259836D01*
X-33455630Y259900D01*
X-33410385Y259900D01*
X-33410382Y259900D01*
X-33373752Y263507D01*
X-33261987Y274515D01*
X-33261986Y274515D01*
X-33071579Y332274D01*
X-32896104Y426068D01*
X-32742296Y552295D01*
X-32742295Y552296D01*
X-32616068Y706104D01*
X-32522274Y881579D01*
X-32464515Y1071986D01*
X-32464515Y1071987D01*
X-32445013Y1269999D01*
X-32445013Y1270000D01*
X-30224987Y1270000D01*
X-30205484Y1071986D01*
X-30147726Y881581D01*
X-30053931Y706103D01*
X-29927704Y552296D01*
X-29773897Y426069D01*
X-29773895Y426068D01*
X-29598419Y332274D01*
X-29598420Y332274D01*
X-29408012Y274515D01*
X-29299531Y263831D01*
X-29259618Y259900D01*
X-29259615Y259900D01*
X-29160385Y259900D01*
X-29160382Y259900D01*
X-29123752Y263507D01*
X-29011987Y274515D01*
X-29011986Y274515D01*
X-28821579Y332274D01*
X-28646104Y426068D01*
X-28492296Y552295D01*
X-28492295Y552296D01*
X-28366068Y706104D01*
X-28272274Y881579D01*
X-28214515Y1071986D01*
X-28214515Y1071987D01*
X-28195013Y1270000D01*
X-28214515Y1468012D01*
X-28214515Y1468013D01*
X-28272274Y1658420D01*
X-28366068Y1833895D01*
X-28366069Y1833897D01*
X-28492296Y1987704D01*
X-28646103Y2113931D01*
X-28821581Y2207726D01*
X-29011986Y2265484D01*
X-29160382Y2280100D01*
X-29259618Y2280100D01*
X-29408014Y2265484D01*
X-29598419Y2207726D01*
X-29773897Y2113931D01*
X-29927704Y1987704D01*
X-30053931Y1833897D01*
X-30147726Y1658419D01*
X-30205484Y1468014D01*
X-30224987Y1270000D01*
X-32445013Y1270000D01*
X-32464515Y1468012D01*
X-32464515Y1468013D01*
X-32522274Y1658420D01*
X-32616068Y1833895D01*
X-32616069Y1833897D01*
X-32742296Y1987704D01*
X-32896103Y2113931D01*
X-33071581Y2207726D01*
X-33261986Y2265484D01*
X-33410382Y2280100D01*
X-33410385Y2280100D01*
X-33455630Y2280100D01*
X-33456931Y2280164D01*
X-33463069Y2280164D01*
X-33464370Y2280100D01*
X-33509618Y2280100D01*
X-33658014Y2265484D01*
X-33848419Y2207726D01*
X-34023897Y2113931D01*
X-34177704Y1987704D01*
X-34303931Y1833897D01*
X-34397726Y1658419D01*
X-34455484Y1468014D01*
X-34474987Y1270000D01*
X-34985013Y1270000D01*
X-35004515Y1468012D01*
X-35004515Y1468013D01*
X-35062274Y1658420D01*
X-35156068Y1833895D01*
X-35156069Y1833897D01*
X-35282296Y1987704D01*
X-35436103Y2113931D01*
X-35611581Y2207726D01*
X-35801986Y2265484D01*
X-35950382Y2280100D01*
X-35950385Y2280100D01*
X-35995630Y2280100D01*
X-35996931Y2280164D01*
X-36003069Y2280164D01*
X-36004370Y2280100D01*
X-36049618Y2280100D01*
X-36198014Y2265484D01*
X-36388419Y2207726D01*
X-36563897Y2113931D01*
X-36717704Y1987704D01*
X-36843931Y1833897D01*
X-36937726Y1658419D01*
X-36995484Y1468014D01*
X-37014987Y1270000D01*
X-39694700Y1270000D01*
X-39694700Y3810000D01*
X-37014987Y3810000D01*
X-36995484Y3611986D01*
X-36937726Y3421581D01*
X-36843931Y3246103D01*
X-36717704Y3092296D01*
X-36563897Y2966069D01*
X-36563895Y2966068D01*
X-36388419Y2872274D01*
X-36388420Y2872274D01*
X-36198012Y2814515D01*
X-36089531Y2803831D01*
X-36049618Y2799900D01*
X-36004370Y2799900D01*
X-36003069Y2799836D01*
X-36000000Y2799836D01*
X-35996931Y2799836D01*
X-35995630Y2799900D01*
X-35950385Y2799900D01*
X-35950382Y2799900D01*
X-35913752Y2803507D01*
X-35801987Y2814515D01*
X-35801986Y2814515D01*
X-35611579Y2872274D01*
X-35436104Y2966068D01*
X-35282296Y3092295D01*
X-35282295Y3092296D01*
X-35156068Y3246104D01*
X-35062274Y3421579D01*
X-35004515Y3611986D01*
X-35004515Y3611987D01*
X-34985013Y3810000D01*
X-34474987Y3810000D01*
X-34455484Y3611986D01*
X-34397726Y3421581D01*
X-34303931Y3246103D01*
X-34177704Y3092296D01*
X-34023897Y2966069D01*
X-34023895Y2966068D01*
X-33848419Y2872274D01*
X-33848420Y2872274D01*
X-33658012Y2814515D01*
X-33549531Y2803831D01*
X-33509618Y2799900D01*
X-33464370Y2799900D01*
X-33463069Y2799836D01*
X-33460000Y2799836D01*
X-33456931Y2799836D01*
X-33455630Y2799900D01*
X-33410385Y2799900D01*
X-33410382Y2799900D01*
X-33373752Y2803507D01*
X-33261987Y2814515D01*
X-33261986Y2814515D01*
X-33071579Y2872274D01*
X-32896104Y2966068D01*
X-32742296Y3092295D01*
X-32742295Y3092296D01*
X-32616068Y3246104D01*
X-32522274Y3421579D01*
X-32464515Y3611986D01*
X-32464515Y3611987D01*
X-32445013Y3809999D01*
X-32445013Y3810000D01*
X-30224987Y3810000D01*
X-30205484Y3611986D01*
X-30147726Y3421581D01*
X-30053931Y3246103D01*
X-29927704Y3092296D01*
X-29773897Y2966069D01*
X-29773895Y2966068D01*
X-29598419Y2872274D01*
X-29598420Y2872274D01*
X-29408012Y2814515D01*
X-29299531Y2803831D01*
X-29259618Y2799900D01*
X-29259615Y2799900D01*
X-29160385Y2799900D01*
X-29160382Y2799900D01*
X-29123752Y2803507D01*
X-29011987Y2814515D01*
X-29011986Y2814515D01*
X-28821579Y2872274D01*
X-28646104Y2966068D01*
X-28492296Y3092295D01*
X-28492295Y3092296D01*
X-28366068Y3246104D01*
X-28272274Y3421579D01*
X-28214515Y3611986D01*
X-28214515Y3611987D01*
X-28195013Y3809999D01*
X-28214515Y4008012D01*
X-28214515Y4008013D01*
X-28272274Y4198420D01*
X-28366068Y4373895D01*
X-28366069Y4373897D01*
X-28492296Y4527704D01*
X-28646103Y4653931D01*
X-28821581Y4747726D01*
X-29011986Y4805484D01*
X-29160382Y4820100D01*
X-29259618Y4820100D01*
X-29408014Y4805484D01*
X-29598419Y4747726D01*
X-29773897Y4653931D01*
X-29927704Y4527704D01*
X-30053931Y4373897D01*
X-30147726Y4198419D01*
X-30205484Y4008014D01*
X-30224987Y3810000D01*
X-32445013Y3810000D01*
X-32464515Y4008012D01*
X-32464515Y4008013D01*
X-32522274Y4198420D01*
X-32616068Y4373895D01*
X-32616069Y4373897D01*
X-32742296Y4527704D01*
X-32896103Y4653931D01*
X-33071581Y4747726D01*
X-33261986Y4805484D01*
X-33410382Y4820100D01*
X-33410385Y4820100D01*
X-33455630Y4820100D01*
X-33456931Y4820164D01*
X-33463069Y4820164D01*
X-33464370Y4820100D01*
X-33509618Y4820100D01*
X-33658014Y4805484D01*
X-33848419Y4747726D01*
X-34023897Y4653931D01*
X-34177704Y4527704D01*
X-34303931Y4373897D01*
X-34397726Y4198419D01*
X-34455484Y4008014D01*
X-34474987Y3810000D01*
X-34985013Y3810000D01*
X-35004515Y4008012D01*
X-35004515Y4008013D01*
X-35062274Y4198420D01*
X-35156068Y4373895D01*
X-35156069Y4373897D01*
X-35282296Y4527704D01*
X-35436103Y4653931D01*
X-35611581Y4747726D01*
X-35801986Y4805484D01*
X-35950382Y4820100D01*
X-35950385Y4820100D01*
X-35995630Y4820100D01*
X-35996931Y4820164D01*
X-36003069Y4820164D01*
X-36004370Y4820100D01*
X-36049618Y4820100D01*
X-36198014Y4805484D01*
X-36388419Y4747726D01*
X-36563897Y4653931D01*
X-36717704Y4527704D01*
X-36843931Y4373897D01*
X-36937726Y4198419D01*
X-36995484Y4008014D01*
X-37014987Y3810000D01*
X-39694700Y3810000D01*
X-39694700Y6350000D01*
X-37014987Y6350000D01*
X-36995484Y6151986D01*
X-36937726Y5961581D01*
X-36843931Y5786103D01*
X-36717704Y5632296D01*
X-36563897Y5506069D01*
X-36563895Y5506068D01*
X-36388419Y5412274D01*
X-36388420Y5412274D01*
X-36198012Y5354515D01*
X-36089531Y5343831D01*
X-36049618Y5339900D01*
X-36004370Y5339900D01*
X-36003069Y5339836D01*
X-36000000Y5339836D01*
X-35996931Y5339836D01*
X-35995630Y5339900D01*
X-35950385Y5339900D01*
X-35950382Y5339900D01*
X-35913752Y5343507D01*
X-35801987Y5354515D01*
X-35801986Y5354515D01*
X-35611579Y5412274D01*
X-35436104Y5506068D01*
X-35282296Y5632295D01*
X-35282295Y5632296D01*
X-35156068Y5786104D01*
X-35062274Y5961579D01*
X-35004515Y6151986D01*
X-35004515Y6151987D01*
X-34985013Y6349999D01*
X-34985013Y6350000D01*
X-34474987Y6350000D01*
X-34455484Y6151986D01*
X-34397726Y5961581D01*
X-34303931Y5786103D01*
X-34177704Y5632296D01*
X-34023897Y5506069D01*
X-34023895Y5506068D01*
X-33848419Y5412274D01*
X-33848420Y5412274D01*
X-33658012Y5354515D01*
X-33549531Y5343831D01*
X-33509618Y5339900D01*
X-33464370Y5339900D01*
X-33463069Y5339836D01*
X-33460000Y5339836D01*
X-33456931Y5339836D01*
X-33455630Y5339900D01*
X-33410385Y5339900D01*
X-33410382Y5339900D01*
X-33373752Y5343507D01*
X-33261987Y5354515D01*
X-33261986Y5354515D01*
X-33071579Y5412274D01*
X-32896104Y5506068D01*
X-32742296Y5632295D01*
X-32742295Y5632296D01*
X-32616068Y5786104D01*
X-32522274Y5961579D01*
X-32464515Y6151986D01*
X-32464515Y6151987D01*
X-32445013Y6350000D01*
X-30224987Y6350000D01*
X-30205484Y6151986D01*
X-30147726Y5961581D01*
X-30053931Y5786103D01*
X-29927704Y5632296D01*
X-29773897Y5506069D01*
X-29773895Y5506068D01*
X-29598419Y5412274D01*
X-29598420Y5412274D01*
X-29408012Y5354515D01*
X-29299531Y5343831D01*
X-29259618Y5339900D01*
X-29259615Y5339900D01*
X-29160385Y5339900D01*
X-29160382Y5339900D01*
X-29123752Y5343507D01*
X-29011987Y5354515D01*
X-29011986Y5354515D01*
X-28821579Y5412274D01*
X-28646104Y5506068D01*
X-28492296Y5632295D01*
X-28492295Y5632296D01*
X-28366068Y5786104D01*
X-28272274Y5961579D01*
X-28214515Y6151986D01*
X-28214515Y6151987D01*
X-28195013Y6350000D01*
X-28214515Y6548012D01*
X-28214515Y6548013D01*
X-28272274Y6738420D01*
X-28366068Y6913895D01*
X-28366069Y6913897D01*
X-28492296Y7067704D01*
X-28646103Y7193931D01*
X-28821581Y7287726D01*
X-29011986Y7345484D01*
X-29160382Y7360100D01*
X-29259618Y7360100D01*
X-29408014Y7345484D01*
X-29598419Y7287726D01*
X-29773897Y7193931D01*
X-29927704Y7067704D01*
X-30053931Y6913897D01*
X-30147726Y6738419D01*
X-30205484Y6548014D01*
X-30224987Y6350000D01*
X-32445013Y6350000D01*
X-32464515Y6548012D01*
X-32464515Y6548013D01*
X-32522274Y6738420D01*
X-32616068Y6913895D01*
X-32616069Y6913897D01*
X-32742296Y7067704D01*
X-32896103Y7193931D01*
X-33071581Y7287726D01*
X-33261986Y7345484D01*
X-33410382Y7360100D01*
X-33410385Y7360100D01*
X-33455630Y7360100D01*
X-33456931Y7360164D01*
X-33463069Y7360164D01*
X-33464370Y7360100D01*
X-33509618Y7360100D01*
X-33658014Y7345484D01*
X-33848419Y7287726D01*
X-34023897Y7193931D01*
X-34177704Y7067704D01*
X-34303931Y6913897D01*
X-34397726Y6738419D01*
X-34455484Y6548014D01*
X-34474987Y6350000D01*
X-34985013Y6350000D01*
X-35004515Y6548012D01*
X-35004515Y6548013D01*
X-35062274Y6738420D01*
X-35156068Y6913895D01*
X-35156069Y6913897D01*
X-35282296Y7067704D01*
X-35436103Y7193931D01*
X-35611581Y7287726D01*
X-35801986Y7345484D01*
X-35950382Y7360100D01*
X-35950385Y7360100D01*
X-35995630Y7360100D01*
X-35996931Y7360164D01*
X-36003069Y7360164D01*
X-36004370Y7360100D01*
X-36049618Y7360100D01*
X-36198014Y7345484D01*
X-36388419Y7287726D01*
X-36563897Y7193931D01*
X-36717704Y7067704D01*
X-36843931Y6913897D01*
X-36937726Y6738419D01*
X-36995484Y6548014D01*
X-37014987Y6350000D01*
X-39694700Y6350000D01*
X-39694700Y8890000D01*
X-30224987Y8890000D01*
X-30205484Y8691986D01*
X-30147726Y8501581D01*
X-30053931Y8326103D01*
X-29927704Y8172296D01*
X-29773897Y8046069D01*
X-29625249Y7966615D01*
X-29598419Y7952274D01*
X-29598420Y7952274D01*
X-29408012Y7894515D01*
X-29299531Y7883831D01*
X-29259618Y7879900D01*
X-29259615Y7879900D01*
X-29160385Y7879900D01*
X-29160382Y7879900D01*
X-29123752Y7883507D01*
X-29011987Y7894515D01*
X-29011986Y7894515D01*
X-28821579Y7952274D01*
X-28646104Y8046068D01*
X-28492296Y8172295D01*
X-28492295Y8172296D01*
X-28366068Y8326104D01*
X-28272274Y8501579D01*
X-28214515Y8691986D01*
X-28214515Y8691987D01*
X-28195013Y8889999D01*
X-28214515Y9088012D01*
X-28214515Y9088013D01*
X-28272274Y9278420D01*
X-28366068Y9453895D01*
X-28366069Y9453897D01*
X-28492296Y9607704D01*
X-28646103Y9733931D01*
X-28821581Y9827726D01*
X-29011986Y9885484D01*
X-29160382Y9900100D01*
X-29259618Y9900100D01*
X-29408014Y9885484D01*
X-29598419Y9827726D01*
X-29773897Y9733931D01*
X-29927704Y9607704D01*
X-30053931Y9453897D01*
X-30147726Y9278419D01*
X-30205484Y9088014D01*
X-30224987Y8890000D01*
X-39694700Y8890000D01*
X-39694700Y25400000D01*
X-18794987Y25400000D01*
X-18775484Y25201986D01*
X-18717726Y25011581D01*
X-18623931Y24836103D01*
X-18497704Y24682296D01*
X-18343897Y24556069D01*
X-18168418Y24462274D01*
X-18168419Y24462274D01*
X-18168420Y24462274D01*
X-17978012Y24404515D01*
X-17869531Y24393831D01*
X-17829618Y24389900D01*
X-17829615Y24389900D01*
X-17730385Y24389900D01*
X-17730382Y24389900D01*
X-17693752Y24393507D01*
X-17581987Y24404515D01*
X-17581986Y24404515D01*
X-17391579Y24462274D01*
X-17216104Y24556068D01*
X-17062296Y24682295D01*
X-17062295Y24682296D01*
X-16936068Y24836104D01*
X-16842274Y25011579D01*
X-16784515Y25201986D01*
X-16784515Y25201987D01*
X-16765013Y25400000D01*
X-13559507Y25400000D01*
X-13540725Y25221294D01*
X-13485201Y25050410D01*
X-13457235Y25001973D01*
X-13098726Y25360481D01*
X-13085165Y25274852D01*
X-13027641Y25161955D01*
X-12938045Y25072359D01*
X-12825148Y25014835D01*
X-12739517Y25001272D01*
X-13098888Y24641901D01*
X-12965602Y24582559D01*
X-12789840Y24545200D01*
X-12610160Y24545200D01*
X-12434395Y24582559D01*
X-12301111Y24641900D01*
X-12301111Y24641901D01*
X-12660482Y25001272D01*
X-12574852Y25014835D01*
X-12461955Y25072359D01*
X-12372359Y25161955D01*
X-12314835Y25274852D01*
X-12301272Y25360482D01*
X-11942763Y25001973D01*
X-11942762Y25001973D01*
X-11914800Y25050406D01*
X-11859274Y25221294D01*
X-11840492Y25400000D01*
X-11859274Y25578705D01*
X-11914799Y25749591D01*
X-11914800Y25749593D01*
X-11942762Y25798025D01*
X-11942763Y25798025D01*
X-12301272Y25439515D01*
X-12314835Y25525148D01*
X-12372359Y25638045D01*
X-12461955Y25727641D01*
X-12574852Y25785165D01*
X-12660481Y25798727D01*
X-12301111Y26158097D01*
X-12434395Y26217440D01*
X-12610160Y26254800D01*
X-12789840Y26254800D01*
X-12965606Y26217439D01*
X-13098887Y26158098D01*
X-13098887Y26158097D01*
X-12739516Y25798727D01*
X-12825148Y25785165D01*
X-12938045Y25727641D01*
X-13027641Y25638045D01*
X-13085165Y25525148D01*
X-13098727Y25439517D01*
X-13457235Y25798025D01*
X-13485198Y25749594D01*
X-13485201Y25749587D01*
X-13540725Y25578705D01*
X-13559507Y25400000D01*
X-16765013Y25400000D01*
X-16784515Y25598012D01*
X-16784515Y25598013D01*
X-16842274Y25788420D01*
X-16936068Y25963895D01*
X-16936069Y25963897D01*
X-17034714Y26084096D01*
X-17062295Y26117703D01*
X-17062296Y26117704D01*
X-17183823Y26217439D01*
X-17216103Y26243931D01*
X-17391581Y26337726D01*
X-17581986Y26395484D01*
X-17730382Y26410100D01*
X-17829618Y26410100D01*
X-17978014Y26395484D01*
X-18168419Y26337726D01*
X-18343897Y26243931D01*
X-18497704Y26117704D01*
X-18623931Y25963897D01*
X-18717726Y25788419D01*
X-18775484Y25598014D01*
X-18794987Y25400000D01*
X-39694700Y25400000D01*
X-39694700Y26455000D01*
X-3850286Y26455000D01*
X-3830380Y26227471D01*
X-3771266Y26006856D01*
X-3674741Y25799857D01*
X-3674739Y25799854D01*
X-3674736Y25799849D01*
X-3543736Y25612763D01*
X-3382236Y25451263D01*
X-3195150Y25320263D01*
X-3195145Y25320260D01*
X-2988147Y25223735D01*
X-2988145Y25223734D01*
X-2988144Y25223734D01*
X-2869914Y25192054D01*
X-2767527Y25164619D01*
X-2561813Y25146622D01*
X-2540000Y25144714D01*
X-2539999Y25144714D01*
X-2312472Y25164619D01*
X-2150971Y25207894D01*
X-2091856Y25223734D01*
X-2091855Y25223734D01*
X-2091852Y25223735D01*
X-1884854Y25320260D01*
X-1884849Y25320263D01*
X-1697763Y25451263D01*
X-1536263Y25612763D01*
X-1405263Y25799849D01*
X-1405260Y25799854D01*
X-1308735Y26006852D01*
X-1308734Y26006857D01*
X-1308689Y26007023D01*
X-1279032Y26117704D01*
X-1249619Y26227472D01*
X-1229714Y26455000D01*
X1230216Y26455000D01*
X1250114Y26227558D01*
X1309205Y26007030D01*
X1309207Y26007023D01*
X1405695Y25800107D01*
X1405695Y25800106D01*
X1455198Y25729408D01*
X1936065Y26210275D01*
X1947188Y26176044D01*
X2035186Y26037381D01*
X2154903Y25924960D01*
X2293161Y25848951D01*
X1814408Y25370198D01*
X1885107Y25320695D01*
X2092023Y25224207D01*
X2092030Y25224205D01*
X2312558Y25165114D01*
X2312557Y25165114D01*
X2539999Y25145216D01*
X2767441Y25165114D01*
X2987969Y25224205D01*
X2987976Y25224207D01*
X3194894Y25320695D01*
X3194897Y25320697D01*
X3265591Y25370197D01*
X3265591Y25370198D01*
X2783481Y25852308D01*
X2855629Y25880874D01*
X2988492Y25977405D01*
X3093175Y26103945D01*
X3143441Y26210767D01*
X3624801Y25729408D01*
X3674301Y25800100D01*
X3674304Y25800105D01*
X3770792Y26007023D01*
X3770794Y26007030D01*
X3829885Y26227558D01*
X3849783Y26455000D01*
X3829885Y26682441D01*
X3770794Y26902969D01*
X3770792Y26902976D01*
X3674304Y27109894D01*
X3624801Y27180590D01*
X3624800Y27180591D01*
X3143934Y26699724D01*
X3132812Y26733956D01*
X3044814Y26872619D01*
X2925097Y26985040D01*
X2786838Y27061048D01*
X3265591Y27539801D01*
X3194893Y27589304D01*
X3194895Y27589304D01*
X2987976Y27685792D01*
X2987969Y27685794D01*
X2767441Y27744885D01*
X2767442Y27744885D01*
X2539999Y27764783D01*
X2312558Y27744885D01*
X2092030Y27685794D01*
X2092023Y27685792D01*
X1885105Y27589304D01*
X1885100Y27589301D01*
X1814408Y27539801D01*
X2296518Y27057691D01*
X2224371Y27029126D01*
X2091508Y26932595D01*
X1986825Y26806055D01*
X1936557Y26699230D01*
X1455198Y27180591D01*
X1455197Y27180591D01*
X1405697Y27109897D01*
X1405695Y27109894D01*
X1309207Y26902976D01*
X1309205Y26902969D01*
X1250114Y26682441D01*
X1230216Y26455000D01*
X-1229714Y26455000D01*
X-1249619Y26682527D01*
X-1300555Y26872619D01*
X-1308734Y26903144D01*
X-1346923Y26985040D01*
X-1405260Y27110145D01*
X-1405263Y27110150D01*
X-1536263Y27297236D01*
X-1697763Y27458736D01*
X-1884849Y27589736D01*
X-1884854Y27589739D01*
X-1884857Y27589741D01*
X-2091856Y27686266D01*
X-2312471Y27745380D01*
X-2540000Y27765286D01*
X-2767529Y27745380D01*
X-2988144Y27686266D01*
X-3195143Y27589741D01*
X-3382236Y27458737D01*
X-3543737Y27297236D01*
X-3674741Y27110143D01*
X-3771266Y26903144D01*
X-3830380Y26682529D01*
X-3850286Y26455000D01*
X-39694700Y26455000D01*
X-39694700Y26997872D01*
X-39694581Y27002117D01*
X-39677994Y27297464D01*
X-39677042Y27305906D01*
X-39627850Y27595431D01*
X-39625960Y27603714D01*
X-39544658Y27885919D01*
X-39541852Y27893938D01*
X-39429471Y28165250D01*
X-39425785Y28172904D01*
X-39283725Y28429943D01*
X-39279205Y28437137D01*
X-39109261Y28676649D01*
X-39103964Y28683292D01*
X-38908275Y28902267D01*
X-38902267Y28908275D01*
X-38683292Y29103964D01*
X-38676649Y29109261D01*
X-38437137Y29279205D01*
X-38429943Y29283725D01*
X-38172904Y29425785D01*
X-38165250Y29429471D01*
X-37893938Y29541852D01*
X-37885919Y29544658D01*
X-37603714Y29625960D01*
X-37595431Y29627850D01*
X-37305906Y29677042D01*
X-37297464Y29677994D01*
X-37002118Y29694581D01*
X-36997873Y29694700D01*
X-36951645Y29694700D01*
X36951645Y29694700D01*
X36997873Y29694700D01*
X37002118Y29694581D01*
G37*
G04 #@! TD.AperFunction*
M02*
